G75*
%MOIN*%
%OFA0B0*%
%FSLAX24Y24*%
%IPPOS*%
%LPD*%
%AMOC8*
5,1,8,0,0,1.08239X$1,22.5*
%
%ADD10C,0.0080*%
%ADD11C,0.0740*%
%ADD12C,0.0650*%
%ADD13C,0.0560*%
%ADD14R,0.0600X0.0300*%
%ADD15C,0.0640*%
%ADD16C,0.0660*%
%ADD17C,0.1005*%
%ADD18C,0.0740*%
%ADD19C,0.0160*%
%ADD20C,0.0436*%
%ADD21C,0.0440*%
%ADD22C,0.0400*%
D10*
X002740Y005340D02*
X002490Y005590D01*
X002490Y007240D01*
X002040Y007690D01*
X002590Y007640D02*
X003240Y006990D01*
X003240Y005690D01*
X002840Y005340D02*
X002740Y005340D01*
X002840Y005340D02*
X003390Y004790D01*
X003390Y004440D01*
X006120Y001710D01*
X006850Y001710D01*
X007457Y001443D01*
X007807Y001283D01*
X008790Y002190D02*
X008940Y002340D01*
X014540Y002340D01*
X015340Y003140D01*
X015340Y005440D01*
X017290Y007390D01*
X019690Y009040D02*
X019690Y022140D01*
X016540Y022140D01*
X016540Y024940D01*
X019540Y024940D01*
X019540Y031040D01*
X019538Y031107D01*
X019532Y031174D01*
X019523Y031241D01*
X019510Y031307D01*
X019493Y031372D01*
X019473Y031436D01*
X019449Y031499D01*
X019421Y031561D01*
X019390Y031620D01*
X019356Y031678D01*
X019319Y031734D01*
X019278Y031788D01*
X019235Y031840D01*
X019189Y031889D01*
X019140Y031935D01*
X019088Y031978D01*
X019034Y032019D01*
X018978Y032056D01*
X018920Y032090D01*
X018861Y032121D01*
X018799Y032149D01*
X018736Y032173D01*
X018672Y032193D01*
X018607Y032210D01*
X018541Y032223D01*
X018474Y032232D01*
X018407Y032238D01*
X018340Y032240D01*
X001490Y032240D01*
X001420Y032238D01*
X001350Y032232D01*
X001281Y032222D01*
X001212Y032209D01*
X001144Y032191D01*
X001077Y032170D01*
X001012Y032145D01*
X000948Y032116D01*
X000885Y032084D01*
X000825Y032048D01*
X000767Y032009D01*
X000711Y031967D01*
X000657Y031922D01*
X000606Y031874D01*
X000558Y031823D01*
X000513Y031769D01*
X000471Y031713D01*
X000432Y031655D01*
X000396Y031595D01*
X000364Y031532D01*
X000335Y031468D01*
X000310Y031403D01*
X000289Y031336D01*
X000271Y031268D01*
X000258Y031199D01*
X000248Y031130D01*
X000242Y031060D01*
X000240Y030990D01*
X000240Y025290D01*
X002840Y025290D01*
X002840Y022490D01*
X000140Y022490D01*
X000140Y009340D01*
X002373Y012530D02*
X002373Y014341D01*
X002334Y014341D01*
X000838Y015837D01*
X000840Y015839D01*
X000840Y021290D01*
X001690Y022140D01*
X003140Y022140D01*
X003279Y022279D01*
X003279Y031349D01*
X006035Y031349D01*
X006350Y031034D01*
X006350Y030955D01*
X006822Y030483D01*
X006840Y030450D01*
X008703Y029790D02*
X008703Y029783D01*
X010720Y027766D01*
X010710Y023882D01*
X010720Y023868D01*
X010720Y023671D01*
X011468Y022923D01*
X011490Y022790D01*
X011468Y022805D01*
X011468Y022884D01*
X011490Y022790D02*
X011468Y022766D01*
X011468Y021270D01*
X010996Y020797D01*
X010990Y020790D01*
X010562Y020286D02*
X010562Y021585D01*
X010918Y021940D01*
X011040Y021940D01*
X010681Y022097D02*
X010681Y022609D01*
X010051Y023238D01*
X009145Y023238D01*
X006114Y026270D01*
X004990Y026290D01*
X004460Y025286D02*
X005247Y024498D01*
X005247Y022569D01*
X004184Y021506D01*
X002570Y021506D01*
X002570Y018632D01*
X002649Y018553D01*
X002490Y017740D02*
X001990Y017740D01*
X001990Y016040D01*
X002373Y015657D01*
X002373Y014341D01*
X002019Y015364D02*
X001566Y015364D01*
X001090Y015840D01*
X001090Y018144D01*
X001035Y018199D01*
X001035Y021185D01*
X001690Y021840D01*
X002390Y021840D01*
X002490Y021940D01*
X003240Y021940D01*
X003633Y022333D01*
X003633Y025089D01*
X004027Y025483D01*
X004027Y025522D01*
X004027Y028042D01*
X004303Y028238D02*
X004460Y028081D01*
X004460Y025286D01*
X004342Y024931D02*
X004342Y024105D01*
X004184Y023947D01*
X004184Y023396D01*
X003830Y024341D02*
X003988Y024498D01*
X003830Y024341D02*
X003830Y021742D01*
X002570Y021742D01*
X002492Y021664D01*
X001822Y021664D01*
X001271Y021112D01*
X001271Y018947D01*
X001704Y018514D01*
X001740Y018503D01*
X002590Y016640D02*
X002590Y012940D01*
X002790Y012740D01*
X002790Y012340D01*
X002590Y012140D01*
X002590Y007640D01*
X003043Y007845D02*
X003988Y006900D01*
X003988Y006821D01*
X003990Y006790D01*
X003988Y006742D01*
X003988Y006585D01*
X004460Y006112D01*
X004450Y003968D01*
X005759Y002658D01*
X012964Y002687D01*
X013837Y002687D01*
X014590Y003440D01*
X014590Y003990D01*
X013440Y001640D02*
X010840Y001640D01*
X010390Y002090D01*
X009190Y002090D01*
X009090Y001990D01*
X009090Y001190D01*
X008790Y002190D02*
X006140Y002190D01*
X006350Y003240D02*
X005210Y004380D01*
X005210Y007882D01*
X005208Y007894D01*
X005208Y009498D01*
X005287Y009577D01*
X005287Y014459D01*
X005129Y014616D01*
X005405Y014813D02*
X006665Y013553D01*
X007373Y013160D02*
X007373Y014577D01*
X007570Y014853D02*
X008318Y014105D01*
X008325Y014105D01*
X008640Y013790D01*
X008640Y013690D01*
X009190Y013140D01*
X010110Y013140D01*
X010956Y012294D01*
X010990Y012290D01*
X011480Y012728D02*
X011480Y012817D01*
X012570Y013908D01*
X012570Y015719D01*
X012688Y015837D01*
X012688Y017490D01*
X012964Y017766D01*
X012990Y017790D01*
X012492Y017412D02*
X012492Y018947D01*
X013988Y020443D01*
X013988Y020758D01*
X013990Y020790D01*
X013909Y021506D02*
X014578Y021506D01*
X014578Y019734D01*
X015956Y018357D01*
X015956Y017805D01*
X015990Y017790D01*
X015996Y017766D01*
X015996Y017372D01*
X016232Y017136D01*
X016232Y015955D01*
X015523Y016309D02*
X015490Y016290D01*
X015523Y016309D02*
X015523Y017333D01*
X015523Y017372D01*
X015405Y017490D01*
X015405Y018671D01*
X013476Y018671D01*
X013121Y018514D02*
X013121Y019026D01*
X014814Y019026D01*
X015287Y019498D02*
X015287Y020483D01*
X015011Y020758D01*
X014990Y020790D01*
X015562Y020364D02*
X015562Y023002D01*
X015996Y023435D01*
X015996Y026034D01*
X016490Y026540D01*
X017240Y026040D02*
X016722Y025522D01*
X016192Y025522D01*
X016192Y022057D01*
X016429Y021821D01*
X016429Y019971D01*
X016625Y019774D01*
X016625Y018868D01*
X016980Y018514D01*
X016990Y018503D01*
X017177Y018042D02*
X016429Y018042D01*
X016429Y019498D01*
X015562Y020364D01*
X016783Y021467D02*
X017688Y020561D01*
X017728Y020561D01*
X017728Y013396D01*
X015523Y011191D01*
X015523Y011073D01*
X015490Y011040D01*
X014775Y011546D02*
X015484Y012254D01*
X015490Y012290D01*
X015523Y012294D01*
X015523Y012490D01*
X016232Y013199D01*
X016232Y013947D01*
X014933Y015246D01*
X014578Y016467D02*
X014578Y008317D01*
X013279Y007018D01*
X013240Y007040D01*
X013043Y006546D02*
X014775Y006546D01*
X014775Y011546D01*
X013780Y010300D02*
X012930Y010300D01*
X012660Y010570D01*
X010820Y010570D01*
X011310Y010910D02*
X011480Y011168D01*
X011480Y012728D01*
X011190Y013540D02*
X010870Y013540D01*
X009990Y014420D01*
X009224Y014420D01*
X009145Y014341D01*
X008712Y014341D01*
X007990Y015290D02*
X008003Y015325D01*
X009145Y016467D01*
X009145Y016546D01*
X009106Y017057D02*
X007413Y017057D01*
X007413Y018632D01*
X007334Y018711D01*
X006586Y019262D02*
X006586Y016546D01*
X007570Y015561D01*
X007570Y014853D01*
X007373Y013160D02*
X007846Y012687D01*
X007846Y012434D01*
X007990Y012290D01*
X006389Y011191D02*
X006389Y011191D01*
X006090Y011490D01*
X005690Y011490D01*
X006389Y011191D02*
X010129Y007451D01*
X010129Y005876D01*
X010247Y005758D01*
X012728Y005758D01*
X012728Y006231D01*
X013043Y006546D01*
X013240Y008040D02*
X013279Y008042D01*
X013358Y008042D01*
X014381Y009065D01*
X014381Y016742D01*
X014381Y016782D01*
X014381Y017412D01*
X014027Y017766D01*
X013990Y017790D01*
X013555Y018081D02*
X013555Y016309D01*
X014184Y015679D01*
X014184Y014577D01*
X014177Y014577D01*
X013140Y013540D01*
X012373Y013160D02*
X012373Y012884D01*
X012964Y012294D01*
X012990Y012290D01*
X012040Y014040D02*
X011690Y014040D01*
X011190Y013540D01*
X011035Y014262D02*
X010444Y014853D01*
X010444Y015719D01*
X009106Y017057D01*
X009421Y017215D02*
X009421Y018357D01*
X009027Y018750D01*
X009145Y019105D02*
X009145Y020089D01*
X009539Y020483D01*
X009539Y021231D01*
X010405Y022097D01*
X010681Y022097D01*
X010326Y022451D02*
X009696Y022451D01*
X009027Y023120D01*
X008240Y023120D01*
X008240Y022451D01*
X007767Y021979D01*
X006547Y021979D01*
X006429Y021585D02*
X005877Y022136D01*
X005877Y022175D01*
X005877Y022372D01*
X005405Y021782D02*
X005169Y022018D01*
X005405Y021782D02*
X005405Y020207D01*
X004893Y019695D01*
X005444Y019774D02*
X004696Y019026D01*
X004224Y019026D01*
X004224Y018632D01*
X004578Y018865D02*
X005215Y018865D01*
X005790Y019440D01*
X005790Y020277D01*
X005956Y020443D01*
X005956Y020758D01*
X005990Y020790D01*
X006429Y021585D02*
X006429Y019813D01*
X006350Y019734D01*
X006350Y019695D01*
X006271Y019616D01*
X006271Y019577D01*
X006586Y019262D01*
X006232Y018829D02*
X005996Y018593D01*
X005996Y017805D01*
X005990Y017790D01*
X005996Y017766D01*
X005996Y015325D01*
X005990Y015290D01*
X005405Y014813D02*
X005405Y017175D01*
X005129Y017451D01*
X005129Y017648D01*
X005011Y017766D01*
X004990Y017790D01*
X004578Y017136D02*
X004578Y018865D01*
X004324Y019516D02*
X004314Y019516D01*
X003690Y020140D01*
X003240Y020140D01*
X002990Y020390D01*
X002990Y020790D01*
X003390Y019740D02*
X003390Y018740D01*
X003490Y018640D01*
X002990Y017790D02*
X003003Y017766D01*
X003043Y017727D01*
X003043Y007845D01*
X003990Y009290D02*
X003988Y009301D01*
X003988Y009577D01*
X003240Y010325D01*
X003240Y017018D01*
X003988Y017766D01*
X003990Y017790D01*
X004578Y017136D02*
X004775Y016939D01*
X004775Y006900D01*
X004933Y006742D01*
X004933Y004026D01*
X006350Y003240D02*
X012580Y003240D01*
X010590Y006040D02*
X010602Y006073D01*
X011901Y007372D01*
X011901Y009021D01*
X012690Y009810D01*
X019690Y009040D02*
X019687Y008825D01*
X019680Y008610D01*
X019667Y008395D01*
X019648Y008181D01*
X019625Y007967D01*
X019597Y007754D01*
X019563Y007542D01*
X019524Y007330D01*
X019480Y007120D01*
X019431Y006910D01*
X019377Y006702D01*
X019318Y006495D01*
X019254Y006290D01*
X019185Y006086D01*
X019112Y005884D01*
X019033Y005684D01*
X018949Y005486D01*
X018861Y005290D01*
X018768Y005096D01*
X018671Y004904D01*
X018568Y004715D01*
X018462Y004528D01*
X018350Y004344D01*
X018235Y004163D01*
X018115Y003984D01*
X017990Y003809D01*
X017862Y003636D01*
X017729Y003467D01*
X017592Y003301D01*
X017452Y003138D01*
X017307Y002979D01*
X017159Y002823D01*
X017007Y002671D01*
X016851Y002523D01*
X016692Y002378D01*
X016529Y002238D01*
X016363Y002101D01*
X016194Y001968D01*
X016021Y001840D01*
X015846Y001715D01*
X015667Y001595D01*
X015486Y001480D01*
X015302Y001368D01*
X015115Y001262D01*
X014926Y001159D01*
X014734Y001062D01*
X014540Y000969D01*
X014344Y000881D01*
X014146Y000797D01*
X013946Y000718D01*
X013744Y000645D01*
X013540Y000576D01*
X013335Y000512D01*
X013128Y000453D01*
X012920Y000399D01*
X012710Y000350D01*
X012500Y000306D01*
X012288Y000267D01*
X012076Y000233D01*
X011863Y000205D01*
X011649Y000182D01*
X011435Y000163D01*
X011220Y000150D01*
X011005Y000143D01*
X010790Y000140D01*
X009340Y000140D01*
X009118Y000143D01*
X008896Y000151D01*
X008674Y000164D01*
X008452Y000183D01*
X008231Y000207D01*
X008011Y000237D01*
X007791Y000271D01*
X007572Y000311D01*
X007355Y000357D01*
X007138Y000407D01*
X006923Y000463D01*
X006709Y000524D01*
X006497Y000590D01*
X006286Y000662D01*
X006078Y000738D01*
X005871Y000819D01*
X005666Y000906D01*
X005463Y000997D01*
X005263Y001093D01*
X005065Y001194D01*
X004869Y001299D01*
X004676Y001410D01*
X004486Y001525D01*
X004298Y001644D01*
X004114Y001769D01*
X003932Y001897D01*
X003754Y002030D01*
X003579Y002167D01*
X003407Y002308D01*
X003239Y002454D01*
X003075Y002603D01*
X002914Y002756D01*
X002756Y002914D01*
X002603Y003075D01*
X002454Y003239D01*
X002308Y003407D01*
X002167Y003579D01*
X002030Y003754D01*
X001897Y003932D01*
X001769Y004114D01*
X001644Y004298D01*
X001525Y004486D01*
X001410Y004676D01*
X001299Y004869D01*
X001194Y005065D01*
X001093Y005263D01*
X000997Y005463D01*
X000906Y005666D01*
X000819Y005871D01*
X000738Y006078D01*
X000662Y006286D01*
X000590Y006497D01*
X000524Y006709D01*
X000463Y006923D01*
X000407Y007138D01*
X000357Y007355D01*
X000311Y007572D01*
X000271Y007791D01*
X000237Y008011D01*
X000207Y008231D01*
X000183Y008452D01*
X000164Y008674D01*
X000151Y008896D01*
X000143Y009118D01*
X000140Y009340D01*
X003990Y016040D02*
X004027Y016073D01*
X004027Y016388D01*
X004342Y016703D01*
X006980Y017805D02*
X006990Y017790D01*
X006980Y017805D02*
X006980Y019931D01*
X007413Y020364D01*
X007413Y021782D01*
X008594Y021782D01*
X008594Y022766D01*
X009184Y022490D02*
X009184Y022136D01*
X008555Y021506D01*
X008555Y019656D01*
X008358Y019459D01*
X008003Y019105D02*
X008003Y020758D01*
X007990Y020790D01*
X008003Y019105D02*
X009145Y019105D01*
X009618Y018632D01*
X009618Y018160D01*
X009972Y017805D01*
X009990Y017790D01*
X009421Y017215D02*
X009618Y017018D01*
X010562Y017333D02*
X010562Y018278D01*
X011625Y019341D01*
X011980Y019931D02*
X012413Y020364D01*
X012413Y022923D01*
X012019Y023317D01*
X012019Y024341D01*
X012098Y024420D01*
X012098Y025797D01*
X012255Y025955D01*
X012255Y027018D01*
X010799Y028475D01*
X010799Y028868D01*
X010770Y028900D01*
X010277Y029790D02*
X010444Y029957D01*
X010444Y030364D01*
X010759Y030679D01*
X010770Y030680D01*
X011547Y031309D02*
X009814Y031309D01*
X009814Y028908D01*
X010996Y027727D01*
X010996Y024420D01*
X011035Y024380D01*
X010444Y023435D02*
X009696Y023435D01*
X008673Y024459D01*
X008673Y025089D01*
X007492Y026270D01*
X007490Y026290D01*
X004303Y028238D02*
X004303Y030010D01*
X003870Y030443D01*
X003840Y030450D01*
X010562Y020286D02*
X009499Y019223D01*
X010562Y017333D02*
X010641Y017254D01*
X010641Y015640D01*
X010956Y015325D01*
X010990Y015290D01*
X011990Y015290D02*
X012019Y015325D01*
X012373Y015679D01*
X012373Y017294D01*
X012492Y017412D01*
X011990Y017790D02*
X011980Y017805D01*
X011980Y019931D01*
X012334Y019341D02*
X012649Y019341D01*
X013397Y020089D01*
X013397Y022412D01*
X013161Y022648D01*
X013673Y022609D02*
X013673Y021742D01*
X013909Y021506D01*
X014027Y021860D02*
X014263Y021860D01*
X014775Y022372D01*
X014775Y030089D01*
X014303Y030561D01*
X014280Y030600D01*
X015280Y030600D02*
X015287Y030561D01*
X015641Y030207D01*
X015641Y023553D01*
X014421Y024301D02*
X014421Y024301D01*
X014421Y024538D01*
X012767Y024538D01*
X012740Y024540D01*
X012740Y023540D02*
X012767Y023514D01*
X013673Y022609D01*
X013121Y018514D02*
X013555Y018081D01*
X014893Y016782D02*
X014578Y016467D01*
X014893Y016782D02*
X014893Y017687D01*
X014972Y017766D01*
X014990Y017790D01*
X013240Y016112D02*
X013830Y015522D01*
X013830Y015246D01*
X017452Y019616D02*
X017019Y020049D01*
X016990Y020077D01*
X017452Y019616D02*
X017452Y018317D01*
X017177Y018042D01*
X017240Y026040D02*
X017240Y027040D01*
X016640Y027640D01*
X014240Y028290D02*
X013755Y027805D01*
X013043Y027805D01*
X012280Y030600D02*
X012255Y030601D01*
X011547Y031309D01*
D11*
X014240Y028290D03*
X014240Y027290D03*
X014240Y026290D03*
X014240Y023540D03*
X014240Y022540D03*
X016490Y026540D03*
X017900Y026530D03*
X017900Y030530D03*
X016490Y030540D03*
X011490Y026290D03*
X011490Y022790D03*
X007490Y022790D03*
X007490Y026290D03*
X004990Y026290D03*
X004990Y027290D03*
X004990Y028290D03*
X004740Y023790D03*
X004740Y022790D03*
X002090Y028040D03*
X002090Y029040D03*
X002090Y030040D03*
X003990Y016040D03*
X003990Y013290D03*
X003990Y012040D03*
X003990Y010790D03*
X003990Y009290D03*
X003990Y006790D03*
X010240Y001390D03*
X013240Y004040D03*
X013240Y005040D03*
X013240Y006040D03*
X013240Y007040D03*
X013240Y008040D03*
X013240Y009040D03*
X015490Y009540D03*
X015490Y011040D03*
X015490Y012290D03*
X015490Y013540D03*
X015490Y016290D03*
X017290Y007390D03*
X017290Y006390D03*
X017290Y005390D03*
X015490Y007040D03*
D12*
X012740Y023540D03*
X012740Y024540D03*
X006490Y024790D03*
X006490Y023790D03*
D13*
X005990Y021070D02*
X005990Y020510D01*
X004990Y020510D02*
X004990Y021070D01*
X003990Y021070D02*
X003990Y020510D01*
X002990Y020510D02*
X002990Y021070D01*
X002990Y018070D02*
X002990Y017510D01*
X003990Y017510D02*
X003990Y018070D01*
X004990Y018070D02*
X004990Y017510D01*
X005990Y017510D02*
X005990Y018070D01*
X006990Y018070D02*
X006990Y017510D01*
X007990Y017510D02*
X007990Y018070D01*
X008990Y018070D02*
X008990Y017510D01*
X009990Y017510D02*
X009990Y018070D01*
X010990Y018070D02*
X010990Y017510D01*
X011990Y017510D02*
X011990Y018070D01*
X012990Y018070D02*
X012990Y017510D01*
X013990Y017510D02*
X013990Y018070D01*
X014990Y018070D02*
X014990Y017510D01*
X015990Y017510D02*
X015990Y018070D01*
X015990Y020510D02*
X015990Y021070D01*
X014990Y021070D02*
X014990Y020510D01*
X013990Y020510D02*
X013990Y021070D01*
X012990Y021070D02*
X012990Y020510D01*
X011990Y020510D02*
X011990Y021070D01*
X010990Y021070D02*
X010990Y020510D01*
X009990Y020510D02*
X009990Y021070D01*
X008990Y021070D02*
X008990Y020510D01*
X007990Y020510D02*
X007990Y021070D01*
X006990Y021070D02*
X006990Y020510D01*
X006990Y015570D02*
X006990Y015010D01*
X005990Y015010D02*
X005990Y015570D01*
X007990Y015570D02*
X007990Y015010D01*
X008990Y015010D02*
X008990Y015570D01*
X009990Y015570D02*
X009990Y015010D01*
X010990Y015010D02*
X010990Y015570D01*
X011990Y015570D02*
X011990Y015010D01*
X012990Y015010D02*
X012990Y015570D01*
X012990Y012570D02*
X012990Y012010D01*
X011990Y012010D02*
X011990Y012570D01*
X010990Y012570D02*
X010990Y012010D01*
X009990Y012010D02*
X009990Y012570D01*
X008990Y012570D02*
X008990Y012010D01*
X007990Y012010D02*
X007990Y012570D01*
X006990Y012570D02*
X006990Y012010D01*
X005990Y012010D02*
X005990Y012570D01*
D14*
X008390Y007540D03*
X008390Y006040D03*
X010590Y006040D03*
X010590Y007540D03*
D15*
X010450Y028900D02*
X011090Y028900D01*
X011090Y030680D02*
X010450Y030680D01*
X008530Y030680D02*
X007890Y030680D01*
X007890Y028900D02*
X008530Y028900D01*
D16*
X008703Y029790D03*
X010277Y029790D03*
X016990Y020077D03*
X016990Y018503D03*
X001740Y018503D03*
X001740Y020077D03*
D17*
X009490Y024790D03*
X009490Y027790D03*
X009490Y013790D03*
X009490Y010790D03*
D18*
X006840Y030080D02*
X006840Y030820D01*
X005840Y030820D02*
X005840Y030080D01*
X004840Y030080D02*
X004840Y030820D01*
X003840Y030820D02*
X003840Y030080D01*
X012280Y030230D02*
X012280Y030970D01*
X013280Y030970D02*
X013280Y030230D01*
X014280Y030230D02*
X014280Y030970D01*
X015280Y030970D02*
X015280Y030230D01*
D19*
X003364Y004127D02*
X002564Y004127D01*
X002442Y004286D02*
X003205Y004286D01*
X003187Y004304D02*
X003254Y004237D01*
X005984Y001507D01*
X006072Y001470D01*
X006800Y001470D01*
X007358Y001224D01*
X007387Y001212D01*
X007387Y001200D01*
X007450Y001046D01*
X007569Y000927D01*
X007723Y000863D01*
X007890Y000863D01*
X008044Y000927D01*
X008163Y001046D01*
X008227Y001200D01*
X008227Y001367D01*
X008163Y001521D01*
X008044Y001640D01*
X007890Y001703D01*
X007723Y001703D01*
X007588Y001648D01*
X007555Y001662D01*
X007513Y001682D01*
X007511Y001682D01*
X006988Y001912D01*
X006986Y001913D01*
X006944Y001931D01*
X006903Y001949D01*
X006900Y001949D01*
X006898Y001950D01*
X006853Y001950D01*
X006852Y001950D01*
X008838Y001950D01*
X008850Y001955D01*
X008850Y001544D01*
X008734Y001428D01*
X008670Y001274D01*
X008227Y001274D01*
X008199Y001433D02*
X008739Y001433D01*
X008670Y001274D02*
X008670Y001106D01*
X008734Y000952D01*
X008852Y000834D01*
X009006Y000770D01*
X009174Y000770D01*
X009328Y000834D01*
X009446Y000952D01*
X009510Y001106D01*
X009510Y001274D01*
X009671Y001274D01*
X009670Y001277D02*
X009757Y001067D01*
X009917Y000907D01*
X010127Y000820D01*
X010353Y000820D01*
X010563Y000907D01*
X010723Y001067D01*
X010810Y001277D01*
X010810Y001400D01*
X013089Y001400D01*
X013203Y001286D01*
X013357Y001222D01*
X013523Y001222D01*
X013677Y001286D01*
X013794Y001403D01*
X013858Y001557D01*
X013858Y001723D01*
X013794Y001877D01*
X013677Y001994D01*
X013523Y002058D01*
X013357Y002058D01*
X013203Y001994D01*
X013089Y001880D01*
X010939Y001880D01*
X010719Y002100D01*
X014588Y002100D01*
X014676Y002137D01*
X015476Y002937D01*
X015543Y003004D01*
X015580Y003092D01*
X015580Y005341D01*
X016753Y006513D01*
X016740Y006433D01*
X016740Y006410D01*
X017270Y006410D01*
X017270Y006370D01*
X016740Y006370D01*
X016740Y006347D01*
X016754Y006261D01*
X016780Y006179D01*
X016820Y006102D01*
X016870Y006032D01*
X016932Y005970D01*
X017002Y005920D01*
X017036Y005902D01*
X016967Y005873D01*
X016807Y005713D01*
X016720Y005503D01*
X016720Y005277D01*
X016807Y005067D01*
X016967Y004907D01*
X017177Y004820D01*
X017403Y004820D01*
X017613Y004907D01*
X017773Y005067D01*
X017860Y005277D01*
X017860Y005503D01*
X017773Y005713D01*
X017613Y005873D01*
X017544Y005902D01*
X017578Y005920D01*
X017648Y005970D01*
X017710Y006032D01*
X017760Y006102D01*
X017800Y006179D01*
X017826Y006261D01*
X017840Y006347D01*
X017840Y006370D01*
X017310Y006370D01*
X017310Y006410D01*
X017840Y006410D01*
X017840Y006433D01*
X017826Y006519D01*
X017800Y006601D01*
X017760Y006678D01*
X017710Y006748D01*
X017648Y006810D01*
X017578Y006860D01*
X017544Y006878D01*
X017613Y006907D01*
X017773Y007067D01*
X017860Y007277D01*
X017860Y007503D01*
X017773Y007713D01*
X017613Y007873D01*
X017403Y007960D01*
X017177Y007960D01*
X016967Y007873D01*
X016807Y007713D01*
X016720Y007503D01*
X016720Y007277D01*
X016754Y007194D01*
X015137Y005576D01*
X015100Y005488D01*
X015100Y003239D01*
X014441Y002580D01*
X014069Y002580D01*
X014726Y003237D01*
X014793Y003304D01*
X014830Y003392D01*
X014830Y003639D01*
X014944Y003753D01*
X015008Y003907D01*
X015008Y004073D01*
X014944Y004227D01*
X014827Y004344D01*
X014673Y004408D01*
X014507Y004408D01*
X014353Y004344D01*
X014236Y004227D01*
X014172Y004073D01*
X014172Y003907D01*
X014236Y003753D01*
X014350Y003639D01*
X014350Y003539D01*
X013738Y002927D01*
X013011Y002927D01*
X013011Y002927D01*
X012963Y002927D01*
X012916Y002927D01*
X012861Y002927D01*
X012936Y003002D01*
X013000Y003156D01*
X013000Y003324D01*
X012936Y003478D01*
X012818Y003596D01*
X012664Y003660D01*
X012496Y003660D01*
X012342Y003596D01*
X012226Y003480D01*
X006449Y003480D01*
X005450Y004479D01*
X005450Y007854D01*
X005455Y007873D01*
X005450Y007901D01*
X005450Y007930D01*
X005448Y007935D01*
X005448Y009399D01*
X005490Y009441D01*
X005527Y009529D01*
X005527Y011105D01*
X005607Y011072D01*
X005773Y011072D01*
X005927Y011136D01*
X006016Y011225D01*
X006253Y010988D01*
X006254Y010987D01*
X009889Y007352D01*
X009889Y005828D01*
X009926Y005740D01*
X009993Y005673D01*
X009993Y005673D01*
X010044Y005622D01*
X010112Y005555D01*
X010200Y005518D01*
X012776Y005518D01*
X012864Y005555D01*
X012891Y005582D01*
X012917Y005557D01*
X012958Y005540D01*
X012917Y005523D01*
X012757Y005363D01*
X012670Y005153D01*
X012670Y004927D01*
X012757Y004717D01*
X012917Y004557D01*
X012986Y004528D01*
X012952Y004510D01*
X012882Y004460D01*
X012820Y004398D01*
X012770Y004328D01*
X012730Y004251D01*
X012704Y004169D01*
X012690Y004083D01*
X012690Y004060D01*
X013220Y004060D01*
X013220Y004020D01*
X013260Y004020D01*
X013260Y004060D01*
X013790Y004060D01*
X013790Y004083D01*
X013776Y004169D01*
X013750Y004251D01*
X013710Y004328D01*
X013660Y004398D01*
X013598Y004460D01*
X013528Y004510D01*
X013494Y004528D01*
X013563Y004557D01*
X013723Y004717D01*
X013810Y004927D01*
X013810Y005153D01*
X013723Y005363D01*
X013563Y005523D01*
X013522Y005540D01*
X013563Y005557D01*
X013723Y005717D01*
X013810Y005927D01*
X013810Y006153D01*
X013747Y006306D01*
X014823Y006306D01*
X014911Y006342D01*
X014978Y006410D01*
X015015Y006498D01*
X015015Y006709D01*
X015167Y006557D01*
X015377Y006470D01*
X015603Y006470D01*
X015813Y006557D01*
X015973Y006717D01*
X016060Y006927D01*
X016060Y007153D01*
X015973Y007363D01*
X015813Y007523D01*
X015603Y007610D01*
X015377Y007610D01*
X015167Y007523D01*
X015015Y007371D01*
X015015Y009209D01*
X015167Y009057D01*
X015377Y008970D01*
X015603Y008970D01*
X015813Y009057D01*
X015973Y009217D01*
X016060Y009427D01*
X016060Y009653D01*
X015973Y009863D01*
X015813Y010023D01*
X015603Y010110D01*
X015377Y010110D01*
X015167Y010023D01*
X015015Y009871D01*
X015015Y010709D01*
X015167Y010557D01*
X015377Y010470D01*
X015603Y010470D01*
X015813Y010557D01*
X015973Y010717D01*
X016060Y010927D01*
X016060Y011153D01*
X015991Y011320D01*
X017931Y013260D01*
X017968Y013348D01*
X017968Y020609D01*
X017931Y020697D01*
X017864Y020765D01*
X017797Y020793D01*
X017183Y021406D01*
X017183Y021546D01*
X017122Y021693D01*
X017009Y021806D01*
X016862Y021867D01*
X016703Y021867D01*
X016669Y021852D01*
X016669Y021869D01*
X016656Y021900D01*
X016907Y021900D01*
X019240Y021410D01*
X019240Y009290D01*
X019207Y008527D01*
X019107Y007771D01*
X018942Y007025D01*
X018712Y006297D01*
X018420Y005592D01*
X018068Y004915D01*
X017658Y004271D01*
X017193Y003666D01*
X016677Y003103D01*
X016114Y002587D01*
X015509Y002122D01*
X014865Y001712D01*
X014188Y001360D01*
X013483Y001068D01*
X012755Y000838D01*
X012009Y000673D01*
X011253Y000573D01*
X010490Y000540D01*
X009990Y000540D01*
X009162Y000576D01*
X008340Y000684D01*
X007531Y000864D01*
X006741Y001113D01*
X005975Y001430D01*
X005240Y001813D01*
X004541Y002258D01*
X003884Y002763D01*
X003272Y003322D01*
X002713Y003934D01*
X002208Y004591D01*
X001763Y005290D01*
X001380Y006025D01*
X001063Y006791D01*
X000814Y007581D01*
X000634Y008390D01*
X000526Y009212D01*
X000490Y010040D01*
X000490Y022040D01*
X001339Y022129D01*
X000704Y021493D01*
X000637Y021426D01*
X000600Y021338D01*
X000600Y015889D01*
X000598Y015885D01*
X000598Y015789D01*
X000635Y015701D01*
X000702Y015633D01*
X002131Y014205D01*
X002133Y014202D01*
X002133Y012884D01*
X002017Y012768D01*
X001953Y012613D01*
X001953Y012446D01*
X002017Y012292D01*
X002136Y012174D01*
X002290Y012110D01*
X002350Y012110D01*
X002350Y007971D01*
X002277Y008044D01*
X002123Y008108D01*
X001957Y008108D01*
X001803Y008044D01*
X001686Y007927D01*
X001622Y007773D01*
X001622Y007607D01*
X001686Y007453D01*
X001803Y007336D01*
X001957Y007272D01*
X002119Y007272D01*
X002250Y007141D01*
X002250Y005542D01*
X002287Y005454D01*
X002354Y005387D01*
X002604Y005137D01*
X002692Y005100D01*
X002741Y005100D01*
X003150Y004691D01*
X003150Y004392D01*
X003187Y004304D01*
X003150Y004444D02*
X002321Y004444D01*
X002201Y004603D02*
X003150Y004603D01*
X003080Y004761D02*
X002100Y004761D01*
X001999Y004920D02*
X002921Y004920D01*
X002763Y005078D02*
X001898Y005078D01*
X001797Y005237D02*
X002504Y005237D01*
X002346Y005395D02*
X001708Y005395D01*
X001626Y005554D02*
X002250Y005554D01*
X002250Y005712D02*
X001543Y005712D01*
X001461Y005871D02*
X002250Y005871D01*
X002250Y006029D02*
X001378Y006029D01*
X001313Y006188D02*
X002250Y006188D01*
X002250Y006346D02*
X001247Y006346D01*
X001182Y006505D02*
X002250Y006505D01*
X002250Y006663D02*
X001116Y006663D01*
X001053Y006822D02*
X002250Y006822D01*
X002250Y006980D02*
X001003Y006980D01*
X000953Y007139D02*
X002250Y007139D01*
X001896Y007297D02*
X000903Y007297D01*
X000853Y007456D02*
X001685Y007456D01*
X001622Y007614D02*
X000806Y007614D01*
X000771Y007773D02*
X001622Y007773D01*
X001690Y007931D02*
X000736Y007931D01*
X000701Y008090D02*
X001912Y008090D01*
X002168Y008090D02*
X002350Y008090D01*
X002350Y008248D02*
X000666Y008248D01*
X000632Y008407D02*
X002350Y008407D01*
X002350Y008565D02*
X000611Y008565D01*
X000590Y008724D02*
X002350Y008724D01*
X002350Y008882D02*
X000570Y008882D01*
X000549Y009041D02*
X002350Y009041D01*
X002350Y009199D02*
X000528Y009199D01*
X000520Y009358D02*
X002350Y009358D01*
X002350Y009516D02*
X000513Y009516D01*
X000506Y009675D02*
X002350Y009675D01*
X002350Y009833D02*
X000499Y009833D01*
X000492Y009992D02*
X002350Y009992D01*
X002350Y010150D02*
X000490Y010150D01*
X000490Y010309D02*
X002350Y010309D01*
X002350Y010467D02*
X000490Y010467D01*
X000490Y010626D02*
X002350Y010626D01*
X002350Y010784D02*
X000490Y010784D01*
X000490Y010943D02*
X002350Y010943D01*
X002350Y011101D02*
X000490Y011101D01*
X000490Y011260D02*
X002350Y011260D01*
X002350Y011418D02*
X000490Y011418D01*
X000490Y011577D02*
X002350Y011577D01*
X002350Y011735D02*
X000490Y011735D01*
X000490Y011894D02*
X002350Y011894D01*
X002350Y012052D02*
X000490Y012052D01*
X000490Y012211D02*
X002099Y012211D01*
X001985Y012369D02*
X000490Y012369D01*
X000490Y012528D02*
X001953Y012528D01*
X001984Y012686D02*
X000490Y012686D01*
X000490Y012845D02*
X002094Y012845D01*
X002133Y013003D02*
X000490Y013003D01*
X000490Y013162D02*
X002133Y013162D01*
X002133Y013320D02*
X000490Y013320D01*
X000490Y013479D02*
X002133Y013479D01*
X002133Y013637D02*
X000490Y013637D01*
X000490Y013796D02*
X002133Y013796D01*
X002133Y013954D02*
X000490Y013954D01*
X000490Y014113D02*
X002133Y014113D01*
X002064Y014271D02*
X000490Y014271D01*
X000490Y014430D02*
X001906Y014430D01*
X001747Y014588D02*
X000490Y014588D01*
X000490Y014747D02*
X001589Y014747D01*
X001430Y014905D02*
X000490Y014905D01*
X000490Y015064D02*
X001272Y015064D01*
X001113Y015222D02*
X000490Y015222D01*
X000490Y015381D02*
X000955Y015381D01*
X000796Y015539D02*
X000490Y015539D01*
X000490Y015698D02*
X000638Y015698D01*
X000702Y015633D02*
X000702Y015633D01*
X000598Y015856D02*
X000490Y015856D01*
X000490Y016015D02*
X000600Y016015D01*
X000600Y016173D02*
X000490Y016173D01*
X000490Y016332D02*
X000600Y016332D01*
X000600Y016490D02*
X000490Y016490D01*
X000490Y016649D02*
X000600Y016649D01*
X000600Y016807D02*
X000490Y016807D01*
X000490Y016966D02*
X000600Y016966D01*
X000600Y017124D02*
X000490Y017124D01*
X000490Y017283D02*
X000600Y017283D01*
X000600Y017441D02*
X000490Y017441D01*
X000490Y017600D02*
X000600Y017600D01*
X000600Y017758D02*
X000490Y017758D01*
X000490Y017917D02*
X000600Y017917D01*
X000600Y018075D02*
X000490Y018075D01*
X000490Y018234D02*
X000600Y018234D01*
X000600Y018392D02*
X000490Y018392D01*
X000490Y018551D02*
X000600Y018551D01*
X000600Y018709D02*
X000490Y018709D01*
X000490Y018868D02*
X000600Y018868D01*
X000600Y019026D02*
X000490Y019026D01*
X000490Y019185D02*
X000600Y019185D01*
X000600Y019343D02*
X000490Y019343D01*
X000490Y019502D02*
X000600Y019502D01*
X000600Y019660D02*
X000490Y019660D01*
X000490Y019819D02*
X000600Y019819D01*
X000600Y019977D02*
X000490Y019977D01*
X000490Y020136D02*
X000600Y020136D01*
X000600Y020294D02*
X000490Y020294D01*
X000490Y020453D02*
X000600Y020453D01*
X000600Y020611D02*
X000490Y020611D01*
X000490Y020770D02*
X000600Y020770D01*
X000600Y020928D02*
X000490Y020928D01*
X000490Y021087D02*
X000600Y021087D01*
X000600Y021245D02*
X000490Y021245D01*
X000490Y021404D02*
X000627Y021404D01*
X000490Y021562D02*
X000773Y021562D01*
X000931Y021721D02*
X000490Y021721D01*
X000490Y021879D02*
X001090Y021879D01*
X001248Y022038D02*
X000490Y022038D01*
X001966Y025842D02*
X003039Y025842D01*
X003039Y026000D02*
X001444Y026000D01*
X000923Y026159D02*
X003039Y026159D01*
X003039Y026317D02*
X000490Y026317D01*
X000490Y026290D02*
X000490Y030540D01*
X000505Y030753D01*
X000551Y030963D01*
X000626Y031163D01*
X000728Y031351D01*
X000856Y031522D01*
X001008Y031674D01*
X001179Y031802D01*
X001367Y031904D01*
X001567Y031979D01*
X001663Y032000D01*
X017390Y032000D01*
X017528Y031975D01*
X017788Y031894D01*
X018036Y031782D01*
X018268Y031642D01*
X018482Y031474D01*
X018674Y031282D01*
X018842Y031068D01*
X018982Y030836D01*
X019094Y030588D01*
X019175Y030328D01*
X019224Y030061D01*
X019240Y029790D01*
X019240Y025932D01*
X016749Y025180D01*
X016492Y025180D01*
X016432Y025155D01*
X016432Y025282D01*
X016770Y025282D01*
X016858Y025318D01*
X017376Y025837D01*
X017443Y025904D01*
X017480Y025992D01*
X017480Y026144D01*
X017577Y026047D01*
X017787Y025960D01*
X018013Y025960D01*
X018223Y026047D01*
X018383Y026207D01*
X018470Y026417D01*
X018470Y026643D01*
X018383Y026853D01*
X018223Y027013D01*
X018013Y027100D01*
X017787Y027100D01*
X017577Y027013D01*
X017480Y026916D01*
X017480Y027088D01*
X017443Y027176D01*
X017058Y027561D01*
X017058Y027723D01*
X016994Y027877D01*
X016877Y027994D01*
X016723Y028058D01*
X016557Y028058D01*
X016403Y027994D01*
X016286Y027877D01*
X016222Y027723D01*
X016222Y027557D01*
X016286Y027403D01*
X016403Y027286D01*
X016557Y027222D01*
X016719Y027222D01*
X017000Y026941D01*
X017000Y026798D01*
X016973Y026863D01*
X016813Y027023D01*
X016603Y027110D01*
X016377Y027110D01*
X016167Y027023D01*
X016007Y026863D01*
X015920Y026653D01*
X015920Y026427D01*
X015957Y026338D01*
X015881Y026260D01*
X015881Y030255D01*
X015850Y030330D01*
X015850Y031083D01*
X015763Y031293D01*
X015603Y031453D01*
X015393Y031540D01*
X015167Y031540D01*
X014957Y031453D01*
X014797Y031293D01*
X014780Y031252D01*
X014763Y031293D01*
X014603Y031453D01*
X014393Y031540D01*
X014167Y031540D01*
X013957Y031453D01*
X013797Y031293D01*
X013768Y031224D01*
X013750Y031258D01*
X013700Y031328D01*
X013638Y031390D01*
X013568Y031440D01*
X013491Y031480D01*
X013409Y031506D01*
X013323Y031520D01*
X013310Y031520D01*
X013310Y030630D01*
X013250Y030630D01*
X013250Y031520D01*
X013237Y031520D01*
X013151Y031506D01*
X013069Y031480D01*
X012992Y031440D01*
X012922Y031390D01*
X012860Y031328D01*
X012810Y031258D01*
X012792Y031224D01*
X012763Y031293D01*
X012603Y031453D01*
X012393Y031540D01*
X012167Y031540D01*
X011957Y031453D01*
X011850Y031346D01*
X011750Y031445D01*
X011683Y031513D01*
X011594Y031549D01*
X009767Y031549D01*
X009678Y031513D01*
X009611Y031445D01*
X009574Y031357D01*
X009574Y029251D01*
X009206Y029620D01*
X009233Y029685D01*
X009233Y029895D01*
X009152Y030090D01*
X009003Y030239D01*
X008877Y030291D01*
X008971Y030385D01*
X009050Y030577D01*
X009050Y030783D01*
X008971Y030975D01*
X008825Y031121D01*
X008633Y031200D01*
X007787Y031200D01*
X007595Y031121D01*
X007449Y030975D01*
X007410Y030880D01*
X007410Y030933D01*
X007323Y031143D01*
X007163Y031303D01*
X006953Y031390D01*
X006727Y031390D01*
X006517Y031303D01*
X006468Y031255D01*
X006238Y031485D01*
X006171Y031552D01*
X006083Y031589D01*
X003231Y031589D01*
X003143Y031552D01*
X003076Y031485D01*
X003039Y031396D01*
X003039Y025516D01*
X000490Y026290D01*
X000490Y026476D02*
X003039Y026476D01*
X003039Y026634D02*
X000490Y026634D01*
X000490Y026793D02*
X003039Y026793D01*
X003039Y026951D02*
X000490Y026951D01*
X000490Y027110D02*
X003039Y027110D01*
X003039Y027268D02*
X000490Y027268D01*
X000490Y027427D02*
X003039Y027427D01*
X003039Y027585D02*
X002441Y027585D01*
X002413Y027557D02*
X002573Y027717D01*
X002660Y027927D01*
X002660Y028153D01*
X002573Y028363D01*
X002413Y028523D01*
X002372Y028540D01*
X002413Y028557D01*
X002573Y028717D01*
X002660Y028927D01*
X002660Y029153D01*
X002573Y029363D01*
X002413Y029523D01*
X002372Y029540D01*
X002413Y029557D01*
X002573Y029717D01*
X002660Y029927D01*
X002660Y030153D01*
X002573Y030363D01*
X002413Y030523D01*
X002203Y030610D01*
X001977Y030610D01*
X001767Y030523D01*
X001607Y030363D01*
X001520Y030153D01*
X001520Y029927D01*
X001607Y029717D01*
X001767Y029557D01*
X001808Y029540D01*
X001767Y029523D01*
X001607Y029363D01*
X001520Y029153D01*
X001520Y028927D01*
X001607Y028717D01*
X001767Y028557D01*
X001808Y028540D01*
X001767Y028523D01*
X001607Y028363D01*
X001520Y028153D01*
X001520Y027927D01*
X001607Y027717D01*
X001767Y027557D01*
X001977Y027470D01*
X002203Y027470D01*
X002413Y027557D01*
X002584Y027744D02*
X003039Y027744D01*
X003039Y027902D02*
X002650Y027902D01*
X002660Y028061D02*
X003039Y028061D01*
X003039Y028219D02*
X002633Y028219D01*
X002559Y028378D02*
X003039Y028378D01*
X003039Y028536D02*
X002382Y028536D01*
X002551Y028695D02*
X003039Y028695D01*
X003039Y028853D02*
X002630Y028853D01*
X002660Y029012D02*
X003039Y029012D01*
X003039Y029170D02*
X002653Y029170D01*
X002587Y029329D02*
X003039Y029329D01*
X003039Y029487D02*
X002449Y029487D01*
X002502Y029646D02*
X003039Y029646D01*
X003039Y029804D02*
X002609Y029804D01*
X002660Y029963D02*
X003039Y029963D01*
X003039Y030121D02*
X002660Y030121D01*
X002608Y030280D02*
X003039Y030280D01*
X003039Y030438D02*
X002498Y030438D01*
X002236Y030597D02*
X003039Y030597D01*
X003039Y030755D02*
X000506Y030755D01*
X000494Y030597D02*
X001944Y030597D01*
X001682Y030438D02*
X000490Y030438D01*
X000490Y030280D02*
X001572Y030280D01*
X001520Y030121D02*
X000490Y030121D01*
X000490Y029963D02*
X001520Y029963D01*
X001571Y029804D02*
X000490Y029804D01*
X000490Y029646D02*
X001678Y029646D01*
X001731Y029487D02*
X000490Y029487D01*
X000490Y029329D02*
X001593Y029329D01*
X001527Y029170D02*
X000490Y029170D01*
X000490Y029012D02*
X001520Y029012D01*
X001550Y028853D02*
X000490Y028853D01*
X000490Y028695D02*
X001629Y028695D01*
X001798Y028536D02*
X000490Y028536D01*
X000490Y028378D02*
X001621Y028378D01*
X001547Y028219D02*
X000490Y028219D01*
X000490Y028061D02*
X001520Y028061D01*
X001530Y027902D02*
X000490Y027902D01*
X000490Y027744D02*
X001596Y027744D01*
X001739Y027585D02*
X000490Y027585D01*
X002488Y025683D02*
X003039Y025683D01*
X003039Y025525D02*
X003010Y025525D01*
X004700Y025525D02*
X006520Y025525D01*
X006361Y025683D02*
X004700Y025683D01*
X004700Y025793D02*
X004877Y025720D01*
X005103Y025720D01*
X005313Y025807D01*
X005473Y025967D01*
X005504Y026041D01*
X006012Y026032D01*
X008684Y023360D01*
X008192Y023360D01*
X008104Y023324D01*
X008036Y023256D01*
X008000Y023168D01*
X008000Y023001D01*
X007960Y023078D01*
X007910Y023148D01*
X007848Y023210D01*
X007778Y023260D01*
X007701Y023300D01*
X007619Y023326D01*
X007533Y023340D01*
X007499Y023340D01*
X007499Y022799D01*
X007481Y022799D01*
X007481Y023340D01*
X007447Y023340D01*
X007361Y023326D01*
X007279Y023300D01*
X007202Y023260D01*
X007132Y023210D01*
X007070Y023148D01*
X007020Y023078D01*
X006980Y023001D01*
X006954Y022919D01*
X006940Y022833D01*
X006940Y022799D01*
X007481Y022799D01*
X007481Y022781D01*
X007499Y022781D01*
X007499Y022240D01*
X007533Y022240D01*
X007619Y022254D01*
X007701Y022280D01*
X007759Y022310D01*
X007668Y022219D01*
X006901Y022219D01*
X006785Y022335D01*
X006630Y022399D01*
X006463Y022399D01*
X006309Y022335D01*
X006297Y022323D01*
X006297Y022456D01*
X006233Y022610D01*
X006115Y022728D01*
X005961Y022792D01*
X005794Y022792D01*
X005639Y022728D01*
X005521Y022610D01*
X005487Y022528D01*
X005487Y022617D01*
X005487Y024546D01*
X005451Y024634D01*
X004700Y025385D01*
X004700Y025793D01*
X004719Y025366D02*
X006678Y025366D01*
X006684Y025258D02*
X006608Y025283D01*
X006530Y025295D01*
X006490Y025295D01*
X006490Y024790D01*
X006995Y024790D01*
X006995Y024830D01*
X006983Y024908D01*
X006958Y024984D01*
X006922Y025055D01*
X006875Y025119D01*
X006819Y025175D01*
X006755Y025222D01*
X006684Y025258D01*
X006774Y025208D02*
X006837Y025208D01*
X006925Y025049D02*
X006995Y025049D01*
X006985Y024891D02*
X007154Y024891D01*
X006995Y024790D02*
X006490Y024790D01*
X006490Y024790D01*
X006490Y024790D01*
X006490Y024790D01*
X005985Y024790D01*
X005985Y024830D01*
X005997Y024908D01*
X006022Y024984D01*
X006058Y025055D01*
X006105Y025119D01*
X006161Y025175D01*
X006225Y025222D01*
X006296Y025258D01*
X006372Y025283D01*
X006450Y025295D01*
X006490Y025295D01*
X006490Y024790D01*
X005985Y024790D01*
X005985Y024750D01*
X005997Y024672D01*
X006022Y024596D01*
X006058Y024525D01*
X006105Y024461D01*
X006161Y024405D01*
X006225Y024358D01*
X006296Y024322D01*
X006356Y024303D01*
X006193Y024235D01*
X006045Y024087D01*
X005965Y023894D01*
X005965Y023686D01*
X006045Y023493D01*
X006193Y023345D01*
X006386Y023265D01*
X006594Y023265D01*
X006787Y023345D01*
X006935Y023493D01*
X007015Y023686D01*
X007015Y023894D01*
X006935Y024087D01*
X006787Y024235D01*
X006624Y024303D01*
X006684Y024322D01*
X006755Y024358D01*
X006819Y024405D01*
X006875Y024461D01*
X006922Y024525D01*
X006958Y024596D01*
X006983Y024672D01*
X006995Y024750D01*
X006995Y024790D01*
X006992Y024732D02*
X007312Y024732D01*
X007471Y024574D02*
X006946Y024574D01*
X006829Y024415D02*
X007629Y024415D01*
X007788Y024257D02*
X006736Y024257D01*
X006924Y024098D02*
X007946Y024098D01*
X008105Y023940D02*
X006996Y023940D01*
X007015Y023781D02*
X008263Y023781D01*
X008422Y023623D02*
X006989Y023623D01*
X006906Y023464D02*
X008580Y023464D01*
X008783Y023940D02*
X008853Y023940D01*
X008942Y023781D02*
X009011Y023781D01*
X009100Y023623D02*
X009170Y023623D01*
X009245Y023478D02*
X006285Y026438D01*
X006253Y026471D01*
X006251Y026472D01*
X006250Y026473D01*
X006207Y026491D01*
X006166Y026509D01*
X006163Y026509D01*
X006161Y026510D01*
X006116Y026510D01*
X005511Y026521D01*
X005473Y026613D01*
X005313Y026773D01*
X005244Y026802D01*
X005278Y026820D01*
X005348Y026870D01*
X005410Y026932D01*
X005460Y027002D01*
X005500Y027079D01*
X005526Y027161D01*
X005540Y027247D01*
X005540Y027270D01*
X005010Y027270D01*
X005010Y027310D01*
X005540Y027310D01*
X005540Y027333D01*
X005526Y027419D01*
X005500Y027501D01*
X005460Y027578D01*
X005410Y027648D01*
X005348Y027710D01*
X005278Y027760D01*
X005244Y027778D01*
X005313Y027807D01*
X005473Y027967D01*
X005560Y028177D01*
X005560Y028403D01*
X005473Y028613D01*
X005313Y028773D01*
X005103Y028860D01*
X004877Y028860D01*
X004667Y028773D01*
X004543Y028649D01*
X004543Y029616D01*
X004552Y029610D01*
X004629Y029570D01*
X004711Y029544D01*
X004797Y029530D01*
X004810Y029530D01*
X004810Y030420D01*
X004870Y030420D01*
X004870Y029530D01*
X004883Y029530D01*
X004969Y029544D01*
X005051Y029570D01*
X005128Y029610D01*
X005198Y029660D01*
X005260Y029722D01*
X005310Y029792D01*
X005328Y029826D01*
X005357Y029757D01*
X005517Y029597D01*
X005727Y029510D01*
X005953Y029510D01*
X006163Y029597D01*
X006323Y029757D01*
X006340Y029798D01*
X006357Y029757D01*
X006517Y029597D01*
X006727Y029510D01*
X006953Y029510D01*
X007163Y029597D01*
X007323Y029757D01*
X007410Y029967D01*
X007410Y030480D01*
X007449Y030385D01*
X007595Y030239D01*
X007787Y030160D01*
X008323Y030160D01*
X008253Y030090D01*
X008173Y029895D01*
X008173Y029685D01*
X008253Y029490D01*
X008323Y029420D01*
X007787Y029420D01*
X007595Y029341D01*
X007449Y029195D01*
X007370Y029003D01*
X007370Y028797D01*
X007449Y028605D01*
X007595Y028459D01*
X007787Y028380D01*
X008633Y028380D01*
X008825Y028459D01*
X008971Y028605D01*
X009050Y028797D01*
X009050Y029003D01*
X008984Y029162D01*
X009671Y028475D01*
X009630Y028492D01*
X009350Y028492D01*
X009092Y028386D01*
X008894Y028188D01*
X008788Y027930D01*
X008788Y027650D01*
X008894Y027392D01*
X009092Y027194D01*
X009350Y027088D01*
X009630Y027088D01*
X009888Y027194D01*
X010086Y027392D01*
X010192Y027650D01*
X010192Y027930D01*
X010175Y027971D01*
X010480Y027667D01*
X010470Y023901D01*
X010465Y023873D01*
X010470Y023855D01*
X010361Y023855D01*
X010206Y023791D01*
X010090Y023675D01*
X009796Y023675D01*
X009383Y024088D01*
X009630Y024088D01*
X009888Y024194D01*
X010086Y024392D01*
X010192Y024650D01*
X010192Y024930D01*
X010086Y025188D01*
X009888Y025386D01*
X009630Y025492D01*
X009350Y025492D01*
X009092Y025386D01*
X008894Y025188D01*
X008893Y025184D01*
X008876Y025225D01*
X008809Y025292D01*
X008020Y026081D01*
X008060Y026177D01*
X008060Y026403D01*
X007973Y026613D01*
X007813Y026773D01*
X007603Y026860D01*
X007377Y026860D01*
X007167Y026773D01*
X007007Y026613D01*
X006920Y026403D01*
X006920Y026177D01*
X007007Y025967D01*
X007167Y025807D01*
X007377Y025720D01*
X007603Y025720D01*
X007673Y025749D01*
X008433Y024989D01*
X008433Y024411D01*
X008469Y024323D01*
X009314Y023478D01*
X009245Y023478D01*
X009690Y023781D02*
X010196Y023781D01*
X010470Y023940D02*
X009531Y023940D01*
X009655Y024098D02*
X010470Y024098D01*
X010471Y024257D02*
X009950Y024257D01*
X010095Y024415D02*
X010471Y024415D01*
X010472Y024574D02*
X010161Y024574D01*
X010192Y024732D02*
X010472Y024732D01*
X010473Y024891D02*
X010192Y024891D01*
X010143Y025049D02*
X010473Y025049D01*
X010473Y025208D02*
X010066Y025208D01*
X009907Y025366D02*
X010474Y025366D01*
X010474Y025525D02*
X008576Y025525D01*
X008418Y025683D02*
X010475Y025683D01*
X010475Y025842D02*
X008259Y025842D01*
X008101Y026000D02*
X010475Y026000D01*
X010476Y026159D02*
X008053Y026159D01*
X008060Y026317D02*
X010476Y026317D01*
X010477Y026476D02*
X008030Y026476D01*
X007952Y026634D02*
X010477Y026634D01*
X010477Y026793D02*
X007766Y026793D01*
X007214Y026793D02*
X005266Y026793D01*
X005424Y026951D02*
X010478Y026951D01*
X010478Y027110D02*
X009683Y027110D01*
X009962Y027268D02*
X010479Y027268D01*
X010479Y027427D02*
X010100Y027427D01*
X010165Y027585D02*
X010479Y027585D01*
X010403Y027744D02*
X010192Y027744D01*
X010192Y027902D02*
X010244Y027902D01*
X009610Y028536D02*
X008901Y028536D01*
X009008Y028695D02*
X009452Y028695D01*
X009293Y028853D02*
X009050Y028853D01*
X009047Y029012D02*
X009135Y029012D01*
X009497Y029329D02*
X009574Y029329D01*
X009574Y029487D02*
X009338Y029487D01*
X009216Y029646D02*
X009574Y029646D01*
X009574Y029804D02*
X009233Y029804D01*
X009205Y029963D02*
X009574Y029963D01*
X009574Y030121D02*
X009121Y030121D01*
X008906Y030280D02*
X009574Y030280D01*
X009574Y030438D02*
X008993Y030438D01*
X009050Y030597D02*
X009574Y030597D01*
X009574Y030755D02*
X009050Y030755D01*
X008996Y030914D02*
X009574Y030914D01*
X009574Y031072D02*
X008873Y031072D01*
X008284Y030121D02*
X007410Y030121D01*
X007408Y029963D02*
X008200Y029963D01*
X008173Y029804D02*
X007343Y029804D01*
X007212Y029646D02*
X008189Y029646D01*
X008256Y029487D02*
X004543Y029487D01*
X004543Y029329D02*
X007583Y029329D01*
X007439Y029170D02*
X004543Y029170D01*
X004543Y029012D02*
X007373Y029012D01*
X007370Y028853D02*
X005120Y028853D01*
X004860Y028853D02*
X004543Y028853D01*
X004543Y028695D02*
X004588Y028695D01*
X004810Y029646D02*
X004870Y029646D01*
X004870Y029804D02*
X004810Y029804D01*
X004810Y029963D02*
X004870Y029963D01*
X004870Y030121D02*
X004810Y030121D01*
X004810Y030280D02*
X004870Y030280D01*
X005317Y029804D02*
X005337Y029804D01*
X005468Y029646D02*
X005178Y029646D01*
X005392Y028695D02*
X007412Y028695D01*
X007519Y028536D02*
X005505Y028536D01*
X005560Y028378D02*
X009084Y028378D01*
X008926Y028219D02*
X005560Y028219D01*
X005512Y028061D02*
X008842Y028061D01*
X008788Y027902D02*
X005408Y027902D01*
X005301Y027744D02*
X008788Y027744D01*
X008815Y027585D02*
X005455Y027585D01*
X005524Y027427D02*
X008880Y027427D01*
X009018Y027268D02*
X005540Y027268D01*
X005510Y027110D02*
X009297Y027110D01*
X009073Y025366D02*
X008735Y025366D01*
X008883Y025208D02*
X008914Y025208D01*
X008373Y025049D02*
X007674Y025049D01*
X007832Y024891D02*
X008433Y024891D01*
X008433Y024732D02*
X007991Y024732D01*
X008149Y024574D02*
X008433Y024574D01*
X008433Y024415D02*
X008308Y024415D01*
X008466Y024257D02*
X008536Y024257D01*
X008625Y024098D02*
X008694Y024098D01*
X008085Y023306D02*
X007683Y023306D01*
X007499Y023306D02*
X007481Y023306D01*
X007481Y023147D02*
X007499Y023147D01*
X007499Y022989D02*
X007481Y022989D01*
X007481Y022830D02*
X007499Y022830D01*
X007481Y022781D02*
X006940Y022781D01*
X006940Y022747D01*
X006954Y022661D01*
X006980Y022579D01*
X007020Y022502D01*
X007070Y022432D01*
X007132Y022370D01*
X007202Y022320D01*
X007279Y022280D01*
X007361Y022254D01*
X007447Y022240D01*
X007481Y022240D01*
X007481Y022781D01*
X007481Y022672D02*
X007499Y022672D01*
X007499Y022513D02*
X007481Y022513D01*
X007481Y022355D02*
X007499Y022355D01*
X007154Y022355D02*
X006737Y022355D01*
X006357Y022355D02*
X006297Y022355D01*
X006274Y022513D02*
X007014Y022513D01*
X006952Y022672D02*
X006172Y022672D01*
X006288Y023306D02*
X005487Y023306D01*
X005487Y023464D02*
X006074Y023464D01*
X005991Y023623D02*
X005487Y023623D01*
X005487Y023781D02*
X005965Y023781D01*
X005984Y023940D02*
X005487Y023940D01*
X005487Y024098D02*
X006056Y024098D01*
X006244Y024257D02*
X005487Y024257D01*
X005487Y024415D02*
X006151Y024415D01*
X006034Y024574D02*
X005476Y024574D01*
X005353Y024732D02*
X005988Y024732D01*
X005995Y024891D02*
X005195Y024891D01*
X005036Y025049D02*
X006055Y025049D01*
X006206Y025208D02*
X004878Y025208D01*
X005348Y025842D02*
X006203Y025842D01*
X006044Y026000D02*
X005487Y026000D01*
X005452Y026634D02*
X007028Y026634D01*
X006950Y026476D02*
X006244Y026476D01*
X006406Y026317D02*
X006920Y026317D01*
X006927Y026159D02*
X006564Y026159D01*
X006723Y026000D02*
X006993Y026000D01*
X006881Y025842D02*
X007132Y025842D01*
X007040Y025683D02*
X007739Y025683D01*
X007898Y025525D02*
X007198Y025525D01*
X007357Y025366D02*
X008056Y025366D01*
X008215Y025208D02*
X007515Y025208D01*
X006490Y025208D02*
X006490Y025208D01*
X006490Y025049D02*
X006490Y025049D01*
X006490Y024891D02*
X006490Y024891D01*
X006692Y023306D02*
X007297Y023306D01*
X007070Y023147D02*
X005487Y023147D01*
X005487Y022989D02*
X006976Y022989D01*
X006940Y022830D02*
X005487Y022830D01*
X005487Y022672D02*
X005583Y022672D01*
X007549Y020161D02*
X007220Y019832D01*
X007220Y019096D01*
X007255Y019111D01*
X007414Y019111D01*
X007561Y019050D01*
X007673Y018937D01*
X007734Y018790D01*
X007734Y018631D01*
X007673Y018484D01*
X007653Y018464D01*
X007653Y018412D01*
X007718Y018477D01*
X007895Y018550D01*
X008085Y018550D01*
X008262Y018477D01*
X008397Y018342D01*
X008470Y018165D01*
X008470Y017415D01*
X008421Y017297D01*
X008582Y017297D01*
X008564Y017333D01*
X008541Y017402D01*
X008530Y017474D01*
X008530Y017790D01*
X008990Y017790D01*
X008990Y017790D01*
X008530Y017790D01*
X008530Y018106D01*
X008541Y018178D01*
X008564Y018247D01*
X008597Y018311D01*
X008639Y018370D01*
X008690Y018421D01*
X008748Y018463D01*
X008688Y018524D01*
X008627Y018671D01*
X008627Y018830D01*
X008641Y018865D01*
X007956Y018865D01*
X007867Y018901D01*
X007800Y018969D01*
X007763Y019057D01*
X007763Y020084D01*
X007718Y020103D01*
X007605Y020217D01*
X007549Y020161D01*
X007523Y020136D02*
X007686Y020136D01*
X007763Y019977D02*
X007365Y019977D01*
X007220Y019819D02*
X007763Y019819D01*
X007763Y019660D02*
X007220Y019660D01*
X007220Y019502D02*
X007763Y019502D01*
X007763Y019343D02*
X007220Y019343D01*
X007220Y019185D02*
X007763Y019185D01*
X007776Y019026D02*
X007585Y019026D01*
X007702Y018868D02*
X007948Y018868D01*
X007734Y018709D02*
X008627Y018709D01*
X008677Y018551D02*
X007701Y018551D01*
X008347Y018392D02*
X008661Y018392D01*
X008559Y018234D02*
X008442Y018234D01*
X008470Y018075D02*
X008530Y018075D01*
X008530Y017917D02*
X008470Y017917D01*
X008470Y017758D02*
X008530Y017758D01*
X008530Y017600D02*
X008470Y017600D01*
X008470Y017441D02*
X008535Y017441D01*
X009163Y016146D02*
X009045Y016027D01*
X009098Y016019D01*
X009167Y015996D01*
X009231Y015963D01*
X009290Y015921D01*
X009341Y015870D01*
X009383Y015811D01*
X009416Y015747D01*
X009439Y015678D01*
X009450Y015606D01*
X009450Y015290D01*
X008990Y015290D01*
X008990Y015290D01*
X008990Y015290D01*
X008530Y015290D01*
X008530Y015512D01*
X008470Y015452D01*
X008470Y014915D01*
X008397Y014738D01*
X008262Y014603D01*
X008189Y014573D01*
X008321Y014442D01*
X008373Y014567D01*
X008485Y014680D01*
X008621Y014736D01*
X008597Y014769D01*
X008564Y014833D01*
X008541Y014902D01*
X008530Y014974D01*
X008530Y015290D01*
X008990Y015290D01*
X009450Y015290D01*
X009450Y014974D01*
X009439Y014902D01*
X009416Y014833D01*
X009383Y014769D01*
X009341Y014710D01*
X009290Y014660D01*
X009690Y014660D01*
X009639Y014710D01*
X009597Y014769D01*
X009564Y014833D01*
X009541Y014902D01*
X009530Y014974D01*
X009530Y015290D01*
X009990Y015290D01*
X009990Y015290D01*
X009530Y015290D01*
X009530Y015606D01*
X009541Y015678D01*
X009564Y015747D01*
X009597Y015811D01*
X009639Y015870D01*
X009690Y015921D01*
X009749Y015963D01*
X009813Y015996D01*
X009824Y016000D01*
X009490Y016333D01*
X009484Y016319D01*
X009372Y016206D01*
X009225Y016146D01*
X009163Y016146D01*
X009291Y016173D02*
X009651Y016173D01*
X009809Y016015D02*
X009110Y016015D01*
X009351Y015856D02*
X009629Y015856D01*
X009548Y015698D02*
X009432Y015698D01*
X009450Y015539D02*
X009530Y015539D01*
X009530Y015381D02*
X009450Y015381D01*
X009450Y015222D02*
X009530Y015222D01*
X009530Y015064D02*
X009450Y015064D01*
X009439Y014905D02*
X009541Y014905D01*
X009613Y014747D02*
X009367Y014747D01*
X008613Y014747D02*
X008400Y014747D01*
X008394Y014588D02*
X008226Y014588D01*
X008466Y014905D02*
X008541Y014905D01*
X008530Y015064D02*
X008470Y015064D01*
X008470Y015222D02*
X008530Y015222D01*
X008530Y015381D02*
X008470Y015381D01*
X007812Y014271D02*
X007633Y014271D01*
X007613Y014251D02*
X007713Y014350D01*
X007719Y014365D01*
X008115Y013969D01*
X008182Y013901D01*
X008194Y013896D01*
X008400Y013691D01*
X008400Y013642D01*
X008437Y013554D01*
X008961Y013030D01*
X008954Y013030D01*
X008882Y013019D01*
X008813Y012996D01*
X008749Y012963D01*
X008690Y012921D01*
X008639Y012870D01*
X008597Y012811D01*
X008564Y012747D01*
X008541Y012678D01*
X008530Y012606D01*
X008530Y012290D01*
X008990Y012290D01*
X009450Y012290D01*
X009450Y012606D01*
X009439Y012678D01*
X009416Y012747D01*
X009383Y012811D01*
X009341Y012870D01*
X009311Y012900D01*
X009669Y012900D01*
X009639Y012870D01*
X009597Y012811D01*
X009564Y012747D01*
X009541Y012678D01*
X009530Y012606D01*
X009530Y012290D01*
X009990Y012290D01*
X010450Y012290D01*
X010450Y012460D01*
X010510Y012400D01*
X010510Y011915D01*
X010583Y011738D01*
X010718Y011603D01*
X010895Y011530D01*
X011085Y011530D01*
X011240Y011594D01*
X011240Y011330D01*
X011226Y011330D01*
X011072Y011266D01*
X010954Y011148D01*
X010890Y010994D01*
X010890Y010990D01*
X010736Y010990D01*
X010582Y010926D01*
X010464Y010808D01*
X010400Y010654D01*
X010400Y010486D01*
X010464Y010332D01*
X010582Y010214D01*
X010736Y010150D01*
X009728Y010150D01*
X009710Y010142D02*
X009793Y010177D01*
X009870Y010221D01*
X009941Y010276D01*
X010004Y010339D01*
X010059Y010410D01*
X010103Y010487D01*
X010138Y010570D01*
X010161Y010657D01*
X010168Y010710D01*
X009570Y010710D01*
X009570Y010870D01*
X009410Y010870D01*
X009410Y011468D01*
X009357Y011461D01*
X009270Y011438D01*
X009187Y011403D01*
X009110Y011359D01*
X009039Y011304D01*
X008976Y011241D01*
X008921Y011170D01*
X008877Y011093D01*
X008842Y011010D01*
X008819Y010923D01*
X008812Y010870D01*
X009410Y010870D01*
X009410Y010710D01*
X008812Y010710D01*
X008819Y010657D01*
X008842Y010570D01*
X008877Y010487D01*
X008921Y010410D01*
X008976Y010339D01*
X009039Y010276D01*
X009110Y010221D01*
X009187Y010177D01*
X009270Y010142D01*
X009357Y010119D01*
X009410Y010112D01*
X009410Y010710D01*
X009570Y010710D01*
X009570Y010112D01*
X009623Y010119D01*
X009710Y010142D01*
X009570Y010150D02*
X009410Y010150D01*
X009252Y010150D02*
X007770Y010150D01*
X007928Y009992D02*
X012311Y009992D01*
X012334Y010048D02*
X012270Y009894D01*
X012270Y009729D01*
X011698Y009157D01*
X011661Y009069D01*
X011661Y007472D01*
X010579Y006390D01*
X010369Y006390D01*
X010369Y007210D01*
X010590Y007210D01*
X010914Y007210D01*
X010959Y007222D01*
X011001Y007246D01*
X011034Y007279D01*
X011058Y007321D01*
X011070Y007366D01*
X011070Y007540D01*
X011070Y007714D01*
X011058Y007759D01*
X011034Y007801D01*
X011001Y007834D01*
X010959Y007858D01*
X010914Y007870D01*
X010590Y007870D01*
X010590Y007540D01*
X010590Y007540D01*
X011070Y007540D01*
X010590Y007540D01*
X010590Y007540D01*
X010590Y007870D01*
X010266Y007870D01*
X010221Y007858D01*
X010179Y007834D01*
X010146Y007801D01*
X010136Y007784D01*
X006525Y011395D01*
X006524Y011395D01*
X006293Y011626D01*
X006289Y011630D01*
X006397Y011738D01*
X006470Y011915D01*
X006470Y012665D01*
X006397Y012842D01*
X006262Y012977D01*
X006085Y013050D01*
X005895Y013050D01*
X005718Y012977D01*
X005583Y012842D01*
X005527Y012706D01*
X005527Y014352D01*
X006245Y013634D01*
X006245Y013470D01*
X006309Y013315D01*
X006427Y013197D01*
X006581Y013133D01*
X006748Y013133D01*
X006903Y013197D01*
X007021Y013315D01*
X007085Y013470D01*
X007085Y013637D01*
X007021Y013791D01*
X006903Y013909D01*
X006748Y013973D01*
X006584Y013973D01*
X006028Y014530D01*
X006085Y014530D01*
X006262Y014603D01*
X006397Y014738D01*
X006470Y014915D01*
X006470Y015665D01*
X006397Y015842D01*
X006262Y015977D01*
X006236Y015988D01*
X006236Y017092D01*
X006262Y017103D01*
X006346Y017187D01*
X006346Y016498D01*
X006383Y016410D01*
X006787Y016005D01*
X006718Y015977D01*
X006583Y015842D01*
X006510Y015665D01*
X006510Y014915D01*
X006583Y014738D01*
X006718Y014603D01*
X006895Y014530D01*
X006973Y014530D01*
X006973Y014497D01*
X007034Y014350D01*
X007133Y014251D01*
X007133Y013112D01*
X007170Y013024D01*
X007185Y013009D01*
X007085Y013050D01*
X006895Y013050D01*
X006718Y012977D01*
X006583Y012842D01*
X006510Y012665D01*
X006510Y011915D01*
X006583Y011738D01*
X006718Y011603D01*
X006895Y011530D01*
X007085Y011530D01*
X007262Y011603D01*
X007397Y011738D01*
X007470Y011915D01*
X007470Y012665D01*
X007429Y012765D01*
X007515Y012678D01*
X007510Y012665D01*
X007510Y011915D01*
X007583Y011738D01*
X007718Y011603D01*
X007895Y011530D01*
X008085Y011530D01*
X008262Y011603D01*
X008397Y011738D01*
X008470Y011915D01*
X008470Y012665D01*
X008397Y012842D01*
X008262Y012977D01*
X008085Y013050D01*
X007895Y013050D01*
X007844Y013029D01*
X007613Y013259D01*
X007613Y014251D01*
X007613Y014113D02*
X007971Y014113D01*
X008129Y013954D02*
X007613Y013954D01*
X007613Y013796D02*
X008295Y013796D01*
X008402Y013637D02*
X007613Y013637D01*
X007613Y013479D02*
X008512Y013479D01*
X008671Y013320D02*
X007613Y013320D01*
X007711Y013162D02*
X008829Y013162D01*
X008834Y013003D02*
X008199Y013003D01*
X008394Y012845D02*
X008621Y012845D01*
X008544Y012686D02*
X008461Y012686D01*
X008470Y012528D02*
X008530Y012528D01*
X008530Y012369D02*
X008470Y012369D01*
X008530Y012290D02*
X008530Y011974D01*
X008541Y011902D01*
X008564Y011833D01*
X008597Y011769D01*
X008639Y011710D01*
X008690Y011659D01*
X008749Y011617D01*
X008813Y011584D01*
X008882Y011561D01*
X008954Y011550D01*
X008990Y011550D01*
X009026Y011550D01*
X009098Y011561D01*
X009167Y011584D01*
X009231Y011617D01*
X009290Y011659D01*
X009341Y011710D01*
X009383Y011769D01*
X009416Y011833D01*
X009439Y011902D01*
X009450Y011974D01*
X009450Y012290D01*
X008990Y012290D01*
X008990Y012290D01*
X008990Y011550D01*
X008990Y012290D01*
X008990Y012290D01*
X008990Y012290D01*
X008530Y012290D01*
X008530Y012211D02*
X008470Y012211D01*
X008470Y012052D02*
X008530Y012052D01*
X008544Y011894D02*
X008461Y011894D01*
X008394Y011735D02*
X008621Y011735D01*
X008836Y011577D02*
X008198Y011577D01*
X007782Y011577D02*
X007198Y011577D01*
X007394Y011735D02*
X007586Y011735D01*
X007519Y011894D02*
X007461Y011894D01*
X007470Y012052D02*
X007510Y012052D01*
X007510Y012211D02*
X007470Y012211D01*
X007470Y012369D02*
X007510Y012369D01*
X007510Y012528D02*
X007470Y012528D01*
X007461Y012686D02*
X007508Y012686D01*
X007133Y013162D02*
X006816Y013162D01*
X006781Y013003D02*
X006199Y013003D01*
X006394Y012845D02*
X006586Y012845D01*
X006519Y012686D02*
X006461Y012686D01*
X006470Y012528D02*
X006510Y012528D01*
X006510Y012369D02*
X006470Y012369D01*
X006470Y012211D02*
X006510Y012211D01*
X006510Y012052D02*
X006470Y012052D01*
X006461Y011894D02*
X006519Y011894D01*
X006586Y011735D02*
X006394Y011735D01*
X006343Y011577D02*
X006782Y011577D01*
X006660Y011260D02*
X008994Y011260D01*
X008881Y011101D02*
X006819Y011101D01*
X006977Y010943D02*
X008824Y010943D01*
X008827Y010626D02*
X007294Y010626D01*
X007136Y010784D02*
X009410Y010784D01*
X009410Y010626D02*
X009570Y010626D01*
X009570Y010784D02*
X010454Y010784D01*
X010400Y010626D02*
X010153Y010626D01*
X010092Y010467D02*
X010408Y010467D01*
X010488Y010309D02*
X009974Y010309D01*
X009570Y010309D02*
X009410Y010309D01*
X009410Y010467D02*
X009570Y010467D01*
X009570Y010870D02*
X010168Y010870D01*
X010161Y010923D01*
X010138Y011010D01*
X010103Y011093D01*
X010059Y011170D01*
X010004Y011241D01*
X009941Y011304D01*
X009870Y011359D01*
X009793Y011403D01*
X009710Y011438D01*
X009623Y011461D01*
X009570Y011468D01*
X009570Y010870D01*
X009570Y010943D02*
X009410Y010943D01*
X009410Y011101D02*
X009570Y011101D01*
X009570Y011260D02*
X009410Y011260D01*
X009410Y011418D02*
X009570Y011418D01*
X009757Y011418D02*
X011240Y011418D01*
X011240Y011577D02*
X011198Y011577D01*
X011066Y011260D02*
X009986Y011260D01*
X010099Y011101D02*
X010935Y011101D01*
X010782Y011577D02*
X010144Y011577D01*
X010167Y011584D02*
X010231Y011617D01*
X010290Y011659D01*
X010341Y011710D01*
X010383Y011769D01*
X010416Y011833D01*
X010439Y011902D01*
X010450Y011974D01*
X010450Y012290D01*
X009990Y012290D01*
X009990Y012290D01*
X009990Y011550D01*
X010026Y011550D01*
X010098Y011561D01*
X010167Y011584D01*
X009990Y011577D02*
X009990Y011577D01*
X009990Y011550D02*
X009990Y012290D01*
X009990Y012290D01*
X009990Y012290D01*
X009530Y012290D01*
X009530Y011974D01*
X009541Y011902D01*
X009564Y011833D01*
X009597Y011769D01*
X009639Y011710D01*
X009690Y011659D01*
X009749Y011617D01*
X009813Y011584D01*
X009882Y011561D01*
X009954Y011550D01*
X009990Y011550D01*
X009836Y011577D02*
X009144Y011577D01*
X008990Y011577D02*
X008990Y011577D01*
X008990Y011735D02*
X008990Y011735D01*
X008990Y011894D02*
X008990Y011894D01*
X008990Y012052D02*
X008990Y012052D01*
X008990Y012211D02*
X008990Y012211D01*
X009450Y012211D02*
X009530Y012211D01*
X009530Y012369D02*
X009450Y012369D01*
X009450Y012528D02*
X009530Y012528D01*
X009544Y012686D02*
X009436Y012686D01*
X009359Y012845D02*
X009621Y012845D01*
X009990Y012211D02*
X009990Y012211D01*
X009990Y012052D02*
X009990Y012052D01*
X009990Y011894D02*
X009990Y011894D01*
X009990Y011735D02*
X009990Y011735D01*
X010359Y011735D02*
X010586Y011735D01*
X010519Y011894D02*
X010436Y011894D01*
X010450Y012052D02*
X010510Y012052D01*
X010510Y012211D02*
X010450Y012211D01*
X010450Y012369D02*
X010510Y012369D01*
X009530Y012052D02*
X009450Y012052D01*
X009436Y011894D02*
X009544Y011894D01*
X009621Y011735D02*
X009359Y011735D01*
X009223Y011418D02*
X006501Y011418D01*
X006140Y011101D02*
X005843Y011101D01*
X005537Y011101D02*
X005527Y011101D01*
X005527Y010943D02*
X006298Y010943D01*
X006457Y010784D02*
X005527Y010784D01*
X005527Y010626D02*
X006615Y010626D01*
X006774Y010467D02*
X005527Y010467D01*
X005527Y010309D02*
X006932Y010309D01*
X007091Y010150D02*
X005527Y010150D01*
X005527Y009992D02*
X007249Y009992D01*
X007408Y009833D02*
X005527Y009833D01*
X005527Y009675D02*
X007566Y009675D01*
X007725Y009516D02*
X005521Y009516D01*
X005448Y009358D02*
X007883Y009358D01*
X008042Y009199D02*
X005448Y009199D01*
X005448Y009041D02*
X008200Y009041D01*
X008359Y008882D02*
X005448Y008882D01*
X005448Y008724D02*
X008517Y008724D01*
X008676Y008565D02*
X005448Y008565D01*
X005448Y008407D02*
X008834Y008407D01*
X008993Y008248D02*
X005448Y008248D01*
X005448Y008090D02*
X009151Y008090D01*
X009310Y007931D02*
X005450Y007931D01*
X005450Y007773D02*
X007890Y007773D01*
X007890Y007307D01*
X008007Y007190D01*
X008773Y007190D01*
X008890Y007307D01*
X008890Y007773D01*
X008773Y007890D01*
X008007Y007890D01*
X007890Y007773D01*
X007890Y007614D02*
X005450Y007614D01*
X005450Y007456D02*
X007890Y007456D01*
X007900Y007297D02*
X005450Y007297D01*
X005450Y007139D02*
X009889Y007139D01*
X009889Y007297D02*
X008880Y007297D01*
X008890Y007456D02*
X009785Y007456D01*
X009627Y007614D02*
X008890Y007614D01*
X008890Y007773D02*
X009468Y007773D01*
X009672Y008248D02*
X011661Y008248D01*
X011661Y008090D02*
X009830Y008090D01*
X009989Y007931D02*
X011661Y007931D01*
X011661Y007773D02*
X011050Y007773D01*
X011070Y007614D02*
X011661Y007614D01*
X011645Y007456D02*
X011070Y007456D01*
X011044Y007297D02*
X011486Y007297D01*
X011328Y007139D02*
X010369Y007139D01*
X010369Y006980D02*
X011169Y006980D01*
X011011Y006822D02*
X010369Y006822D01*
X010369Y006663D02*
X010852Y006663D01*
X010694Y006505D02*
X010369Y006505D01*
X010590Y007210D02*
X010590Y007540D01*
X010590Y007210D01*
X010590Y007297D02*
X010590Y007297D01*
X010590Y007456D02*
X010590Y007456D01*
X010590Y007540D02*
X010590Y007540D01*
X010590Y007614D02*
X010590Y007614D01*
X010590Y007773D02*
X010590Y007773D01*
X009889Y006980D02*
X005450Y006980D01*
X005450Y006822D02*
X009889Y006822D01*
X009889Y006663D02*
X005450Y006663D01*
X005450Y006505D02*
X009889Y006505D01*
X009889Y006346D02*
X008817Y006346D01*
X008773Y006390D02*
X008007Y006390D01*
X007890Y006273D01*
X007890Y005807D01*
X008007Y005690D01*
X008773Y005690D01*
X008890Y005807D01*
X008890Y006273D01*
X008773Y006390D01*
X008890Y006188D02*
X009889Y006188D01*
X009889Y006029D02*
X008890Y006029D01*
X008890Y005871D02*
X009889Y005871D01*
X009954Y005712D02*
X008795Y005712D01*
X007985Y005712D02*
X005450Y005712D01*
X005450Y005554D02*
X010114Y005554D01*
X010044Y005622D02*
X010044Y005622D01*
X009513Y008407D02*
X011661Y008407D01*
X011661Y008565D02*
X009355Y008565D01*
X009196Y008724D02*
X011661Y008724D01*
X011661Y008882D02*
X009038Y008882D01*
X008879Y009041D02*
X011661Y009041D01*
X011740Y009199D02*
X008721Y009199D01*
X008562Y009358D02*
X011898Y009358D01*
X012057Y009516D02*
X008404Y009516D01*
X008245Y009675D02*
X012215Y009675D01*
X012270Y009833D02*
X008087Y009833D01*
X007611Y010309D02*
X009006Y010309D01*
X008888Y010467D02*
X007453Y010467D01*
X006513Y013162D02*
X005527Y013162D01*
X005527Y013320D02*
X006307Y013320D01*
X006245Y013479D02*
X005527Y013479D01*
X005527Y013637D02*
X006242Y013637D01*
X006083Y013796D02*
X005527Y013796D01*
X005527Y013954D02*
X005925Y013954D01*
X005766Y014113D02*
X005527Y014113D01*
X005527Y014271D02*
X005608Y014271D01*
X006128Y014430D02*
X007002Y014430D01*
X007114Y014271D02*
X006287Y014271D01*
X006445Y014113D02*
X007133Y014113D01*
X007133Y013954D02*
X006795Y013954D01*
X007017Y013796D02*
X007133Y013796D01*
X007133Y013637D02*
X007085Y013637D01*
X007085Y013479D02*
X007133Y013479D01*
X007133Y013320D02*
X007023Y013320D01*
X006754Y014588D02*
X006226Y014588D01*
X006400Y014747D02*
X006580Y014747D01*
X006514Y014905D02*
X006466Y014905D01*
X006470Y015064D02*
X006510Y015064D01*
X006510Y015222D02*
X006470Y015222D01*
X006470Y015381D02*
X006510Y015381D01*
X006510Y015539D02*
X006470Y015539D01*
X006457Y015698D02*
X006523Y015698D01*
X006597Y015856D02*
X006383Y015856D01*
X006236Y016015D02*
X006778Y016015D01*
X006619Y016173D02*
X006236Y016173D01*
X006236Y016332D02*
X006461Y016332D01*
X006349Y016490D02*
X006236Y016490D01*
X006236Y016649D02*
X006346Y016649D01*
X006346Y016807D02*
X006236Y016807D01*
X006236Y016966D02*
X006346Y016966D01*
X006346Y017124D02*
X006283Y017124D01*
X005781Y013003D02*
X005527Y013003D01*
X005527Y012845D02*
X005586Y012845D01*
X003283Y009942D02*
X003560Y009666D01*
X003507Y009613D01*
X003420Y009403D01*
X003420Y009177D01*
X003507Y008967D01*
X003667Y008807D01*
X003877Y008720D01*
X004103Y008720D01*
X004313Y008807D01*
X004473Y008967D01*
X004535Y009116D01*
X004535Y006964D01*
X004473Y007113D01*
X004313Y007273D01*
X004103Y007360D01*
X003877Y007360D01*
X003870Y007357D01*
X003283Y007944D01*
X003283Y009942D01*
X003283Y009833D02*
X003392Y009833D01*
X003283Y009675D02*
X003551Y009675D01*
X003467Y009516D02*
X003283Y009516D01*
X003283Y009358D02*
X003420Y009358D01*
X003420Y009199D02*
X003283Y009199D01*
X003283Y009041D02*
X003476Y009041D01*
X003592Y008882D02*
X003283Y008882D01*
X003283Y008724D02*
X003868Y008724D01*
X004112Y008724D02*
X004535Y008724D01*
X004535Y008882D02*
X004388Y008882D01*
X004504Y009041D02*
X004535Y009041D01*
X004535Y008565D02*
X003283Y008565D01*
X003283Y008407D02*
X004535Y008407D01*
X004535Y008248D02*
X003283Y008248D01*
X003283Y008090D02*
X004535Y008090D01*
X004535Y007931D02*
X003296Y007931D01*
X003454Y007773D02*
X004535Y007773D01*
X004535Y007614D02*
X003613Y007614D01*
X003771Y007456D02*
X004535Y007456D01*
X004535Y007297D02*
X004255Y007297D01*
X004448Y007139D02*
X004535Y007139D01*
X004528Y006980D02*
X004535Y006980D01*
X005450Y006346D02*
X007963Y006346D01*
X007890Y006188D02*
X005450Y006188D01*
X005450Y006029D02*
X007890Y006029D01*
X007890Y005871D02*
X005450Y005871D01*
X005450Y005395D02*
X012789Y005395D01*
X012861Y005554D02*
X012925Y005554D01*
X012704Y005237D02*
X005450Y005237D01*
X005450Y005078D02*
X012670Y005078D01*
X012673Y004920D02*
X005450Y004920D01*
X005450Y004761D02*
X012739Y004761D01*
X012871Y004603D02*
X005450Y004603D01*
X005485Y004444D02*
X012866Y004444D01*
X012748Y004286D02*
X005644Y004286D01*
X005802Y004127D02*
X012697Y004127D01*
X012690Y004020D02*
X012690Y003997D01*
X012704Y003911D01*
X012730Y003829D01*
X012770Y003752D01*
X012820Y003682D01*
X012882Y003620D01*
X012952Y003570D01*
X013029Y003530D01*
X013111Y003504D01*
X013197Y003490D01*
X013220Y003490D01*
X013220Y004020D01*
X012690Y004020D01*
X012694Y003969D02*
X005961Y003969D01*
X006119Y003810D02*
X012740Y003810D01*
X012684Y003652D02*
X012851Y003652D01*
X012921Y003493D02*
X013178Y003493D01*
X013220Y003493D02*
X013260Y003493D01*
X013260Y003490D02*
X013283Y003490D01*
X013369Y003504D01*
X013451Y003530D01*
X013528Y003570D01*
X013598Y003620D01*
X013660Y003682D01*
X013710Y003752D01*
X013750Y003829D01*
X013776Y003911D01*
X013790Y003997D01*
X013790Y004020D01*
X013260Y004020D01*
X013260Y003490D01*
X013302Y003493D02*
X014304Y003493D01*
X014337Y003652D02*
X013629Y003652D01*
X013740Y003810D02*
X014212Y003810D01*
X014172Y003969D02*
X013786Y003969D01*
X013783Y004127D02*
X014194Y004127D01*
X014294Y004286D02*
X013732Y004286D01*
X013614Y004444D02*
X015100Y004444D01*
X015100Y004286D02*
X014886Y004286D01*
X014986Y004127D02*
X015100Y004127D01*
X015100Y003969D02*
X015008Y003969D01*
X014968Y003810D02*
X015100Y003810D01*
X015100Y003652D02*
X014843Y003652D01*
X014830Y003493D02*
X015100Y003493D01*
X015100Y003335D02*
X014806Y003335D01*
X014665Y003176D02*
X015037Y003176D01*
X014878Y003018D02*
X014507Y003018D01*
X014348Y002859D02*
X014720Y002859D01*
X014561Y002701D02*
X014190Y002701D01*
X013987Y003176D02*
X013000Y003176D01*
X012995Y003335D02*
X014145Y003335D01*
X013828Y003018D02*
X012942Y003018D01*
X012916Y002927D02*
X012916Y002927D01*
X013220Y003652D02*
X013260Y003652D01*
X013260Y003810D02*
X013220Y003810D01*
X013220Y003969D02*
X013260Y003969D01*
X013609Y004603D02*
X015100Y004603D01*
X015100Y004761D02*
X013741Y004761D01*
X013807Y004920D02*
X015100Y004920D01*
X015100Y005078D02*
X013810Y005078D01*
X013776Y005237D02*
X015100Y005237D01*
X015100Y005395D02*
X013691Y005395D01*
X013555Y005554D02*
X015127Y005554D01*
X015273Y005712D02*
X013718Y005712D01*
X013787Y005871D02*
X015431Y005871D01*
X015590Y006029D02*
X013810Y006029D01*
X013796Y006188D02*
X015748Y006188D01*
X015907Y006346D02*
X014915Y006346D01*
X015015Y006505D02*
X015293Y006505D01*
X015061Y006663D02*
X015015Y006663D01*
X014535Y006786D02*
X014535Y007935D01*
X013794Y007193D01*
X013810Y007153D01*
X013810Y006927D01*
X013752Y006786D01*
X014535Y006786D01*
X014535Y006822D02*
X013766Y006822D01*
X013810Y006980D02*
X014535Y006980D01*
X014535Y007139D02*
X013810Y007139D01*
X013897Y007297D02*
X014535Y007297D01*
X014535Y007456D02*
X014056Y007456D01*
X014214Y007614D02*
X014535Y007614D01*
X014535Y007773D02*
X014373Y007773D01*
X014531Y007931D02*
X014535Y007931D01*
X015015Y007931D02*
X017107Y007931D01*
X016866Y007773D02*
X015015Y007773D01*
X015015Y007614D02*
X016766Y007614D01*
X016720Y007456D02*
X015881Y007456D01*
X016001Y007297D02*
X016720Y007297D01*
X016699Y007139D02*
X016060Y007139D01*
X016060Y006980D02*
X016541Y006980D01*
X016382Y006822D02*
X016016Y006822D01*
X015919Y006663D02*
X016224Y006663D01*
X016065Y006505D02*
X015687Y006505D01*
X016110Y005871D02*
X016964Y005871D01*
X016873Y006029D02*
X016268Y006029D01*
X016427Y006188D02*
X016777Y006188D01*
X016740Y006346D02*
X016585Y006346D01*
X016744Y006505D02*
X016751Y006505D01*
X016806Y005712D02*
X015951Y005712D01*
X015793Y005554D02*
X016741Y005554D01*
X016720Y005395D02*
X015634Y005395D01*
X015580Y005237D02*
X016737Y005237D01*
X016802Y005078D02*
X015580Y005078D01*
X015580Y004920D02*
X016954Y004920D01*
X017626Y004920D02*
X018070Y004920D01*
X018153Y005078D02*
X017778Y005078D01*
X017843Y005237D02*
X018235Y005237D01*
X018318Y005395D02*
X017860Y005395D01*
X017839Y005554D02*
X018400Y005554D01*
X018470Y005712D02*
X017774Y005712D01*
X017616Y005871D02*
X018536Y005871D01*
X018601Y006029D02*
X017707Y006029D01*
X017803Y006188D02*
X018667Y006188D01*
X018728Y006346D02*
X017840Y006346D01*
X017829Y006505D02*
X018778Y006505D01*
X018828Y006663D02*
X017768Y006663D01*
X017632Y006822D02*
X018878Y006822D01*
X018928Y006980D02*
X017686Y006980D01*
X017803Y007139D02*
X018967Y007139D01*
X019002Y007297D02*
X017860Y007297D01*
X017860Y007456D02*
X019037Y007456D01*
X019072Y007614D02*
X017814Y007614D01*
X017714Y007773D02*
X019107Y007773D01*
X019128Y007931D02*
X017473Y007931D01*
X019149Y008090D02*
X015015Y008090D01*
X015015Y008248D02*
X019170Y008248D01*
X019191Y008407D02*
X015015Y008407D01*
X015015Y008565D02*
X019208Y008565D01*
X019215Y008724D02*
X015015Y008724D01*
X015015Y008882D02*
X019222Y008882D01*
X019229Y009041D02*
X015774Y009041D01*
X015955Y009199D02*
X019236Y009199D01*
X019240Y009358D02*
X016031Y009358D01*
X016060Y009516D02*
X019240Y009516D01*
X019240Y009675D02*
X016051Y009675D01*
X015986Y009833D02*
X019240Y009833D01*
X019240Y009992D02*
X015845Y009992D01*
X015882Y010626D02*
X019240Y010626D01*
X019240Y010784D02*
X016001Y010784D01*
X016060Y010943D02*
X019240Y010943D01*
X019240Y011101D02*
X016060Y011101D01*
X016016Y011260D02*
X019240Y011260D01*
X019240Y011418D02*
X016089Y011418D01*
X016248Y011577D02*
X019240Y011577D01*
X019240Y011735D02*
X016406Y011735D01*
X016565Y011894D02*
X019240Y011894D01*
X019240Y012052D02*
X016723Y012052D01*
X016882Y012211D02*
X019240Y012211D01*
X019240Y012369D02*
X017040Y012369D01*
X017199Y012528D02*
X019240Y012528D01*
X019240Y012686D02*
X017357Y012686D01*
X017516Y012845D02*
X019240Y012845D01*
X019240Y013003D02*
X017674Y013003D01*
X017833Y013162D02*
X019240Y013162D01*
X019240Y013320D02*
X017956Y013320D01*
X017968Y013479D02*
X019240Y013479D01*
X019240Y013637D02*
X017968Y013637D01*
X017968Y013796D02*
X019240Y013796D01*
X019240Y013954D02*
X017968Y013954D01*
X017968Y014113D02*
X019240Y014113D01*
X019240Y014271D02*
X017968Y014271D01*
X017968Y014430D02*
X019240Y014430D01*
X019240Y014588D02*
X017968Y014588D01*
X017968Y014747D02*
X019240Y014747D01*
X019240Y014905D02*
X017968Y014905D01*
X017968Y015064D02*
X019240Y015064D01*
X019240Y015222D02*
X017968Y015222D01*
X017968Y015381D02*
X019240Y015381D01*
X019240Y015539D02*
X017968Y015539D01*
X017968Y015698D02*
X019240Y015698D01*
X019240Y015856D02*
X017968Y015856D01*
X017968Y016015D02*
X019240Y016015D01*
X019240Y016173D02*
X017968Y016173D01*
X017968Y016332D02*
X019240Y016332D01*
X019240Y016490D02*
X017968Y016490D01*
X017968Y016649D02*
X019240Y016649D01*
X019240Y016807D02*
X017968Y016807D01*
X017968Y016966D02*
X019240Y016966D01*
X019240Y017124D02*
X017968Y017124D01*
X017968Y017283D02*
X019240Y017283D01*
X019240Y017441D02*
X017968Y017441D01*
X017968Y017600D02*
X019240Y017600D01*
X019240Y017758D02*
X017968Y017758D01*
X017968Y017917D02*
X019240Y017917D01*
X019240Y018075D02*
X017968Y018075D01*
X017968Y018234D02*
X019240Y018234D01*
X019240Y018392D02*
X017968Y018392D01*
X017968Y018551D02*
X019240Y018551D01*
X019240Y018709D02*
X017968Y018709D01*
X017968Y018868D02*
X019240Y018868D01*
X019240Y019026D02*
X017968Y019026D01*
X017968Y019185D02*
X019240Y019185D01*
X019240Y019343D02*
X017968Y019343D01*
X017968Y019502D02*
X019240Y019502D01*
X019240Y019660D02*
X017968Y019660D01*
X017968Y019819D02*
X019240Y019819D01*
X019240Y019977D02*
X017968Y019977D01*
X017968Y020136D02*
X019240Y020136D01*
X019240Y020294D02*
X017968Y020294D01*
X017968Y020453D02*
X019240Y020453D01*
X019240Y020611D02*
X017967Y020611D01*
X017852Y020770D02*
X019240Y020770D01*
X019240Y020928D02*
X017661Y020928D01*
X017503Y021087D02*
X019240Y021087D01*
X019240Y021245D02*
X017344Y021245D01*
X017186Y021404D02*
X019240Y021404D01*
X018516Y021562D02*
X017176Y021562D01*
X017095Y021721D02*
X017761Y021721D01*
X017007Y021879D02*
X016664Y021879D01*
X016841Y025208D02*
X016432Y025208D01*
X016905Y025366D02*
X017366Y025366D01*
X017064Y025525D02*
X017891Y025525D01*
X017690Y026000D02*
X017480Y026000D01*
X017381Y025842D02*
X018941Y025842D01*
X019240Y026000D02*
X018110Y026000D01*
X018335Y026159D02*
X019240Y026159D01*
X019240Y026317D02*
X018429Y026317D01*
X018470Y026476D02*
X019240Y026476D01*
X019240Y026634D02*
X018470Y026634D01*
X018408Y026793D02*
X019240Y026793D01*
X019240Y026951D02*
X018285Y026951D01*
X017515Y026951D02*
X017480Y026951D01*
X017471Y027110D02*
X019240Y027110D01*
X019240Y027268D02*
X017351Y027268D01*
X017193Y027427D02*
X019240Y027427D01*
X019240Y027585D02*
X017058Y027585D01*
X017050Y027744D02*
X019240Y027744D01*
X019240Y027902D02*
X016969Y027902D01*
X016311Y027902D02*
X015881Y027902D01*
X015881Y027744D02*
X016230Y027744D01*
X016222Y027585D02*
X015881Y027585D01*
X015881Y027427D02*
X016276Y027427D01*
X016445Y027268D02*
X015881Y027268D01*
X015881Y027110D02*
X016376Y027110D01*
X016604Y027110D02*
X016831Y027110D01*
X016885Y026951D02*
X016990Y026951D01*
X016095Y026951D02*
X015881Y026951D01*
X015881Y026793D02*
X015978Y026793D01*
X015920Y026634D02*
X015881Y026634D01*
X015881Y026476D02*
X015920Y026476D01*
X015937Y026317D02*
X015881Y026317D01*
X015881Y028061D02*
X019240Y028061D01*
X019240Y028219D02*
X015881Y028219D01*
X015881Y028378D02*
X019240Y028378D01*
X019240Y028536D02*
X015881Y028536D01*
X015881Y028695D02*
X019240Y028695D01*
X019240Y028853D02*
X015881Y028853D01*
X015881Y029012D02*
X019240Y029012D01*
X019240Y029170D02*
X015881Y029170D01*
X015881Y029329D02*
X019240Y029329D01*
X019240Y029487D02*
X015881Y029487D01*
X015881Y029646D02*
X019240Y029646D01*
X019239Y029804D02*
X015881Y029804D01*
X015881Y029963D02*
X019230Y029963D01*
X019213Y030121D02*
X018269Y030121D01*
X018258Y030110D02*
X018320Y030172D01*
X018370Y030242D01*
X018410Y030319D01*
X018436Y030401D01*
X018450Y030487D01*
X018450Y030521D01*
X017909Y030521D01*
X017909Y030539D01*
X017891Y030539D01*
X017891Y031080D01*
X017857Y031080D01*
X017771Y031066D01*
X017689Y031040D01*
X017612Y031000D01*
X017542Y030950D01*
X017480Y030888D01*
X017430Y030818D01*
X017390Y030741D01*
X017364Y030659D01*
X017350Y030573D01*
X017350Y030539D01*
X017891Y030539D01*
X017891Y030521D01*
X017350Y030521D01*
X017350Y030487D01*
X017364Y030401D01*
X017390Y030319D01*
X017430Y030242D01*
X017480Y030172D01*
X017542Y030110D01*
X017612Y030060D01*
X017689Y030020D01*
X017771Y029994D01*
X017857Y029980D01*
X017891Y029980D01*
X017891Y030521D01*
X017909Y030521D01*
X017909Y029980D01*
X017943Y029980D01*
X018029Y029994D01*
X018111Y030020D01*
X018188Y030060D01*
X018258Y030110D01*
X018390Y030280D02*
X019184Y030280D01*
X019140Y030438D02*
X018442Y030438D01*
X018450Y030539D02*
X018450Y030573D01*
X018436Y030659D01*
X018410Y030741D01*
X018370Y030818D01*
X018320Y030888D01*
X018258Y030950D01*
X018188Y031000D01*
X018111Y031040D01*
X018029Y031066D01*
X017943Y031080D01*
X017909Y031080D01*
X017909Y030539D01*
X018450Y030539D01*
X018446Y030597D02*
X019090Y030597D01*
X019019Y030755D02*
X018403Y030755D01*
X018294Y030914D02*
X018935Y030914D01*
X018839Y031072D02*
X017993Y031072D01*
X017909Y031072D02*
X017891Y031072D01*
X017807Y031072D02*
X016632Y031072D01*
X016619Y031076D02*
X016533Y031090D01*
X016499Y031090D01*
X016499Y030549D01*
X016481Y030549D01*
X016481Y031090D01*
X016447Y031090D01*
X016361Y031076D01*
X016279Y031050D01*
X016202Y031010D01*
X016132Y030960D01*
X016070Y030898D01*
X016020Y030828D01*
X015980Y030751D01*
X015954Y030669D01*
X015940Y030583D01*
X015940Y030549D01*
X016481Y030549D01*
X016481Y030531D01*
X015940Y030531D01*
X015940Y030497D01*
X015954Y030411D01*
X015980Y030329D01*
X016020Y030252D01*
X016070Y030182D01*
X016132Y030120D01*
X016202Y030070D01*
X016279Y030030D01*
X016361Y030004D01*
X016447Y029990D01*
X016481Y029990D01*
X016481Y030531D01*
X016499Y030531D01*
X016499Y030549D01*
X017040Y030549D01*
X017040Y030583D01*
X017026Y030669D01*
X017000Y030751D01*
X016960Y030828D01*
X016910Y030898D01*
X016848Y030960D01*
X016778Y031010D01*
X016701Y031050D01*
X016619Y031076D01*
X016499Y031072D02*
X016481Y031072D01*
X016348Y031072D02*
X015850Y031072D01*
X015850Y030914D02*
X016086Y030914D01*
X015982Y030755D02*
X015850Y030755D01*
X015850Y030597D02*
X015942Y030597D01*
X015949Y030438D02*
X015850Y030438D01*
X015871Y030280D02*
X016005Y030280D01*
X015881Y030121D02*
X016131Y030121D01*
X016481Y030121D02*
X016499Y030121D01*
X016499Y029990D02*
X016533Y029990D01*
X016619Y030004D01*
X016701Y030030D01*
X016778Y030070D01*
X016848Y030120D01*
X016910Y030182D01*
X016960Y030252D01*
X017000Y030329D01*
X017026Y030411D01*
X017040Y030497D01*
X017040Y030531D01*
X016499Y030531D01*
X016499Y029990D01*
X016481Y030280D02*
X016499Y030280D01*
X016499Y030438D02*
X016481Y030438D01*
X016481Y030597D02*
X016499Y030597D01*
X016499Y030755D02*
X016481Y030755D01*
X016481Y030914D02*
X016499Y030914D01*
X016894Y030914D02*
X017506Y030914D01*
X017397Y030755D02*
X016998Y030755D01*
X017038Y030597D02*
X017354Y030597D01*
X017358Y030438D02*
X017031Y030438D01*
X016975Y030280D02*
X017410Y030280D01*
X017531Y030121D02*
X016849Y030121D01*
X015789Y031231D02*
X018714Y031231D01*
X018567Y031389D02*
X015667Y031389D01*
X014893Y031389D02*
X014667Y031389D01*
X013893Y031389D02*
X013639Y031389D01*
X013765Y031231D02*
X013771Y031231D01*
X013310Y031231D02*
X013250Y031231D01*
X013250Y031389D02*
X013310Y031389D01*
X013310Y031072D02*
X013250Y031072D01*
X013250Y030914D02*
X013310Y030914D01*
X013310Y030755D02*
X013250Y030755D01*
X013250Y030570D02*
X013310Y030570D01*
X013310Y029680D01*
X013323Y029680D01*
X013409Y029694D01*
X013491Y029720D01*
X013568Y029760D01*
X013638Y029810D01*
X013700Y029872D01*
X013750Y029942D01*
X013768Y029976D01*
X013797Y029907D01*
X013957Y029747D01*
X014167Y029660D01*
X014393Y029660D01*
X014535Y029719D01*
X014535Y028785D01*
X014353Y028860D01*
X014127Y028860D01*
X013917Y028773D01*
X013757Y028613D01*
X013670Y028403D01*
X013670Y028177D01*
X013704Y028094D01*
X013656Y028045D01*
X013397Y028045D01*
X013281Y028161D01*
X013126Y028225D01*
X012959Y028225D01*
X012805Y028161D01*
X012687Y028043D01*
X012623Y027889D01*
X012623Y027722D01*
X012687Y027567D01*
X012805Y027449D01*
X012959Y027385D01*
X013126Y027385D01*
X013281Y027449D01*
X013397Y027565D01*
X013763Y027565D01*
X013730Y027501D01*
X013704Y027419D01*
X013690Y027333D01*
X013690Y027290D01*
X014240Y027290D01*
X014240Y027290D01*
X013690Y027290D01*
X013690Y027247D01*
X013704Y027161D01*
X013730Y027079D01*
X013770Y027002D01*
X013820Y026932D01*
X013882Y026870D01*
X013952Y026820D01*
X013986Y026802D01*
X013917Y026773D01*
X013757Y026613D01*
X013670Y026403D01*
X013670Y026177D01*
X013757Y025967D01*
X013917Y025807D01*
X014127Y025720D01*
X014353Y025720D01*
X014535Y025795D01*
X014535Y024750D01*
X014504Y024763D01*
X014468Y024778D01*
X013210Y024778D01*
X013185Y024837D01*
X013037Y024985D01*
X012844Y025065D01*
X012636Y025065D01*
X012443Y024985D01*
X012338Y024880D01*
X012338Y025698D01*
X012391Y025751D01*
X012459Y025819D01*
X012495Y025907D01*
X012495Y027066D01*
X012459Y027154D01*
X011221Y028392D01*
X011385Y028459D01*
X011531Y028605D01*
X011610Y028797D01*
X011610Y029003D01*
X011531Y029195D01*
X011385Y029341D01*
X011193Y029420D01*
X010657Y029420D01*
X010727Y029490D01*
X010807Y029685D01*
X010807Y029895D01*
X010727Y030090D01*
X010684Y030133D01*
X010684Y030160D01*
X011193Y030160D01*
X011385Y030239D01*
X011531Y030385D01*
X011610Y030577D01*
X011610Y030783D01*
X011531Y030975D01*
X011436Y031069D01*
X011447Y031069D01*
X011710Y030807D01*
X011710Y030117D01*
X011797Y029907D01*
X011957Y029747D01*
X012167Y029660D01*
X012393Y029660D01*
X012603Y029747D01*
X012763Y029907D01*
X012792Y029976D01*
X012810Y029942D01*
X012860Y029872D01*
X012922Y029810D01*
X012992Y029760D01*
X013069Y029720D01*
X013151Y029694D01*
X013237Y029680D01*
X013250Y029680D01*
X013250Y030570D01*
X013250Y030438D02*
X013310Y030438D01*
X013310Y030280D02*
X013250Y030280D01*
X013250Y030121D02*
X013310Y030121D01*
X013310Y029963D02*
X013250Y029963D01*
X013250Y029804D02*
X013310Y029804D01*
X013629Y029804D02*
X013900Y029804D01*
X013774Y029963D02*
X013761Y029963D01*
X014110Y028853D02*
X011610Y028853D01*
X011607Y029012D02*
X014535Y029012D01*
X014535Y029170D02*
X011541Y029170D01*
X011397Y029329D02*
X014535Y029329D01*
X014535Y029487D02*
X010724Y029487D01*
X010791Y029646D02*
X014535Y029646D01*
X014535Y028853D02*
X014370Y028853D01*
X013838Y028695D02*
X011568Y028695D01*
X011461Y028536D02*
X013725Y028536D01*
X013670Y028378D02*
X011235Y028378D01*
X011394Y028219D02*
X012944Y028219D01*
X013142Y028219D02*
X013670Y028219D01*
X013671Y028061D02*
X013382Y028061D01*
X013226Y027427D02*
X013706Y027427D01*
X013690Y027268D02*
X012345Y027268D01*
X012477Y027110D02*
X013720Y027110D01*
X013806Y026951D02*
X012495Y026951D01*
X012495Y026793D02*
X013964Y026793D01*
X013778Y026634D02*
X012495Y026634D01*
X012495Y026476D02*
X013700Y026476D01*
X013670Y026317D02*
X012495Y026317D01*
X012495Y026159D02*
X013677Y026159D01*
X013743Y026000D02*
X012495Y026000D01*
X012468Y025842D02*
X013882Y025842D01*
X014535Y025683D02*
X012338Y025683D01*
X012338Y025525D02*
X014535Y025525D01*
X014535Y025366D02*
X012338Y025366D01*
X012338Y025208D02*
X014535Y025208D01*
X014535Y025049D02*
X012883Y025049D01*
X012597Y025049D02*
X012338Y025049D01*
X012338Y024891D02*
X012348Y024891D01*
X013132Y024891D02*
X014535Y024891D01*
X012860Y027427D02*
X012186Y027427D01*
X012028Y027585D02*
X012679Y027585D01*
X012623Y027744D02*
X011869Y027744D01*
X011711Y027902D02*
X012628Y027902D01*
X012704Y028061D02*
X011552Y028061D01*
X011900Y029804D02*
X010807Y029804D01*
X010780Y029963D02*
X011774Y029963D01*
X011710Y030121D02*
X010696Y030121D01*
X011425Y030280D02*
X011710Y030280D01*
X011710Y030438D02*
X011553Y030438D01*
X011610Y030597D02*
X011710Y030597D01*
X011710Y030755D02*
X011610Y030755D01*
X011603Y030914D02*
X011556Y030914D01*
X011806Y031389D02*
X011893Y031389D01*
X011599Y031548D02*
X018388Y031548D01*
X018162Y031706D02*
X001051Y031706D01*
X000882Y031548D02*
X003138Y031548D01*
X003039Y031389D02*
X000757Y031389D01*
X000662Y031231D02*
X003039Y031231D01*
X003039Y031072D02*
X000592Y031072D01*
X000540Y030914D02*
X003039Y030914D01*
X001294Y031865D02*
X017853Y031865D01*
X017891Y030914D02*
X017909Y030914D01*
X017909Y030755D02*
X017891Y030755D01*
X017891Y030597D02*
X017909Y030597D01*
X017909Y030438D02*
X017891Y030438D01*
X017891Y030280D02*
X017909Y030280D01*
X017909Y030121D02*
X017891Y030121D01*
X018416Y025683D02*
X017222Y025683D01*
X012931Y029804D02*
X012660Y029804D01*
X012786Y029963D02*
X012799Y029963D01*
X012789Y031231D02*
X012795Y031231D01*
X012921Y031389D02*
X012667Y031389D01*
X009762Y031548D02*
X006175Y031548D01*
X006334Y031389D02*
X006724Y031389D01*
X006956Y031389D02*
X009588Y031389D01*
X009574Y031231D02*
X007236Y031231D01*
X007353Y031072D02*
X007547Y031072D01*
X007424Y030914D02*
X007410Y030914D01*
X007410Y030438D02*
X007427Y030438D01*
X007410Y030280D02*
X007555Y030280D01*
X006468Y029646D02*
X006212Y029646D01*
X007910Y023147D02*
X008000Y023147D01*
X009489Y016332D02*
X009492Y016332D01*
X010156Y010943D02*
X010622Y010943D01*
X010736Y010150D02*
X010904Y010150D01*
X012436Y010150D01*
X012452Y010166D02*
X012334Y010048D01*
X012452Y010166D02*
X012606Y010230D01*
X012661Y010230D01*
X012561Y010330D01*
X011174Y010330D01*
X011058Y010214D01*
X010904Y010150D01*
X011152Y010309D02*
X012582Y010309D01*
X015015Y010309D02*
X019240Y010309D01*
X019240Y010467D02*
X015015Y010467D01*
X015015Y010626D02*
X015098Y010626D01*
X015015Y010150D02*
X019240Y010150D01*
X017970Y004761D02*
X015580Y004761D01*
X015580Y004603D02*
X017869Y004603D01*
X017768Y004444D02*
X015580Y004444D01*
X015580Y004286D02*
X017667Y004286D01*
X017547Y004127D02*
X015580Y004127D01*
X015580Y003969D02*
X017425Y003969D01*
X017304Y003810D02*
X015580Y003810D01*
X015580Y003652D02*
X017180Y003652D01*
X017035Y003493D02*
X015580Y003493D01*
X015580Y003335D02*
X016889Y003335D01*
X016744Y003176D02*
X015580Y003176D01*
X015549Y003018D02*
X016584Y003018D01*
X016411Y002859D02*
X015398Y002859D01*
X015240Y002701D02*
X016238Y002701D01*
X016056Y002542D02*
X015081Y002542D01*
X014923Y002384D02*
X015849Y002384D01*
X015642Y002225D02*
X014764Y002225D01*
X014923Y001750D02*
X013847Y001750D01*
X013858Y001591D02*
X014632Y001591D01*
X014328Y001433D02*
X013807Y001433D01*
X013649Y001274D02*
X013981Y001274D01*
X013598Y001116D02*
X010743Y001116D01*
X010809Y001274D02*
X013231Y001274D01*
X013132Y000957D02*
X010613Y000957D01*
X010911Y001908D02*
X013117Y001908D01*
X013763Y001908D02*
X015172Y001908D01*
X015421Y002067D02*
X010753Y002067D01*
X009894Y001850D02*
X009757Y001713D01*
X009670Y001503D01*
X009670Y001277D01*
X009670Y001433D02*
X009441Y001433D01*
X009446Y001428D02*
X009330Y001544D01*
X009330Y001850D01*
X009894Y001850D01*
X009793Y001750D02*
X009330Y001750D01*
X009330Y001591D02*
X009706Y001591D01*
X009446Y001428D02*
X009510Y001274D01*
X009510Y001116D02*
X009737Y001116D01*
X009867Y000957D02*
X009448Y000957D01*
X009242Y000799D02*
X012576Y000799D01*
X011759Y000640D02*
X008677Y000640D01*
X008732Y000957D02*
X008074Y000957D01*
X008192Y001116D02*
X008670Y001116D01*
X008850Y001591D02*
X008093Y001591D01*
X007825Y000799D02*
X008938Y000799D01*
X008850Y001750D02*
X007357Y001750D01*
X006996Y001908D02*
X008850Y001908D01*
X007539Y000957D02*
X007235Y000957D01*
X007422Y001116D02*
X006735Y001116D01*
X006885Y001433D02*
X005970Y001433D01*
X005900Y001591D02*
X005666Y001591D01*
X005741Y001750D02*
X005362Y001750D01*
X005583Y001908D02*
X005090Y001908D01*
X004842Y002067D02*
X005424Y002067D01*
X005266Y002225D02*
X004593Y002225D01*
X004378Y002384D02*
X005107Y002384D01*
X004949Y002542D02*
X004171Y002542D01*
X003964Y002701D02*
X004790Y002701D01*
X004632Y002859D02*
X003778Y002859D01*
X003605Y003018D02*
X004473Y003018D01*
X004315Y003176D02*
X003432Y003176D01*
X003261Y003335D02*
X004156Y003335D01*
X003998Y003493D02*
X003116Y003493D01*
X002971Y003652D02*
X003839Y003652D01*
X003681Y003810D02*
X002826Y003810D01*
X002686Y003969D02*
X003522Y003969D01*
X006278Y003652D02*
X012476Y003652D01*
X012239Y003493D02*
X006436Y003493D01*
X006352Y001274D02*
X007246Y001274D01*
X015015Y007456D02*
X015099Y007456D01*
X015015Y009041D02*
X015206Y009041D01*
X015025Y009199D02*
X015015Y009199D01*
X015015Y009992D02*
X015135Y009992D01*
D20*
X014240Y007090D03*
X014590Y003990D03*
X013440Y001640D03*
X016190Y005590D03*
X017790Y008440D03*
X013140Y013540D03*
X012040Y014040D03*
X011040Y021940D03*
X005790Y013490D03*
X005690Y011490D03*
X004040Y007940D03*
X003240Y005690D03*
X002040Y007690D03*
X001940Y010140D03*
X006140Y002190D03*
X016640Y027640D03*
D21*
X014421Y024301D03*
X013043Y027805D03*
X012019Y023317D03*
X010444Y023435D03*
X010326Y022451D03*
X008594Y022766D03*
X006547Y021979D03*
X005877Y022372D03*
X004324Y019516D03*
X003390Y019740D03*
X003490Y018640D03*
X002590Y016640D03*
X002019Y015364D03*
X002373Y012530D03*
X006665Y013553D03*
X010820Y010570D03*
X011310Y010910D03*
X012690Y009810D03*
X013780Y010300D03*
X013830Y015246D03*
X013240Y016112D03*
X014933Y015246D03*
X016232Y015955D03*
X012580Y003240D03*
X009090Y001190D03*
X007807Y001283D03*
X004933Y004026D03*
D22*
X008712Y014341D03*
X007373Y014577D03*
X009145Y016546D03*
X009618Y017018D03*
X009027Y018750D03*
X009499Y019223D03*
X008358Y019459D03*
X007334Y018711D03*
X006232Y018829D03*
X005444Y019774D03*
X004893Y019695D03*
X004224Y018632D03*
X002649Y018553D03*
X005129Y014616D03*
X005169Y022018D03*
X004184Y023396D03*
X003988Y024498D03*
X004342Y024931D03*
X004027Y028042D03*
X009184Y022490D03*
X011035Y024380D03*
X013161Y022648D03*
X014027Y021860D03*
X015287Y019498D03*
X014814Y019026D03*
X013476Y018671D03*
X012334Y019341D03*
X011625Y019341D03*
X011035Y014262D03*
X012373Y013160D03*
X016783Y021467D03*
X015641Y023553D03*
M02*
