G75*
%MOIN*%
%OFA0B0*%
%FSLAX24Y24*%
%IPPOS*%
%LPD*%
%AMOC8*
5,1,8,0,0,1.08239X$1,22.5*
%
%ADD10C,0.0820*%
%ADD11C,0.0730*%
%ADD12C,0.0640*%
%ADD13R,0.0680X0.0380*%
%ADD14C,0.0720*%
%ADD15C,0.0740*%
%ADD16C,0.1085*%
%ADD17C,0.0820*%
D10*
X003990Y006790D03*
X003990Y009290D03*
X003990Y010790D03*
X003990Y012040D03*
X003990Y013290D03*
X003990Y016040D03*
X004740Y022790D03*
X004740Y023790D03*
X004990Y026290D03*
X004990Y027290D03*
X004990Y028290D03*
X007490Y026290D03*
X007490Y022790D03*
X011490Y022790D03*
X011490Y026290D03*
X014240Y026290D03*
X014240Y027290D03*
X014240Y028290D03*
X016490Y026540D03*
X017900Y026530D03*
X017900Y030530D03*
X016490Y030540D03*
X014240Y023540D03*
X014240Y022540D03*
X015490Y016290D03*
X015490Y013540D03*
X015490Y012290D03*
X015490Y011040D03*
X015490Y009540D03*
X015490Y007040D03*
X017290Y007390D03*
X017290Y006390D03*
X017290Y005390D03*
X013240Y005040D03*
X013240Y004040D03*
X013240Y006040D03*
X013240Y007040D03*
X013240Y008040D03*
X013240Y009040D03*
X010240Y001390D03*
X002090Y028040D03*
X002090Y029040D03*
X002090Y030040D03*
D11*
X006490Y024790D03*
X006490Y023790D03*
X012740Y023540D03*
X012740Y024540D03*
D12*
X012990Y021070D02*
X012990Y020510D01*
X011990Y020510D02*
X011990Y021070D01*
X010990Y021070D02*
X010990Y020510D01*
X009990Y020510D02*
X009990Y021070D01*
X008990Y021070D02*
X008990Y020510D01*
X007990Y020510D02*
X007990Y021070D01*
X006990Y021070D02*
X006990Y020510D01*
X005990Y020510D02*
X005990Y021070D01*
X004990Y021070D02*
X004990Y020510D01*
X003990Y020510D02*
X003990Y021070D01*
X002990Y021070D02*
X002990Y020510D01*
X002990Y018070D02*
X002990Y017510D01*
X003990Y017510D02*
X003990Y018070D01*
X004990Y018070D02*
X004990Y017510D01*
X005990Y017510D02*
X005990Y018070D01*
X006990Y018070D02*
X006990Y017510D01*
X007990Y017510D02*
X007990Y018070D01*
X008990Y018070D02*
X008990Y017510D01*
X009990Y017510D02*
X009990Y018070D01*
X010990Y018070D02*
X010990Y017510D01*
X011990Y017510D02*
X011990Y018070D01*
X012990Y018070D02*
X012990Y017510D01*
X013990Y017510D02*
X013990Y018070D01*
X014990Y018070D02*
X014990Y017510D01*
X015990Y017510D02*
X015990Y018070D01*
X015990Y020510D02*
X015990Y021070D01*
X014990Y021070D02*
X014990Y020510D01*
X013990Y020510D02*
X013990Y021070D01*
X012990Y015570D02*
X012990Y015010D01*
X011990Y015010D02*
X011990Y015570D01*
X010990Y015570D02*
X010990Y015010D01*
X009990Y015010D02*
X009990Y015570D01*
X008990Y015570D02*
X008990Y015010D01*
X007990Y015010D02*
X007990Y015570D01*
X006990Y015570D02*
X006990Y015010D01*
X005990Y015010D02*
X005990Y015570D01*
X005990Y012570D02*
X005990Y012010D01*
X006990Y012010D02*
X006990Y012570D01*
X007990Y012570D02*
X007990Y012010D01*
X008990Y012010D02*
X008990Y012570D01*
X009990Y012570D02*
X009990Y012010D01*
X010990Y012010D02*
X010990Y012570D01*
X011990Y012570D02*
X011990Y012010D01*
X012990Y012010D02*
X012990Y012570D01*
D13*
X010590Y007540D03*
X010590Y006040D03*
X008390Y006040D03*
X008390Y007540D03*
D14*
X008530Y028900D02*
X007890Y028900D01*
X007890Y030680D02*
X008530Y030680D01*
X010450Y030680D02*
X011090Y030680D01*
X011090Y028900D02*
X010450Y028900D01*
D15*
X010277Y029790D03*
X008703Y029790D03*
X001740Y020077D03*
X001740Y018503D03*
X016990Y018503D03*
X016990Y020077D03*
D16*
X009490Y024790D03*
X009490Y027790D03*
X009490Y013790D03*
X009490Y010790D03*
D17*
X006840Y030080D02*
X006840Y030820D01*
X005840Y030820D02*
X005840Y030080D01*
X004840Y030080D02*
X004840Y030820D01*
X003840Y030820D02*
X003840Y030080D01*
X012280Y030230D02*
X012280Y030970D01*
X013280Y030970D02*
X013280Y030230D01*
X014280Y030230D02*
X014280Y030970D01*
X015280Y030970D02*
X015280Y030230D01*
M02*
