G75*
%MOIN*%
%OFA0B0*%
%FSLAX24Y24*%
%IPPOS*%
%LPD*%
%AMOC8*
5,1,8,0,0,1.08239X$1,22.5*
%
%ADD10C,0.0060*%
%ADD11C,0.0080*%
%ADD12C,0.0120*%
D10*
X004670Y008520D02*
X004840Y008520D01*
X004783Y008633D01*
X004783Y008690D01*
X004840Y008747D01*
X004953Y008747D01*
X005010Y008690D01*
X005010Y008577D01*
X004953Y008520D01*
X004670Y008520D02*
X004670Y008747D01*
X004953Y008888D02*
X004953Y008945D01*
X005010Y008945D01*
X005010Y008888D01*
X004953Y008888D01*
X004953Y009072D02*
X005010Y009129D01*
X005010Y009243D01*
X004953Y009299D01*
X004897Y009299D01*
X004840Y009243D01*
X004840Y009072D01*
X004953Y009072D01*
X004840Y009072D02*
X004726Y009186D01*
X004670Y009299D01*
X007420Y010220D02*
X007420Y010390D01*
X007476Y010447D01*
X007533Y010447D01*
X007590Y010390D01*
X007590Y010220D01*
X007760Y010220D02*
X007760Y010390D01*
X007703Y010447D01*
X007647Y010447D01*
X007590Y010390D01*
X007703Y010588D02*
X007647Y010645D01*
X007647Y010815D01*
X007590Y010815D02*
X007760Y010815D01*
X007760Y010645D01*
X007703Y010588D01*
X007533Y010645D02*
X007533Y010758D01*
X007590Y010815D01*
X007533Y010957D02*
X007533Y011070D01*
X007476Y011013D02*
X007703Y011013D01*
X007760Y011070D01*
X007590Y011202D02*
X007590Y011429D01*
X007760Y010220D02*
X007420Y010220D01*
X008820Y005610D02*
X008990Y005610D01*
X009047Y005554D01*
X009047Y005440D01*
X008990Y005383D01*
X008820Y005383D01*
X008820Y005270D02*
X008820Y005610D01*
X008933Y005383D02*
X009047Y005270D01*
X009188Y005327D02*
X009188Y005440D01*
X009245Y005497D01*
X009358Y005497D01*
X009415Y005440D01*
X009415Y005383D01*
X009188Y005383D01*
X009188Y005327D02*
X009245Y005270D01*
X009358Y005270D01*
X009557Y005270D02*
X009727Y005270D01*
X009783Y005327D01*
X009727Y005383D01*
X009613Y005383D01*
X009557Y005440D01*
X009613Y005497D01*
X009783Y005497D01*
X009925Y005440D02*
X009982Y005497D01*
X010095Y005497D01*
X010152Y005440D01*
X010152Y005383D01*
X009925Y005383D01*
X009925Y005327D02*
X009925Y005440D01*
X009925Y005327D02*
X009982Y005270D01*
X010095Y005270D01*
X010293Y005497D02*
X010407Y005497D01*
X010350Y005554D02*
X010350Y005327D01*
X010407Y005270D01*
X013820Y004483D02*
X014160Y004483D01*
X014160Y004313D01*
X014103Y004257D01*
X013990Y004257D01*
X013933Y004313D01*
X013933Y004483D01*
X013990Y004115D02*
X014160Y004115D01*
X013990Y004115D02*
X013933Y004058D01*
X013933Y003888D01*
X014160Y003888D01*
X014103Y003747D02*
X013990Y003747D01*
X013990Y003633D01*
X014103Y003520D02*
X013876Y003520D01*
X013820Y003577D01*
X013820Y003690D01*
X013876Y003747D01*
X014103Y003747D02*
X014160Y003690D01*
X014160Y003577D01*
X014103Y003520D01*
X016820Y004477D02*
X016877Y004420D01*
X016990Y004420D01*
X017047Y004477D01*
X017047Y004704D01*
X016990Y004760D01*
X016877Y004760D01*
X016820Y004704D01*
X016820Y004477D01*
X017188Y004477D02*
X017245Y004420D01*
X017415Y004420D01*
X017415Y004647D01*
X017557Y004647D02*
X017670Y004647D01*
X017613Y004704D02*
X017613Y004477D01*
X017670Y004420D01*
X017188Y004477D02*
X017188Y004647D01*
X017976Y006020D02*
X018033Y006020D01*
X018090Y006077D01*
X018090Y006190D01*
X018147Y006247D01*
X018203Y006247D01*
X018260Y006190D01*
X018260Y006077D01*
X018203Y006020D01*
X017976Y006020D02*
X017920Y006077D01*
X017920Y006190D01*
X017976Y006247D01*
X018033Y006388D02*
X018033Y006502D01*
X017976Y006445D02*
X018203Y006445D01*
X018260Y006502D01*
X018203Y006634D02*
X018260Y006691D01*
X018260Y006804D01*
X018147Y006861D02*
X018147Y006634D01*
X018203Y006634D02*
X018090Y006634D01*
X018033Y006691D01*
X018033Y006804D01*
X018090Y006861D01*
X018147Y006861D01*
X018260Y007002D02*
X018260Y007172D01*
X018203Y007229D01*
X018090Y007229D01*
X018033Y007172D01*
X018033Y007002D01*
X018373Y007002D01*
X018203Y007739D02*
X018260Y007796D01*
X018260Y007909D01*
X018203Y007966D01*
X018090Y007966D01*
X018033Y007909D01*
X018033Y007852D01*
X018090Y007739D01*
X017920Y007739D01*
X017920Y007966D01*
X016510Y008677D02*
X016453Y008620D01*
X016510Y008677D02*
X016510Y008790D01*
X016453Y008847D01*
X016340Y008847D01*
X016283Y008790D01*
X016283Y008733D01*
X016340Y008620D01*
X016170Y008620D01*
X016170Y008847D01*
X016453Y008988D02*
X016453Y009045D01*
X016510Y009045D01*
X016510Y008988D01*
X016453Y008988D01*
X016453Y009172D02*
X016510Y009229D01*
X016510Y009343D01*
X016453Y009399D01*
X016397Y009399D01*
X016340Y009343D01*
X016340Y009172D01*
X016453Y009172D01*
X016340Y009172D02*
X016226Y009286D01*
X016170Y009399D01*
X015603Y014120D02*
X015660Y014177D01*
X015660Y014290D01*
X015603Y014347D01*
X015547Y014347D01*
X015490Y014290D01*
X015490Y014120D01*
X015603Y014120D01*
X015490Y014120D02*
X015376Y014233D01*
X015320Y014347D01*
X015376Y014488D02*
X015433Y014488D01*
X015490Y014545D01*
X015490Y014658D01*
X015547Y014715D01*
X015603Y014715D01*
X015660Y014658D01*
X015660Y014545D01*
X015603Y014488D01*
X015547Y014488D01*
X015490Y014545D01*
X015490Y014658D02*
X015433Y014715D01*
X015376Y014715D01*
X015320Y014658D01*
X015320Y014545D01*
X015376Y014488D01*
X016515Y019170D02*
X016742Y019170D01*
X016883Y019170D02*
X016883Y019510D01*
X017054Y019510D01*
X017110Y019454D01*
X017110Y019227D01*
X017054Y019170D01*
X016883Y019170D01*
X017252Y019170D02*
X017252Y019510D01*
X017422Y019510D01*
X017479Y019454D01*
X017479Y019340D01*
X017422Y019283D01*
X017252Y019283D01*
X017365Y019283D02*
X017479Y019170D01*
X016515Y019170D02*
X016515Y019510D01*
X015510Y025470D02*
X015510Y025697D01*
X015510Y025583D02*
X015170Y025583D01*
X015283Y025470D01*
X015340Y025838D02*
X015340Y026008D01*
X015397Y026065D01*
X015453Y026065D01*
X015510Y026008D01*
X015510Y025895D01*
X015453Y025838D01*
X015340Y025838D01*
X015226Y025952D01*
X015170Y026065D01*
X015170Y026207D02*
X015283Y026320D01*
X015170Y026433D01*
X015510Y026433D01*
X015510Y026575D02*
X015170Y026575D01*
X015340Y026575D02*
X015340Y026802D01*
X015283Y026943D02*
X015283Y027170D01*
X015510Y026943D01*
X015510Y027170D01*
X015510Y026802D02*
X015170Y026802D01*
X015170Y026207D02*
X015510Y026207D01*
X015510Y027680D02*
X015170Y027680D01*
X015170Y027850D01*
X015226Y027907D01*
X015340Y027907D01*
X015397Y027850D01*
X015397Y027680D01*
X015397Y027793D02*
X015510Y027907D01*
X015453Y028048D02*
X015510Y028105D01*
X015510Y028218D01*
X015397Y028275D02*
X015397Y028048D01*
X015453Y028048D02*
X015340Y028048D01*
X015283Y028105D01*
X015283Y028218D01*
X015340Y028275D01*
X015397Y028275D01*
X015340Y028417D02*
X015283Y028473D01*
X015283Y028643D01*
X015397Y028587D02*
X015397Y028473D01*
X015340Y028417D01*
X015510Y028417D02*
X015510Y028587D01*
X015453Y028643D01*
X015397Y028587D01*
X015340Y029320D02*
X015170Y029320D01*
X015170Y029660D01*
X015340Y029660D01*
X015397Y029604D01*
X015397Y029547D01*
X015340Y029490D01*
X015170Y029490D01*
X015340Y029490D02*
X015397Y029433D01*
X015397Y029377D01*
X015340Y029320D01*
X014347Y029377D02*
X014347Y029490D01*
X014233Y029490D01*
X014120Y029377D02*
X014120Y029604D01*
X014177Y029660D01*
X014290Y029660D01*
X014347Y029604D01*
X014347Y029377D02*
X014290Y029320D01*
X014177Y029320D01*
X014120Y029377D01*
X013783Y029320D02*
X013613Y029320D01*
X013557Y029377D01*
X013557Y029490D01*
X013613Y029547D01*
X013783Y029547D01*
X013783Y029660D02*
X013783Y029320D01*
X013415Y029320D02*
X013415Y029490D01*
X013358Y029547D01*
X013188Y029547D01*
X013188Y029320D01*
X013047Y029377D02*
X013047Y029490D01*
X012933Y029490D01*
X012820Y029377D02*
X012877Y029320D01*
X012990Y029320D01*
X013047Y029377D01*
X013047Y029604D02*
X012990Y029660D01*
X012877Y029660D01*
X012820Y029604D01*
X012820Y029377D01*
X012397Y029320D02*
X012283Y029433D01*
X012340Y029433D02*
X012170Y029433D01*
X012170Y029320D02*
X012170Y029660D01*
X012340Y029660D01*
X012397Y029604D01*
X012397Y029490D01*
X012340Y029433D01*
X009660Y029370D02*
X009660Y029597D01*
X009660Y029738D02*
X009660Y029908D01*
X009603Y029965D01*
X009376Y029965D01*
X009320Y029908D01*
X009320Y029738D01*
X009660Y029738D01*
X009660Y029370D02*
X009320Y029370D01*
X009320Y030107D02*
X009320Y030277D01*
X009376Y030333D01*
X009490Y030333D01*
X009547Y030277D01*
X009547Y030107D01*
X009660Y030107D02*
X009320Y030107D01*
X009547Y030220D02*
X009660Y030333D01*
X007753Y028166D02*
X007526Y028166D01*
X007640Y028279D02*
X007640Y028052D01*
X007583Y027920D02*
X007583Y027807D01*
X007526Y027863D02*
X007753Y027863D01*
X007810Y027920D01*
X007810Y027665D02*
X007640Y027665D01*
X007583Y027608D01*
X007583Y027495D01*
X007697Y027495D02*
X007697Y027665D01*
X007810Y027665D02*
X007810Y027495D01*
X007753Y027438D01*
X007697Y027495D01*
X007697Y027297D02*
X007753Y027297D01*
X007810Y027240D01*
X007810Y027070D01*
X007470Y027070D01*
X007470Y027240D01*
X007526Y027297D01*
X007583Y027297D01*
X007640Y027240D01*
X007640Y027070D01*
X007640Y027240D02*
X007697Y027297D01*
X006940Y029170D02*
X006770Y029170D01*
X006770Y029510D01*
X006940Y029510D01*
X006997Y029454D01*
X006997Y029397D01*
X006940Y029340D01*
X006770Y029340D01*
X006940Y029340D02*
X006997Y029283D01*
X006997Y029227D01*
X006940Y029170D01*
X005997Y029227D02*
X005997Y029340D01*
X005883Y029340D01*
X005770Y029227D02*
X005827Y029170D01*
X005940Y029170D01*
X005997Y029227D01*
X005997Y029454D02*
X005940Y029510D01*
X005827Y029510D01*
X005770Y029454D01*
X005770Y029227D01*
X005383Y029170D02*
X005213Y029170D01*
X005157Y029227D01*
X005157Y029340D01*
X005213Y029397D01*
X005383Y029397D01*
X005383Y029510D02*
X005383Y029170D01*
X005015Y029170D02*
X005015Y029340D01*
X004958Y029397D01*
X004788Y029397D01*
X004788Y029170D01*
X004647Y029227D02*
X004647Y029340D01*
X004533Y029340D01*
X004420Y029227D02*
X004477Y029170D01*
X004590Y029170D01*
X004647Y029227D01*
X004647Y029454D02*
X004590Y029510D01*
X004477Y029510D01*
X004420Y029454D01*
X004420Y029227D01*
X003897Y029170D02*
X003783Y029283D01*
X003840Y029283D02*
X003670Y029283D01*
X003670Y029170D02*
X003670Y029510D01*
X003840Y029510D01*
X003897Y029454D01*
X003897Y029340D01*
X003840Y029283D01*
X005670Y028511D02*
X005670Y028398D01*
X005726Y028341D01*
X005840Y028455D02*
X005840Y028511D01*
X005897Y028568D01*
X005953Y028568D01*
X006010Y028511D01*
X006010Y028398D01*
X005953Y028341D01*
X005953Y028214D02*
X006010Y028214D01*
X006010Y028157D01*
X005953Y028157D01*
X005953Y028214D01*
X005953Y028016D02*
X005897Y028016D01*
X005840Y027959D01*
X005840Y027902D01*
X005840Y027959D02*
X005783Y028016D01*
X005726Y028016D01*
X005670Y027959D01*
X005670Y027846D01*
X005726Y027789D01*
X005840Y027279D02*
X005953Y027279D01*
X006010Y027222D01*
X006010Y027052D01*
X006123Y027052D02*
X005783Y027052D01*
X005783Y027222D01*
X005840Y027279D01*
X005840Y026911D02*
X005897Y026911D01*
X005897Y026684D01*
X005953Y026684D02*
X005840Y026684D01*
X005783Y026741D01*
X005783Y026854D01*
X005840Y026911D01*
X006010Y026854D02*
X006010Y026741D01*
X005953Y026684D01*
X006010Y026552D02*
X005953Y026495D01*
X005726Y026495D01*
X005783Y026438D02*
X005783Y026552D01*
X005726Y026297D02*
X005670Y026240D01*
X005670Y026127D01*
X005726Y026070D01*
X005783Y026070D01*
X005840Y026127D01*
X005840Y026240D01*
X005897Y026297D01*
X005953Y026297D01*
X006010Y026240D01*
X006010Y026127D01*
X005953Y026070D01*
X005388Y025547D02*
X005274Y025547D01*
X005331Y025604D02*
X005331Y025377D01*
X005388Y025320D01*
X005133Y025320D02*
X005133Y025547D01*
X004906Y025547D02*
X004906Y025377D01*
X004963Y025320D01*
X005133Y025320D01*
X004765Y025377D02*
X004765Y025604D01*
X004708Y025660D01*
X004595Y025660D01*
X004538Y025604D01*
X004538Y025377D01*
X004595Y025320D01*
X004708Y025320D01*
X004765Y025377D01*
X005953Y027789D02*
X006010Y027846D01*
X006010Y027959D01*
X005953Y028016D01*
X005840Y028511D02*
X005783Y028568D01*
X005726Y028568D01*
X005670Y028511D01*
X001060Y028574D02*
X000833Y028574D01*
X000833Y028744D01*
X000890Y028801D01*
X001060Y028801D01*
X001060Y028942D02*
X000720Y029169D01*
X000776Y029311D02*
X001003Y029311D01*
X001060Y029367D01*
X001060Y029481D01*
X001003Y029537D01*
X000776Y029537D01*
X000720Y029481D01*
X000720Y029367D01*
X000776Y029311D01*
X000890Y029679D02*
X000890Y029792D01*
X000776Y029736D02*
X000720Y029792D01*
X000776Y029736D02*
X001060Y029736D01*
X001060Y029981D02*
X000776Y029981D01*
X000720Y030038D01*
X000890Y030038D02*
X000890Y029924D01*
X001003Y028433D02*
X000776Y028433D01*
X000720Y028376D01*
X000720Y028262D01*
X000776Y028206D01*
X001003Y028206D01*
X001060Y028262D01*
X001060Y028376D01*
X001003Y028433D01*
X001215Y019460D02*
X001215Y019120D01*
X001442Y019120D01*
X001583Y019120D02*
X001754Y019120D01*
X001810Y019177D01*
X001810Y019404D01*
X001754Y019460D01*
X001583Y019460D01*
X001583Y019120D01*
X001952Y019120D02*
X001952Y019460D01*
X002122Y019460D01*
X002179Y019404D01*
X002179Y019290D01*
X002122Y019233D01*
X001952Y019233D01*
X002065Y019233D02*
X002179Y019120D01*
X003776Y014465D02*
X003720Y014408D01*
X003720Y014295D01*
X003776Y014238D01*
X003833Y014238D01*
X003890Y014295D01*
X003890Y014408D01*
X003947Y014465D01*
X004003Y014465D01*
X004060Y014408D01*
X004060Y014295D01*
X004003Y014238D01*
X003947Y014238D01*
X003890Y014295D01*
X003890Y014408D02*
X003833Y014465D01*
X003776Y014465D01*
X003720Y014097D02*
X003776Y013983D01*
X003890Y013870D01*
X003890Y014040D01*
X003947Y014097D01*
X004003Y014097D01*
X004060Y014040D01*
X004060Y013927D01*
X004003Y013870D01*
X003890Y013870D01*
D11*
X003518Y010030D02*
X003518Y007550D01*
X004462Y007550D01*
X004462Y010030D01*
X003518Y010030D01*
X003518Y012800D02*
X003518Y015280D01*
X004462Y015280D01*
X004462Y012800D01*
X003518Y012800D01*
X002527Y018896D02*
X002527Y019684D01*
X002522Y019728D01*
X002513Y019772D01*
X002502Y019816D01*
X002486Y019858D01*
X002468Y019899D01*
X002446Y019938D01*
X002422Y019975D01*
X002394Y020011D01*
X002364Y020044D01*
X002331Y020074D01*
X002296Y020102D01*
X002259Y020127D01*
X002220Y020149D01*
X002179Y020168D01*
X002137Y020183D01*
X002094Y020195D01*
X001386Y020195D02*
X001343Y020183D01*
X001301Y020168D01*
X001260Y020149D01*
X001221Y020127D01*
X001184Y020102D01*
X001149Y020074D01*
X001116Y020044D01*
X001086Y020011D01*
X001058Y019975D01*
X001034Y019938D01*
X001012Y019899D01*
X000994Y019858D01*
X000978Y019816D01*
X000967Y019772D01*
X000958Y019728D01*
X000953Y019684D01*
X000953Y018896D01*
X000958Y018852D01*
X000967Y018808D01*
X000978Y018764D01*
X000994Y018722D01*
X001012Y018681D01*
X001034Y018642D01*
X001058Y018605D01*
X001086Y018569D01*
X001116Y018536D01*
X001149Y018506D01*
X001184Y018478D01*
X001221Y018453D01*
X001260Y018431D01*
X001301Y018412D01*
X001343Y018397D01*
X001386Y018385D01*
X002094Y018385D02*
X002137Y018397D01*
X002179Y018412D01*
X002220Y018431D01*
X002259Y018453D01*
X002296Y018478D01*
X002331Y018506D01*
X002364Y018536D01*
X002394Y018569D01*
X002422Y018605D01*
X002446Y018642D01*
X002468Y018681D01*
X002486Y018722D01*
X002502Y018764D01*
X002513Y018808D01*
X002522Y018852D01*
X002527Y018896D01*
X006240Y024290D02*
X006740Y024290D01*
X005240Y025790D02*
X005490Y026040D01*
X005490Y026540D01*
X005240Y026790D01*
X005490Y027040D01*
X005490Y027540D01*
X005240Y027790D01*
X005490Y028040D01*
X005490Y028540D01*
X005240Y028790D01*
X004740Y028790D01*
X004490Y028540D01*
X004490Y028040D01*
X004740Y027790D01*
X004490Y027540D01*
X004490Y027040D01*
X004740Y026790D01*
X004490Y026540D01*
X004490Y026040D01*
X004740Y025790D01*
X005240Y025790D01*
X014940Y026390D02*
X014958Y026569D01*
X014972Y026749D01*
X014982Y026929D01*
X014988Y027110D01*
X014990Y027290D01*
X014988Y027470D01*
X014982Y027651D01*
X014972Y027831D01*
X014958Y028011D01*
X014940Y028190D01*
X014930Y028242D01*
X014916Y028293D01*
X014898Y028343D01*
X014877Y028391D01*
X014852Y028438D01*
X014824Y028482D01*
X014792Y028525D01*
X014758Y028565D01*
X014720Y028602D01*
X014680Y028636D01*
X014638Y028668D01*
X014593Y028696D01*
X014546Y028720D01*
X014498Y028741D01*
X014448Y028759D01*
X014397Y028772D01*
X014345Y028782D01*
X014293Y028788D01*
X014240Y028790D01*
X014187Y028788D01*
X014135Y028782D01*
X014083Y028772D01*
X014032Y028759D01*
X013982Y028741D01*
X013934Y028720D01*
X013887Y028696D01*
X013842Y028668D01*
X013800Y028636D01*
X013760Y028602D01*
X013722Y028565D01*
X013688Y028525D01*
X013656Y028482D01*
X013628Y028438D01*
X013603Y028391D01*
X013582Y028343D01*
X013564Y028293D01*
X013550Y028242D01*
X013540Y028190D01*
X013540Y026390D02*
X013550Y026338D01*
X013564Y026287D01*
X013582Y026237D01*
X013603Y026189D01*
X013628Y026142D01*
X013656Y026098D01*
X013688Y026055D01*
X013722Y026015D01*
X013760Y025978D01*
X013800Y025944D01*
X013842Y025912D01*
X013887Y025884D01*
X013934Y025860D01*
X013982Y025839D01*
X014032Y025821D01*
X014083Y025808D01*
X014135Y025798D01*
X014187Y025792D01*
X014240Y025790D01*
X014293Y025792D01*
X014345Y025798D01*
X014397Y025808D01*
X014448Y025821D01*
X014498Y025839D01*
X014546Y025860D01*
X014593Y025884D01*
X014638Y025912D01*
X014680Y025944D01*
X014720Y025978D01*
X014758Y026015D01*
X014792Y026055D01*
X014824Y026098D01*
X014852Y026142D01*
X014877Y026189D01*
X014898Y026237D01*
X014916Y026287D01*
X014930Y026338D01*
X014940Y026390D01*
X012990Y024040D02*
X012490Y024040D01*
X009884Y029003D02*
X009096Y029003D01*
X009052Y029008D01*
X009008Y029017D01*
X008964Y029028D01*
X008922Y029044D01*
X008881Y029062D01*
X008842Y029084D01*
X008805Y029108D01*
X008769Y029136D01*
X008736Y029166D01*
X008706Y029199D01*
X008678Y029234D01*
X008653Y029271D01*
X008631Y029310D01*
X008612Y029351D01*
X008597Y029393D01*
X008585Y029436D01*
X008585Y030144D02*
X008597Y030187D01*
X008612Y030229D01*
X008631Y030270D01*
X008653Y030309D01*
X008678Y030346D01*
X008706Y030381D01*
X008736Y030414D01*
X008769Y030444D01*
X008805Y030472D01*
X008842Y030496D01*
X008881Y030518D01*
X008922Y030536D01*
X008964Y030552D01*
X009008Y030563D01*
X009052Y030572D01*
X009096Y030577D01*
X009884Y030577D01*
X009928Y030572D01*
X009972Y030563D01*
X010016Y030552D01*
X010058Y030536D01*
X010099Y030518D01*
X010138Y030496D01*
X010175Y030472D01*
X010211Y030444D01*
X010244Y030414D01*
X010274Y030381D01*
X010302Y030346D01*
X010327Y030309D01*
X010349Y030270D01*
X010368Y030229D01*
X010383Y030187D01*
X010395Y030144D01*
X010395Y029436D02*
X010383Y029393D01*
X010368Y029351D01*
X010349Y029310D01*
X010327Y029271D01*
X010302Y029234D01*
X010274Y029199D01*
X010244Y029166D01*
X010211Y029136D01*
X010175Y029108D01*
X010138Y029084D01*
X010099Y029062D01*
X010058Y029044D01*
X010016Y029028D01*
X009972Y029017D01*
X009928Y029008D01*
X009884Y029003D01*
X011780Y030350D02*
X011780Y030850D01*
X015780Y030850D02*
X015780Y030350D01*
X013540Y028190D02*
X013522Y028011D01*
X013508Y027831D01*
X013498Y027651D01*
X013492Y027470D01*
X013490Y027290D01*
X013492Y027110D01*
X013498Y026929D01*
X013508Y026749D01*
X013522Y026569D01*
X013540Y026390D01*
X016203Y019684D02*
X016203Y018896D01*
X016208Y018852D01*
X016217Y018808D01*
X016228Y018764D01*
X016244Y018722D01*
X016262Y018681D01*
X016284Y018642D01*
X016308Y018605D01*
X016336Y018569D01*
X016366Y018536D01*
X016399Y018506D01*
X016434Y018478D01*
X016471Y018453D01*
X016510Y018431D01*
X016551Y018412D01*
X016593Y018397D01*
X016636Y018385D01*
X017344Y018385D02*
X017387Y018397D01*
X017429Y018412D01*
X017470Y018431D01*
X017509Y018453D01*
X017546Y018478D01*
X017581Y018506D01*
X017614Y018536D01*
X017644Y018569D01*
X017672Y018605D01*
X017696Y018642D01*
X017718Y018681D01*
X017736Y018722D01*
X017752Y018764D01*
X017763Y018808D01*
X017772Y018852D01*
X017777Y018896D01*
X017777Y019684D01*
X017772Y019728D01*
X017763Y019772D01*
X017752Y019816D01*
X017736Y019858D01*
X017718Y019899D01*
X017696Y019938D01*
X017672Y019975D01*
X017644Y020011D01*
X017614Y020044D01*
X017581Y020074D01*
X017546Y020102D01*
X017509Y020127D01*
X017470Y020149D01*
X017429Y020168D01*
X017387Y020183D01*
X017344Y020195D01*
X016636Y020195D02*
X016593Y020183D01*
X016551Y020168D01*
X016510Y020149D01*
X016471Y020127D01*
X016434Y020102D01*
X016399Y020074D01*
X016366Y020044D01*
X016336Y020011D01*
X016308Y019975D01*
X016284Y019938D01*
X016262Y019899D01*
X016244Y019858D01*
X016228Y019816D01*
X016217Y019772D01*
X016208Y019728D01*
X016203Y019684D01*
X015962Y015530D02*
X015018Y015530D01*
X015018Y013050D01*
X015962Y013050D01*
X015962Y015530D01*
X015962Y010280D02*
X015018Y010280D01*
X015018Y007800D01*
X015962Y007800D01*
X015962Y010280D01*
X017040Y007890D02*
X016790Y007640D01*
X016790Y007140D01*
X017040Y006890D01*
X016790Y006640D01*
X016790Y006140D01*
X017040Y005890D01*
X016790Y005640D01*
X016790Y005140D01*
X017040Y004890D01*
X017540Y004890D01*
X017790Y005140D01*
X017790Y005640D01*
X017540Y005890D01*
X017790Y006140D01*
X017790Y006640D01*
X017540Y006890D01*
X017790Y007140D01*
X017790Y007640D01*
X017540Y007890D01*
X017040Y007890D01*
X013740Y007790D02*
X013490Y007540D01*
X013740Y007290D01*
X013740Y006790D01*
X013490Y006540D01*
X013740Y006290D01*
X013740Y005790D01*
X013490Y005540D01*
X013740Y005290D01*
X013740Y004790D01*
X013490Y004540D01*
X013740Y004290D01*
X013740Y003790D01*
X013490Y003540D01*
X012990Y003540D01*
X012740Y003790D01*
X012740Y004290D01*
X012990Y004540D01*
X012740Y004790D01*
X012740Y005290D01*
X012990Y005540D01*
X012740Y005790D01*
X012740Y006290D01*
X012990Y006540D01*
X012740Y006790D01*
X012740Y007290D01*
X012990Y007540D01*
X012740Y007790D01*
X012740Y008290D01*
X012990Y008540D01*
X012740Y008790D01*
X012740Y009290D01*
X012990Y009540D01*
X013490Y009540D01*
X013740Y009290D01*
X013740Y008790D01*
X013490Y008540D01*
X013740Y008290D01*
X013740Y007790D01*
X010490Y007278D02*
X010490Y006290D01*
X010096Y005790D02*
X008884Y005790D01*
X008490Y006302D02*
X008490Y007278D01*
X008884Y007790D02*
X010096Y007790D01*
X008990Y006790D02*
X008992Y006834D01*
X008998Y006878D01*
X009008Y006921D01*
X009021Y006963D01*
X009038Y007004D01*
X009059Y007043D01*
X009083Y007080D01*
X009110Y007115D01*
X009140Y007147D01*
X009173Y007177D01*
X009209Y007203D01*
X009246Y007227D01*
X009286Y007246D01*
X009327Y007263D01*
X009370Y007275D01*
X009413Y007284D01*
X009457Y007289D01*
X009501Y007290D01*
X009545Y007287D01*
X009589Y007280D01*
X009632Y007269D01*
X009674Y007255D01*
X009714Y007237D01*
X009753Y007215D01*
X009789Y007191D01*
X009823Y007163D01*
X009855Y007132D01*
X009884Y007098D01*
X009910Y007062D01*
X009932Y007024D01*
X009951Y006984D01*
X009966Y006942D01*
X009978Y006900D01*
X009986Y006856D01*
X009990Y006812D01*
X009990Y006768D01*
X009986Y006724D01*
X009978Y006680D01*
X009966Y006638D01*
X009951Y006596D01*
X009932Y006556D01*
X009910Y006518D01*
X009884Y006482D01*
X009855Y006448D01*
X009823Y006417D01*
X009789Y006389D01*
X009753Y006365D01*
X009714Y006343D01*
X009674Y006325D01*
X009632Y006311D01*
X009589Y006300D01*
X009545Y006293D01*
X009501Y006290D01*
X009457Y006291D01*
X009413Y006296D01*
X009370Y006305D01*
X009327Y006317D01*
X009286Y006334D01*
X009246Y006353D01*
X009209Y006377D01*
X009173Y006403D01*
X009140Y006433D01*
X009110Y006465D01*
X009083Y006500D01*
X009059Y006537D01*
X009038Y006576D01*
X009021Y006617D01*
X009008Y006659D01*
X008998Y006702D01*
X008992Y006746D01*
X008990Y006790D01*
X002946Y026751D02*
X001234Y026751D01*
X001234Y031329D01*
X002946Y031329D01*
X002946Y026751D01*
X003340Y030200D02*
X003340Y030700D01*
X007340Y030700D02*
X007340Y030200D01*
D12*
X009490Y023516D02*
X009490Y022929D01*
X009196Y023223D02*
X009783Y023223D01*
X009490Y015516D02*
X009490Y014929D01*
M02*
