G75*
%MOIN*%
%OFA0B0*%
%FSLAX24Y24*%
%IPPOS*%
%LPD*%
%AMOC8*
5,1,8,0,0,1.08239X$1,22.5*
%
%ADD10C,0.0740*%
%ADD11C,0.0650*%
%ADD12R,0.0500X0.0787*%
%ADD13C,0.0560*%
%ADD14C,0.0640*%
%ADD15C,0.0660*%
%ADD16C,0.1005*%
%ADD17C,0.0740*%
%ADD18C,0.0160*%
%ADD19C,0.0436*%
%ADD20C,0.0080*%
%ADD21C,0.0440*%
%ADD22C,0.0400*%
%ADD23C,0.0400*%
D10*
X003990Y006790D03*
X003990Y009290D03*
X003990Y010790D03*
X003990Y012040D03*
X003990Y013290D03*
X003990Y016040D03*
X004740Y022790D03*
X004740Y023790D03*
X004990Y026290D03*
X004990Y027290D03*
X004990Y028290D03*
X007490Y026290D03*
X007490Y022790D03*
X011490Y022790D03*
X011490Y026290D03*
X014240Y026290D03*
X014240Y027290D03*
X014240Y028290D03*
X016490Y026540D03*
X017900Y026530D03*
X017900Y030530D03*
X016490Y030540D03*
X014240Y023540D03*
X014240Y022540D03*
X015490Y016290D03*
X015490Y013540D03*
X015490Y012290D03*
X015490Y011040D03*
X015490Y009540D03*
X015490Y007040D03*
X017290Y007390D03*
X017290Y006390D03*
X017290Y005390D03*
X013240Y005040D03*
X013240Y004040D03*
X013240Y006040D03*
X013240Y007040D03*
X013240Y008040D03*
X013240Y009040D03*
X010240Y001390D03*
X002090Y028040D03*
X002090Y029040D03*
X002090Y030040D03*
D11*
X006490Y024790D03*
X006490Y023790D03*
X012740Y023540D03*
X012740Y024540D03*
D12*
X011746Y010068D03*
X007021Y010068D03*
X007021Y002390D03*
X007809Y002390D03*
X008596Y002390D03*
X009384Y002390D03*
X010959Y002390D03*
X011746Y002390D03*
D13*
X011990Y012010D02*
X011990Y012570D01*
X010990Y012570D02*
X010990Y012010D01*
X009990Y012010D02*
X009990Y012570D01*
X008990Y012570D02*
X008990Y012010D01*
X007990Y012010D02*
X007990Y012570D01*
X006990Y012570D02*
X006990Y012010D01*
X005990Y012010D02*
X005990Y012570D01*
X005990Y015010D02*
X005990Y015570D01*
X006990Y015570D02*
X006990Y015010D01*
X007990Y015010D02*
X007990Y015570D01*
X008990Y015570D02*
X008990Y015010D01*
X009990Y015010D02*
X009990Y015570D01*
X010990Y015570D02*
X010990Y015010D01*
X011990Y015010D02*
X011990Y015570D01*
X012990Y015570D02*
X012990Y015010D01*
X012990Y012570D02*
X012990Y012010D01*
X012990Y017510D02*
X012990Y018070D01*
X011990Y018070D02*
X011990Y017510D01*
X010990Y017510D02*
X010990Y018070D01*
X009990Y018070D02*
X009990Y017510D01*
X008990Y017510D02*
X008990Y018070D01*
X007990Y018070D02*
X007990Y017510D01*
X006990Y017510D02*
X006990Y018070D01*
X005990Y018070D02*
X005990Y017510D01*
X004990Y017510D02*
X004990Y018070D01*
X003990Y018070D02*
X003990Y017510D01*
X002990Y017510D02*
X002990Y018070D01*
X002990Y020510D02*
X002990Y021070D01*
X003990Y021070D02*
X003990Y020510D01*
X004990Y020510D02*
X004990Y021070D01*
X005990Y021070D02*
X005990Y020510D01*
X006990Y020510D02*
X006990Y021070D01*
X007990Y021070D02*
X007990Y020510D01*
X008990Y020510D02*
X008990Y021070D01*
X009990Y021070D02*
X009990Y020510D01*
X010990Y020510D02*
X010990Y021070D01*
X011990Y021070D02*
X011990Y020510D01*
X012990Y020510D02*
X012990Y021070D01*
X013990Y021070D02*
X013990Y020510D01*
X014990Y020510D02*
X014990Y021070D01*
X015990Y021070D02*
X015990Y020510D01*
X015990Y018070D02*
X015990Y017510D01*
X014990Y017510D02*
X014990Y018070D01*
X013990Y018070D02*
X013990Y017510D01*
D14*
X011090Y028900D02*
X010450Y028900D01*
X010450Y030680D02*
X011090Y030680D01*
X008530Y030680D02*
X007890Y030680D01*
X007890Y028900D02*
X008530Y028900D01*
D15*
X008703Y029790D03*
X010277Y029790D03*
X016990Y020077D03*
X016990Y018503D03*
X001740Y018503D03*
X001740Y020077D03*
D16*
X009490Y024790D03*
X009490Y027790D03*
X009490Y013790D03*
X009490Y010790D03*
D17*
X006840Y030080D02*
X006840Y030820D01*
X005840Y030820D02*
X005840Y030080D01*
X004840Y030080D02*
X004840Y030820D01*
X003840Y030820D02*
X003840Y030080D01*
X012280Y030230D02*
X012280Y030970D01*
X013280Y030970D02*
X013280Y030230D01*
X014280Y030230D02*
X014280Y030970D01*
X015280Y030970D02*
X015280Y030230D01*
D18*
X003369Y004127D02*
X002564Y004127D01*
X002442Y004286D02*
X003247Y004286D01*
X003254Y004268D02*
X003272Y004224D01*
X003306Y004190D01*
X006015Y001472D01*
X006047Y001438D01*
X006049Y001438D01*
X006050Y001437D01*
X006092Y001419D01*
X006135Y001401D01*
X006136Y001401D01*
X006138Y001400D01*
X006184Y001400D01*
X006951Y001391D01*
X006952Y001390D01*
X006999Y001390D01*
X007045Y001389D01*
X007046Y001390D01*
X007048Y001390D01*
X007090Y001408D01*
X007133Y001425D01*
X007135Y001426D01*
X007136Y001427D01*
X007169Y001459D01*
X007202Y001492D01*
X007202Y001493D01*
X007223Y001513D01*
X007259Y001601D01*
X007259Y001797D01*
X007354Y001797D01*
X007415Y001858D01*
X007476Y001797D01*
X007567Y001797D01*
X007567Y001637D01*
X007450Y001521D01*
X007387Y001367D01*
X007387Y001200D01*
X007450Y001046D01*
X007569Y000927D01*
X007723Y000863D01*
X007890Y000863D01*
X008044Y000927D01*
X008163Y001046D01*
X008227Y001200D01*
X008227Y001367D01*
X008163Y001521D01*
X008047Y001637D01*
X008047Y001797D01*
X008142Y001797D01*
X008203Y001858D01*
X008263Y001797D01*
X008929Y001797D01*
X008990Y001858D01*
X009051Y001797D01*
X009144Y001797D01*
X009144Y001610D01*
X009006Y001610D01*
X008852Y001546D01*
X008734Y001428D01*
X008670Y001274D01*
X008227Y001274D01*
X008199Y001433D02*
X008739Y001433D01*
X008670Y001274D02*
X008670Y001106D01*
X008734Y000952D01*
X008852Y000834D01*
X009006Y000770D01*
X009174Y000770D01*
X009328Y000834D01*
X009446Y000952D01*
X009510Y001106D01*
X009510Y001271D01*
X009587Y001348D01*
X009624Y001436D01*
X009624Y001797D01*
X009717Y001797D01*
X009834Y001914D01*
X009834Y002867D01*
X009717Y002984D01*
X009051Y002984D01*
X008990Y002923D01*
X008929Y002984D01*
X008585Y002984D01*
X008493Y003076D01*
X008426Y003143D01*
X008338Y003180D01*
X005909Y003180D01*
X005292Y003797D01*
X005353Y003942D01*
X005353Y004109D01*
X005289Y004264D01*
X005170Y004382D01*
X005016Y004446D01*
X004849Y004446D01*
X004695Y004382D01*
X004576Y004264D01*
X004526Y004143D01*
X004430Y004239D01*
X004430Y005538D01*
X004393Y005626D01*
X004326Y005693D01*
X003745Y006275D01*
X003877Y006220D01*
X004103Y006220D01*
X004313Y006307D01*
X004473Y006467D01*
X004560Y006677D01*
X004560Y006903D01*
X004473Y007113D01*
X004313Y007273D01*
X004103Y007360D01*
X003877Y007360D01*
X003667Y007273D01*
X003507Y007113D01*
X003420Y006903D01*
X003420Y006677D01*
X003475Y006545D01*
X003226Y006793D01*
X003138Y006830D01*
X002039Y006830D01*
X001930Y006939D01*
X001930Y007283D01*
X001957Y007272D01*
X002123Y007272D01*
X002277Y007336D01*
X002394Y007453D01*
X002458Y007607D01*
X002458Y007773D01*
X002394Y007927D01*
X002277Y008044D01*
X002123Y008108D01*
X001992Y008108D01*
X001511Y008589D01*
X001511Y014988D01*
X001475Y015076D01*
X001407Y015143D01*
X001230Y015321D01*
X001230Y018349D01*
X001291Y018202D01*
X001440Y018053D01*
X001635Y017973D01*
X001845Y017973D01*
X002040Y018053D01*
X002189Y018202D01*
X002270Y018397D01*
X002270Y018423D01*
X002310Y018327D01*
X002315Y018322D01*
X002119Y018127D01*
X002052Y018059D01*
X002015Y017971D01*
X002015Y017354D01*
X001686Y017025D01*
X001619Y016957D01*
X001582Y016869D01*
X001582Y016419D01*
X001619Y016331D01*
X002131Y015819D01*
X002198Y015751D01*
X002286Y015715D01*
X003484Y015715D01*
X003504Y015723D01*
X003507Y015717D01*
X003667Y015557D01*
X003877Y015470D01*
X004103Y015470D01*
X004313Y015557D01*
X004473Y015717D01*
X004560Y015927D01*
X004560Y016153D01*
X004473Y016363D01*
X004313Y016523D01*
X004103Y016610D01*
X003877Y016610D01*
X003667Y016523D01*
X003507Y016363D01*
X003505Y016358D01*
X003497Y016355D01*
X003430Y016288D01*
X003337Y016195D01*
X002434Y016195D01*
X002062Y016566D01*
X002062Y016722D01*
X002391Y017051D01*
X002459Y017118D01*
X002495Y017206D01*
X002495Y017824D01*
X002510Y017839D01*
X002510Y017415D01*
X002583Y017238D01*
X002718Y017103D01*
X002895Y017030D01*
X003041Y017030D01*
X002991Y016980D01*
X002844Y016980D01*
X002828Y016996D01*
X002674Y017060D01*
X002506Y017060D01*
X002352Y016996D01*
X002234Y016878D01*
X002170Y016724D01*
X002170Y016556D01*
X002234Y016402D01*
X002352Y016284D01*
X002506Y016220D01*
X002674Y016220D01*
X002828Y016284D01*
X002946Y016402D01*
X002987Y016500D01*
X003138Y016500D01*
X003226Y016537D01*
X003293Y016604D01*
X003693Y017004D01*
X003730Y017092D01*
X003730Y017098D01*
X003895Y017030D01*
X004085Y017030D01*
X004181Y017069D01*
X004181Y016734D01*
X004217Y016646D01*
X004889Y015974D01*
X004889Y014942D01*
X004790Y014843D01*
X004729Y014696D01*
X004729Y014537D01*
X004790Y014390D01*
X004903Y014277D01*
X005050Y014216D01*
X005209Y014216D01*
X005356Y014277D01*
X005468Y014390D01*
X005529Y014537D01*
X005529Y014696D01*
X005468Y014843D01*
X005369Y014942D01*
X005369Y016121D01*
X005333Y016209D01*
X005265Y016277D01*
X004661Y016881D01*
X004661Y017160D01*
X004718Y017103D01*
X004895Y017030D01*
X005085Y017030D01*
X005262Y017103D01*
X005279Y017120D01*
X006575Y015823D01*
X006510Y015665D01*
X006510Y014915D01*
X006583Y014738D01*
X006718Y014603D01*
X006895Y014530D01*
X006973Y014530D01*
X006973Y014497D01*
X007034Y014350D01*
X007147Y014238D01*
X007294Y014177D01*
X007453Y014177D01*
X007600Y014238D01*
X007713Y014350D01*
X007773Y014497D01*
X007773Y014580D01*
X007895Y014530D01*
X007991Y014530D01*
X007937Y014476D01*
X007085Y013624D01*
X007085Y013637D01*
X007021Y013791D01*
X006903Y013909D01*
X006748Y013973D01*
X006581Y013973D01*
X006427Y013909D01*
X006309Y013791D01*
X006245Y013637D01*
X004449Y013637D01*
X004473Y013613D02*
X004313Y013773D01*
X004103Y013860D01*
X003877Y013860D01*
X003867Y013856D01*
X002439Y015284D01*
X002439Y015448D01*
X002375Y015602D01*
X002257Y015720D01*
X002103Y015784D01*
X001936Y015784D01*
X001781Y015720D01*
X001663Y015602D01*
X001599Y015448D01*
X001599Y015281D01*
X001663Y015126D01*
X001781Y015008D01*
X001936Y014944D01*
X002100Y014944D01*
X003485Y013559D01*
X003420Y013403D01*
X003420Y013177D01*
X003507Y012967D01*
X003667Y012807D01*
X003877Y012720D01*
X004103Y012720D01*
X004313Y012807D01*
X004473Y012967D01*
X004560Y013177D01*
X004560Y013403D01*
X004473Y013613D01*
X004529Y013479D02*
X006245Y013479D01*
X006245Y013470D02*
X006300Y013337D01*
X006300Y012939D01*
X006262Y012977D01*
X006085Y013050D01*
X005895Y013050D01*
X005718Y012977D01*
X005583Y012842D01*
X005510Y012665D01*
X005510Y011915D01*
X005526Y011875D01*
X005453Y011844D01*
X005339Y011730D01*
X004639Y011730D01*
X004526Y011844D01*
X004560Y011927D01*
X004560Y012153D01*
X004473Y012363D01*
X004313Y012523D01*
X004103Y012610D01*
X003877Y012610D01*
X003667Y012523D01*
X003507Y012363D01*
X003420Y012153D01*
X003420Y011927D01*
X003494Y011749D01*
X002793Y012449D01*
X002793Y012613D01*
X002730Y012768D01*
X002611Y012886D01*
X002457Y012950D01*
X002290Y012950D01*
X002136Y012886D01*
X002017Y012768D01*
X001953Y012613D01*
X001953Y012446D01*
X002017Y012292D01*
X002136Y012174D01*
X002290Y012110D01*
X002454Y012110D01*
X003490Y011073D01*
X003420Y010903D01*
X003420Y010677D01*
X003507Y010467D01*
X001511Y010467D01*
X001511Y010309D02*
X003665Y010309D01*
X003667Y010307D02*
X003877Y010220D01*
X004103Y010220D01*
X004313Y010307D01*
X004473Y010467D01*
X004828Y010467D01*
X004986Y010626D02*
X004539Y010626D01*
X004560Y010677D02*
X004560Y010903D01*
X004473Y011113D01*
X004313Y011273D01*
X004103Y011360D01*
X003883Y011360D01*
X003699Y011544D01*
X003877Y011470D01*
X004103Y011470D01*
X004186Y011504D01*
X004404Y011287D01*
X004492Y011250D01*
X005339Y011250D01*
X005453Y011136D01*
X005607Y011072D01*
X005773Y011072D01*
X005927Y011136D01*
X006044Y011253D01*
X006108Y011407D01*
X006108Y011539D01*
X006262Y011603D01*
X006300Y011641D01*
X006300Y011592D01*
X006337Y011504D01*
X006554Y011287D01*
X006642Y011250D01*
X008985Y011250D01*
X008976Y011241D01*
X008921Y011170D01*
X008877Y011093D01*
X008842Y011010D01*
X008819Y010923D01*
X008812Y010870D01*
X009410Y010870D01*
X009410Y010710D01*
X008812Y010710D01*
X008819Y010657D01*
X008842Y010570D01*
X008877Y010487D01*
X008921Y010410D01*
X008944Y010380D01*
X008359Y010380D01*
X007993Y010746D01*
X007926Y010813D01*
X007838Y010850D01*
X007399Y010850D01*
X007363Y010886D01*
X007296Y010953D01*
X007208Y010990D01*
X005402Y010990D01*
X005314Y010953D01*
X005247Y010886D01*
X004186Y009826D01*
X004103Y009860D01*
X003877Y009860D01*
X003667Y009773D01*
X003507Y009613D01*
X003420Y009403D01*
X003420Y009177D01*
X003507Y008967D01*
X003667Y008807D01*
X003877Y008720D01*
X004103Y008720D01*
X004313Y008807D01*
X004473Y008967D01*
X004560Y009177D01*
X004560Y009403D01*
X004526Y009486D01*
X005549Y010510D01*
X006571Y010510D01*
X006571Y009591D01*
X006689Y009474D01*
X007354Y009474D01*
X007460Y009580D01*
X011307Y009580D01*
X011413Y009474D01*
X011978Y009474D01*
X011987Y009454D01*
X012054Y009387D01*
X012250Y009191D01*
X012250Y007592D01*
X012287Y007504D01*
X012354Y007437D01*
X012454Y007337D01*
X012542Y007300D01*
X012731Y007300D01*
X012670Y007153D01*
X012670Y006927D01*
X012757Y006717D01*
X012917Y006557D01*
X012958Y006540D01*
X012917Y006523D01*
X012757Y006363D01*
X012670Y006153D01*
X012670Y005927D01*
X012757Y005717D01*
X012917Y005557D01*
X012958Y005540D01*
X012917Y005523D01*
X012757Y005363D01*
X012670Y005153D01*
X012670Y004927D01*
X012757Y004717D01*
X012917Y004557D01*
X012986Y004528D01*
X012952Y004510D01*
X012882Y004460D01*
X012820Y004398D01*
X012770Y004328D01*
X012730Y004251D01*
X012704Y004169D01*
X012690Y004083D01*
X012690Y004060D01*
X013220Y004060D01*
X013220Y004020D01*
X013260Y004020D01*
X013260Y004060D01*
X013790Y004060D01*
X013790Y004083D01*
X013776Y004169D01*
X013750Y004251D01*
X013710Y004328D01*
X013660Y004398D01*
X013598Y004460D01*
X013528Y004510D01*
X013494Y004528D01*
X013563Y004557D01*
X013723Y004717D01*
X013810Y004927D01*
X013810Y005153D01*
X013723Y005363D01*
X013563Y005523D01*
X013522Y005540D01*
X013563Y005557D01*
X013723Y005717D01*
X013810Y005927D01*
X013810Y006153D01*
X013723Y006363D01*
X013563Y006523D01*
X013522Y006540D01*
X013563Y006557D01*
X013723Y006717D01*
X013810Y006927D01*
X013810Y007153D01*
X013749Y007300D01*
X013888Y007300D01*
X013976Y007337D01*
X014043Y007404D01*
X014239Y007600D01*
X015352Y007600D01*
X015167Y007523D01*
X015007Y007363D01*
X014920Y007153D01*
X014920Y006927D01*
X015007Y006717D01*
X015167Y006557D01*
X015350Y006481D01*
X015350Y006339D01*
X014387Y005376D01*
X014350Y005288D01*
X014350Y004341D01*
X014236Y004227D01*
X014172Y004073D01*
X014172Y003907D01*
X014236Y003753D01*
X014353Y003636D01*
X014507Y003572D01*
X014673Y003572D01*
X014827Y003636D01*
X014944Y003753D01*
X015008Y003907D01*
X015008Y004073D01*
X014944Y004227D01*
X014830Y004341D01*
X014830Y005141D01*
X015726Y006037D01*
X015793Y006104D01*
X015830Y006192D01*
X015830Y006574D01*
X015973Y006717D01*
X016060Y006927D01*
X016060Y007153D01*
X015973Y007363D01*
X015813Y007523D01*
X015628Y007600D01*
X016091Y007600D01*
X016150Y007541D01*
X016150Y006092D01*
X016187Y006004D01*
X016254Y005937D01*
X016720Y005471D01*
X016720Y005277D01*
X016807Y005067D01*
X016967Y004907D01*
X017177Y004820D01*
X017403Y004820D01*
X017613Y004907D01*
X017773Y005067D01*
X017860Y005277D01*
X017860Y005503D01*
X017773Y005713D01*
X017613Y005873D01*
X017544Y005902D01*
X017578Y005920D01*
X017648Y005970D01*
X017710Y006032D01*
X017760Y006102D01*
X017800Y006179D01*
X017826Y006261D01*
X017840Y006347D01*
X017840Y006370D01*
X017310Y006370D01*
X017310Y006410D01*
X017840Y006410D01*
X017840Y006433D01*
X017826Y006519D01*
X017800Y006601D01*
X017760Y006678D01*
X017710Y006748D01*
X017648Y006810D01*
X017578Y006860D01*
X017544Y006878D01*
X017613Y006907D01*
X017773Y007067D01*
X017860Y007277D01*
X017860Y007503D01*
X017773Y007713D01*
X017613Y007873D01*
X017403Y007960D01*
X017177Y007960D01*
X016967Y007873D01*
X016807Y007713D01*
X016720Y007503D01*
X016720Y007277D01*
X016807Y007067D01*
X016967Y006907D01*
X017036Y006878D01*
X017002Y006860D01*
X016932Y006810D01*
X016870Y006748D01*
X016820Y006678D01*
X016780Y006601D01*
X016754Y006519D01*
X016740Y006433D01*
X016740Y006410D01*
X017270Y006410D01*
X017270Y006370D01*
X016740Y006370D01*
X016740Y006347D01*
X016754Y006261D01*
X016780Y006179D01*
X016820Y006102D01*
X016870Y006032D01*
X016932Y005970D01*
X017002Y005920D01*
X017036Y005902D01*
X016988Y005882D01*
X016630Y006239D01*
X016630Y007688D01*
X016593Y007776D01*
X016393Y007976D01*
X016326Y008043D01*
X016238Y008080D01*
X014092Y008080D01*
X014004Y008043D01*
X013755Y007795D01*
X013810Y007927D01*
X013810Y008153D01*
X013723Y008363D01*
X013563Y008523D01*
X013522Y008540D01*
X013546Y008550D01*
X015846Y008550D01*
X015935Y008586D01*
X016002Y008654D01*
X018128Y010780D01*
X018165Y010868D01*
X018165Y020215D01*
X018128Y020304D01*
X018061Y020371D01*
X017234Y021198D01*
X017146Y021234D01*
X017116Y021234D01*
X017122Y021240D01*
X017183Y021387D01*
X017183Y021546D01*
X017122Y021693D01*
X017009Y021806D01*
X016862Y021867D01*
X016722Y021867D01*
X016689Y021900D01*
X016907Y021900D01*
X019240Y021410D01*
X019240Y009290D01*
X019207Y008527D01*
X019107Y007771D01*
X018942Y007025D01*
X018712Y006297D01*
X018420Y005592D01*
X018068Y004915D01*
X017658Y004271D01*
X017193Y003666D01*
X016677Y003103D01*
X016114Y002587D01*
X015509Y002122D01*
X014865Y001712D01*
X014188Y001360D01*
X013483Y001068D01*
X012755Y000838D01*
X012009Y000673D01*
X011253Y000573D01*
X010490Y000540D01*
X009990Y000540D01*
X009162Y000576D01*
X008340Y000684D01*
X007531Y000864D01*
X006741Y001113D01*
X005975Y001430D01*
X005240Y001813D01*
X004541Y002258D01*
X003884Y002763D01*
X003272Y003322D01*
X002713Y003934D01*
X002208Y004591D01*
X001763Y005290D01*
X001380Y006025D01*
X001063Y006791D01*
X000814Y007581D01*
X000634Y008390D01*
X000526Y009212D01*
X000490Y010040D01*
X000490Y022040D01*
X002505Y022250D01*
X002888Y022250D01*
X002976Y022287D01*
X002990Y022301D01*
X003134Y022316D01*
X003134Y025487D01*
X000490Y026290D01*
X000490Y030540D01*
X000505Y030753D01*
X000551Y030963D01*
X000626Y031163D01*
X000728Y031351D01*
X000856Y031522D01*
X001008Y031674D01*
X001179Y031802D01*
X001367Y031904D01*
X001567Y031979D01*
X001663Y032000D01*
X017390Y032000D01*
X017528Y031975D01*
X017788Y031894D01*
X018036Y031782D01*
X018268Y031642D01*
X018482Y031474D01*
X018674Y031282D01*
X018842Y031068D01*
X018982Y030836D01*
X019094Y030588D01*
X019175Y030328D01*
X019224Y030061D01*
X019240Y029790D01*
X019240Y025932D01*
X016950Y025240D01*
X017704Y025994D01*
X017787Y025960D01*
X018013Y025960D01*
X018223Y026047D01*
X018383Y026207D01*
X018470Y026417D01*
X018470Y026643D01*
X018383Y026853D01*
X018223Y027013D01*
X018013Y027100D01*
X017787Y027100D01*
X017577Y027013D01*
X017417Y026853D01*
X017330Y026643D01*
X017330Y026417D01*
X017364Y026334D01*
X016661Y025630D01*
X014342Y025630D01*
X014254Y025593D01*
X014187Y025526D01*
X013304Y024643D01*
X013265Y024604D01*
X013265Y024644D01*
X013185Y024837D01*
X013037Y024985D01*
X012891Y025046D01*
X013283Y025046D01*
X013372Y025082D01*
X014044Y025754D01*
X014127Y025720D01*
X014353Y025720D01*
X014563Y025807D01*
X014723Y025967D01*
X014810Y026177D01*
X014810Y026403D01*
X014723Y026613D01*
X014563Y026773D01*
X014494Y026802D01*
X014528Y026820D01*
X014598Y026870D01*
X014660Y026932D01*
X014710Y027002D01*
X014750Y027079D01*
X014776Y027161D01*
X014790Y027247D01*
X014790Y027290D01*
X014790Y027333D01*
X014776Y027419D01*
X014750Y027501D01*
X014710Y027578D01*
X014660Y027648D01*
X014598Y027710D01*
X014528Y027760D01*
X014494Y027778D01*
X014563Y027807D01*
X014723Y027967D01*
X014810Y028177D01*
X014810Y028403D01*
X014723Y028613D01*
X014563Y028773D01*
X014498Y028800D01*
X016191Y028800D01*
X016400Y028591D01*
X016400Y027991D01*
X016286Y027877D01*
X016222Y027723D01*
X016222Y027557D01*
X016286Y027403D01*
X016403Y027286D01*
X016557Y027222D01*
X016723Y027222D01*
X016877Y027286D01*
X016994Y027403D01*
X017058Y027557D01*
X017058Y027723D01*
X016994Y027877D01*
X016880Y027991D01*
X016880Y028738D01*
X016843Y028826D01*
X016493Y029176D01*
X016426Y029243D01*
X016338Y029280D01*
X013442Y029280D01*
X013354Y029243D01*
X013287Y029176D01*
X011468Y027357D01*
X010836Y027989D01*
X010445Y028380D01*
X011193Y028380D01*
X011385Y028459D01*
X011531Y028605D01*
X011610Y028797D01*
X011610Y029003D01*
X011531Y029195D01*
X011385Y029341D01*
X011193Y029420D01*
X010657Y029420D01*
X010727Y029490D01*
X010807Y029685D01*
X010807Y029895D01*
X010727Y030090D01*
X010657Y030160D01*
X011193Y030160D01*
X011385Y030239D01*
X011531Y030385D01*
X011610Y030577D01*
X011610Y030783D01*
X011531Y030975D01*
X011385Y031121D01*
X011193Y031200D01*
X010347Y031200D01*
X010155Y031121D01*
X010009Y030975D01*
X009930Y030783D01*
X009930Y030577D01*
X010009Y030385D01*
X010103Y030291D01*
X009977Y030239D01*
X009828Y030090D01*
X009747Y029895D01*
X009747Y029685D01*
X009772Y029624D01*
X009572Y029424D01*
X009535Y029335D01*
X009535Y028663D01*
X009572Y028575D01*
X009671Y028475D01*
X009630Y028492D01*
X009350Y028492D01*
X009092Y028386D01*
X008894Y028188D01*
X008829Y028030D01*
X007639Y028030D01*
X007180Y028489D01*
X007180Y029041D01*
X007576Y029437D01*
X007643Y029504D01*
X007680Y029592D01*
X007680Y030204D01*
X007787Y030160D01*
X008323Y030160D01*
X008253Y030090D01*
X008173Y029895D01*
X008173Y029685D01*
X008253Y029490D01*
X008323Y029420D01*
X007787Y029420D01*
X007595Y029341D01*
X007449Y029195D01*
X007370Y029003D01*
X007370Y028797D01*
X007449Y028605D01*
X007595Y028459D01*
X007787Y028380D01*
X008633Y028380D01*
X008825Y028459D01*
X008971Y028605D01*
X009050Y028797D01*
X009050Y029003D01*
X008971Y029195D01*
X008877Y029289D01*
X009003Y029341D01*
X009152Y029490D01*
X009233Y029685D01*
X009233Y029895D01*
X009152Y030090D01*
X009003Y030239D01*
X008877Y030291D01*
X008971Y030385D01*
X009050Y030577D01*
X009050Y030783D01*
X008971Y030975D01*
X008825Y031121D01*
X008633Y031200D01*
X007787Y031200D01*
X007680Y031156D01*
X007680Y031388D01*
X007643Y031476D01*
X007443Y031676D01*
X007376Y031743D01*
X007288Y031780D01*
X002342Y031780D01*
X002254Y031743D01*
X001354Y030843D01*
X001287Y030776D01*
X001250Y030688D01*
X001250Y029592D01*
X001287Y029504D01*
X001554Y029236D01*
X001520Y029153D01*
X001520Y028927D01*
X001607Y028717D01*
X001767Y028557D01*
X001808Y028540D01*
X001767Y028523D01*
X001607Y028363D01*
X001520Y028153D01*
X001520Y027927D01*
X001607Y027717D01*
X001767Y027557D01*
X001977Y027470D01*
X002203Y027470D01*
X002413Y027557D01*
X002573Y027717D01*
X002660Y027927D01*
X002660Y028153D01*
X002573Y028363D01*
X002413Y028523D01*
X002372Y028540D01*
X002413Y028557D01*
X002573Y028717D01*
X002660Y028927D01*
X002660Y029153D01*
X002573Y029363D01*
X002413Y029523D01*
X002372Y029540D01*
X002413Y029557D01*
X002573Y029717D01*
X002608Y029800D01*
X002791Y029800D01*
X003300Y029291D01*
X003300Y027842D01*
X003337Y027754D01*
X003837Y027254D01*
X003904Y027187D01*
X003992Y027150D01*
X004150Y027150D01*
X004150Y025689D01*
X003754Y025293D01*
X003687Y025226D01*
X003650Y025138D01*
X003650Y025039D01*
X003504Y024893D01*
X003437Y024826D01*
X003400Y024738D01*
X003400Y022189D01*
X003191Y021980D01*
X002342Y021980D01*
X002254Y021943D01*
X000587Y020276D01*
X000550Y020188D01*
X000550Y009392D01*
X000587Y009304D01*
X000654Y009237D01*
X000800Y009091D01*
X000800Y007942D01*
X000837Y007854D01*
X001450Y007241D01*
X001450Y006792D01*
X001487Y006704D01*
X001737Y006454D01*
X001804Y006387D01*
X001892Y006350D01*
X002991Y006350D01*
X003232Y006108D01*
X003157Y006108D01*
X003003Y006044D01*
X002886Y005927D01*
X002822Y005773D01*
X002822Y005607D01*
X002886Y005453D01*
X003003Y005336D01*
X003157Y005272D01*
X003236Y005272D01*
X003236Y004360D01*
X003236Y004313D01*
X003236Y004312D01*
X003254Y004268D01*
X003272Y004224D02*
X003272Y004224D01*
X003272Y004224D01*
X003236Y004312D02*
X003236Y004312D01*
X003236Y004444D02*
X002321Y004444D01*
X002201Y004603D02*
X003236Y004603D01*
X003236Y004761D02*
X002100Y004761D01*
X001999Y004920D02*
X003236Y004920D01*
X003236Y005078D02*
X001898Y005078D01*
X001797Y005237D02*
X003236Y005237D01*
X002944Y005395D02*
X001708Y005395D01*
X001626Y005554D02*
X002844Y005554D01*
X002822Y005712D02*
X001543Y005712D01*
X001461Y005871D02*
X002862Y005871D01*
X002988Y006029D02*
X001378Y006029D01*
X001313Y006188D02*
X003153Y006188D01*
X002995Y006346D02*
X001247Y006346D01*
X001182Y006505D02*
X001686Y006505D01*
X001528Y006663D02*
X001116Y006663D01*
X001053Y006822D02*
X001450Y006822D01*
X001450Y006980D02*
X001003Y006980D01*
X000953Y007139D02*
X001450Y007139D01*
X001394Y007297D02*
X000903Y007297D01*
X000853Y007456D02*
X001235Y007456D01*
X001077Y007614D02*
X000806Y007614D01*
X000771Y007773D02*
X000918Y007773D01*
X000805Y007931D02*
X000736Y007931D01*
X000701Y008090D02*
X000800Y008090D01*
X000800Y008248D02*
X000666Y008248D01*
X000632Y008407D02*
X000800Y008407D01*
X000800Y008565D02*
X000611Y008565D01*
X000590Y008724D02*
X000800Y008724D01*
X000800Y008882D02*
X000570Y008882D01*
X000549Y009041D02*
X000800Y009041D01*
X000692Y009199D02*
X000528Y009199D01*
X000654Y009237D02*
X000654Y009237D01*
X000564Y009358D02*
X000520Y009358D01*
X000513Y009516D02*
X000550Y009516D01*
X000550Y009675D02*
X000506Y009675D01*
X000499Y009833D02*
X000550Y009833D01*
X000550Y009992D02*
X000492Y009992D01*
X000490Y010150D02*
X000550Y010150D01*
X000550Y010309D02*
X000490Y010309D01*
X000490Y010467D02*
X000550Y010467D01*
X000550Y010626D02*
X000490Y010626D01*
X000490Y010784D02*
X000550Y010784D01*
X000550Y010943D02*
X000490Y010943D01*
X000490Y011101D02*
X000550Y011101D01*
X000550Y011260D02*
X000490Y011260D01*
X000490Y011418D02*
X000550Y011418D01*
X000550Y011577D02*
X000490Y011577D01*
X000490Y011735D02*
X000550Y011735D01*
X000550Y011894D02*
X000490Y011894D01*
X000490Y012052D02*
X000550Y012052D01*
X000550Y012211D02*
X000490Y012211D01*
X000490Y012369D02*
X000550Y012369D01*
X000550Y012528D02*
X000490Y012528D01*
X000490Y012686D02*
X000550Y012686D01*
X000550Y012845D02*
X000490Y012845D01*
X000490Y013003D02*
X000550Y013003D01*
X000550Y013162D02*
X000490Y013162D01*
X000490Y013320D02*
X000550Y013320D01*
X000550Y013479D02*
X000490Y013479D01*
X000490Y013637D02*
X000550Y013637D01*
X000550Y013796D02*
X000490Y013796D01*
X000490Y013954D02*
X000550Y013954D01*
X000550Y014113D02*
X000490Y014113D01*
X000490Y014271D02*
X000550Y014271D01*
X000550Y014430D02*
X000490Y014430D01*
X000490Y014588D02*
X000550Y014588D01*
X000550Y014747D02*
X000490Y014747D01*
X000490Y014905D02*
X000550Y014905D01*
X000550Y015064D02*
X000490Y015064D01*
X000490Y015222D02*
X000550Y015222D01*
X000550Y015381D02*
X000490Y015381D01*
X000490Y015539D02*
X000550Y015539D01*
X000550Y015698D02*
X000490Y015698D01*
X000490Y015856D02*
X000550Y015856D01*
X000550Y016015D02*
X000490Y016015D01*
X000490Y016173D02*
X000550Y016173D01*
X000550Y016332D02*
X000490Y016332D01*
X000490Y016490D02*
X000550Y016490D01*
X000550Y016649D02*
X000490Y016649D01*
X000490Y016807D02*
X000550Y016807D01*
X000550Y016966D02*
X000490Y016966D01*
X000490Y017124D02*
X000550Y017124D01*
X000550Y017283D02*
X000490Y017283D01*
X000490Y017441D02*
X000550Y017441D01*
X000550Y017600D02*
X000490Y017600D01*
X000490Y017758D02*
X000550Y017758D01*
X000550Y017917D02*
X000490Y017917D01*
X000490Y018075D02*
X000550Y018075D01*
X000550Y018234D02*
X000490Y018234D01*
X000490Y018392D02*
X000550Y018392D01*
X000550Y018551D02*
X000490Y018551D01*
X000490Y018709D02*
X000550Y018709D01*
X000550Y018868D02*
X000490Y018868D01*
X000490Y019026D02*
X000550Y019026D01*
X000550Y019185D02*
X000490Y019185D01*
X000490Y019343D02*
X000550Y019343D01*
X000550Y019502D02*
X000490Y019502D01*
X000490Y019660D02*
X000550Y019660D01*
X000550Y019819D02*
X000490Y019819D01*
X000490Y019977D02*
X000550Y019977D01*
X000550Y020136D02*
X000490Y020136D01*
X000490Y020294D02*
X000605Y020294D01*
X000490Y020453D02*
X000763Y020453D01*
X000922Y020611D02*
X000490Y020611D01*
X000490Y020770D02*
X001080Y020770D01*
X001239Y020928D02*
X000490Y020928D01*
X000490Y021087D02*
X001397Y021087D01*
X001556Y021245D02*
X000490Y021245D01*
X000490Y021404D02*
X001714Y021404D01*
X001873Y021562D02*
X000490Y021562D01*
X000490Y021721D02*
X002031Y021721D01*
X002190Y021879D02*
X000490Y021879D01*
X000490Y022038D02*
X003248Y022038D01*
X003400Y022196D02*
X001987Y022196D01*
X003134Y022355D02*
X003400Y022355D01*
X003400Y022513D02*
X003134Y022513D01*
X003134Y022672D02*
X003400Y022672D01*
X003400Y022830D02*
X003134Y022830D01*
X003134Y022989D02*
X003400Y022989D01*
X003400Y023147D02*
X003134Y023147D01*
X003134Y023306D02*
X003400Y023306D01*
X003400Y023464D02*
X003134Y023464D01*
X003134Y023623D02*
X003400Y023623D01*
X003400Y023781D02*
X003134Y023781D01*
X003134Y023940D02*
X003400Y023940D01*
X003400Y024098D02*
X003134Y024098D01*
X003134Y024257D02*
X003400Y024257D01*
X003400Y024415D02*
X003134Y024415D01*
X003134Y024574D02*
X003400Y024574D01*
X003400Y024732D02*
X003134Y024732D01*
X003134Y024891D02*
X003501Y024891D01*
X003650Y025049D02*
X003134Y025049D01*
X003134Y025208D02*
X003679Y025208D01*
X003827Y025366D02*
X003134Y025366D01*
X003010Y025525D02*
X003985Y025525D01*
X004144Y025683D02*
X002488Y025683D01*
X001966Y025842D02*
X004150Y025842D01*
X004150Y026000D02*
X001444Y026000D01*
X000923Y026159D02*
X004150Y026159D01*
X004150Y026317D02*
X000490Y026317D01*
X000490Y026476D02*
X004150Y026476D01*
X004150Y026634D02*
X000490Y026634D01*
X000490Y026793D02*
X004150Y026793D01*
X004150Y026951D02*
X000490Y026951D01*
X000490Y027110D02*
X004150Y027110D01*
X003823Y027268D02*
X000490Y027268D01*
X000490Y027427D02*
X003664Y027427D01*
X003506Y027585D02*
X002441Y027585D01*
X002584Y027744D02*
X003347Y027744D01*
X003300Y027902D02*
X002650Y027902D01*
X002660Y028061D02*
X003300Y028061D01*
X003300Y028219D02*
X002633Y028219D01*
X002559Y028378D02*
X003300Y028378D01*
X003300Y028536D02*
X002382Y028536D01*
X002551Y028695D02*
X003300Y028695D01*
X003300Y028853D02*
X002630Y028853D01*
X002660Y029012D02*
X003300Y029012D01*
X003300Y029170D02*
X002653Y029170D01*
X002587Y029329D02*
X003262Y029329D01*
X003104Y029487D02*
X002449Y029487D01*
X002502Y029646D02*
X002945Y029646D01*
X003750Y029510D02*
X003953Y029510D01*
X004163Y029597D01*
X004323Y029757D01*
X004352Y029826D01*
X004370Y029792D01*
X004420Y029722D01*
X004482Y029660D01*
X004552Y029610D01*
X004629Y029570D01*
X004711Y029544D01*
X004797Y029530D01*
X004810Y029530D01*
X004810Y030420D01*
X004870Y030420D01*
X004870Y029530D01*
X004883Y029530D01*
X004969Y029544D01*
X005051Y029570D01*
X005128Y029610D01*
X005198Y029660D01*
X005260Y029722D01*
X005310Y029792D01*
X005328Y029826D01*
X005357Y029757D01*
X005380Y029734D01*
X004088Y028442D01*
X003947Y028442D01*
X003800Y028381D01*
X003780Y028360D01*
X003780Y029438D01*
X003750Y029510D01*
X003760Y029487D02*
X005133Y029487D01*
X005178Y029646D02*
X005292Y029646D01*
X005317Y029804D02*
X005337Y029804D01*
X004870Y029804D02*
X004810Y029804D01*
X004810Y029646D02*
X004870Y029646D01*
X004870Y029963D02*
X004810Y029963D01*
X004810Y030121D02*
X004870Y030121D01*
X004870Y030280D02*
X004810Y030280D01*
X004363Y029804D02*
X004343Y029804D01*
X004212Y029646D02*
X004502Y029646D01*
X004816Y029170D02*
X003780Y029170D01*
X003780Y029012D02*
X004658Y029012D01*
X004499Y028853D02*
X003780Y028853D01*
X003780Y028695D02*
X004341Y028695D01*
X004182Y028536D02*
X003780Y028536D01*
X003780Y028378D02*
X003797Y028378D01*
X003780Y029329D02*
X004975Y029329D01*
X005336Y029012D02*
X006700Y029012D01*
X006700Y029092D02*
X006700Y028342D01*
X006737Y028254D01*
X006804Y028187D01*
X007404Y027587D01*
X007492Y027550D01*
X008829Y027550D01*
X008894Y027392D01*
X009092Y027194D01*
X009350Y027088D01*
X009630Y027088D01*
X009686Y027111D01*
X007117Y024541D01*
X006930Y024541D01*
X006958Y024596D01*
X006983Y024672D01*
X006995Y024750D01*
X006995Y024790D01*
X006995Y024830D01*
X006983Y024908D01*
X006958Y024984D01*
X006922Y025055D01*
X006875Y025119D01*
X006819Y025175D01*
X006755Y025222D01*
X006684Y025258D01*
X006608Y025283D01*
X006530Y025295D01*
X006490Y025295D01*
X006490Y024790D01*
X006490Y024790D01*
X006995Y024790D01*
X006490Y024790D01*
X006490Y024790D01*
X006490Y024790D01*
X005985Y024790D01*
X005985Y024830D01*
X005997Y024908D01*
X006022Y024984D01*
X006058Y025055D01*
X006105Y025119D01*
X006161Y025175D01*
X006225Y025222D01*
X006296Y025258D01*
X006372Y025283D01*
X006450Y025295D01*
X006490Y025295D01*
X006490Y024790D01*
X005985Y024790D01*
X005985Y024750D01*
X005997Y024672D01*
X006022Y024596D01*
X006050Y024541D01*
X005741Y024541D01*
X005628Y024654D01*
X005561Y024721D01*
X005561Y024721D01*
X005250Y025032D01*
X005238Y025776D01*
X005313Y025807D01*
X005473Y025967D01*
X005560Y026177D01*
X005560Y026403D01*
X005473Y026613D01*
X005313Y026773D01*
X005244Y026802D01*
X005278Y026820D01*
X005348Y026870D01*
X005410Y026932D01*
X005460Y027002D01*
X005500Y027079D01*
X005526Y027161D01*
X005540Y027247D01*
X005540Y027270D01*
X005010Y027270D01*
X005010Y027310D01*
X005540Y027310D01*
X005540Y027333D01*
X005526Y027419D01*
X005500Y027501D01*
X005460Y027578D01*
X005410Y027648D01*
X005348Y027710D01*
X005278Y027760D01*
X005244Y027778D01*
X005313Y027807D01*
X005473Y027967D01*
X005560Y028177D01*
X005560Y028403D01*
X005473Y028613D01*
X005313Y028773D01*
X005161Y028836D01*
X005835Y029510D01*
X005953Y029510D01*
X006163Y029597D01*
X006323Y029757D01*
X006340Y029798D01*
X006357Y029757D01*
X006517Y029597D01*
X006727Y029510D01*
X006953Y029510D01*
X006983Y029522D01*
X006737Y029276D01*
X006700Y029188D01*
X006700Y029092D01*
X006700Y029170D02*
X005495Y029170D01*
X005653Y029329D02*
X006789Y029329D01*
X006948Y029487D02*
X005812Y029487D01*
X006212Y029646D02*
X006468Y029646D01*
X006700Y028853D02*
X005178Y028853D01*
X005392Y028695D02*
X006700Y028695D01*
X006700Y028536D02*
X005505Y028536D01*
X005560Y028378D02*
X006700Y028378D01*
X006772Y028219D02*
X005560Y028219D01*
X005512Y028061D02*
X006930Y028061D01*
X007089Y027902D02*
X005408Y027902D01*
X005301Y027744D02*
X007247Y027744D01*
X007408Y027585D02*
X005455Y027585D01*
X005524Y027427D02*
X008880Y027427D01*
X009018Y027268D02*
X005540Y027268D01*
X005510Y027110D02*
X009297Y027110D01*
X009368Y026793D02*
X007766Y026793D01*
X007813Y026773D02*
X007603Y026860D01*
X007377Y026860D01*
X007167Y026773D01*
X007007Y026613D01*
X006920Y026403D01*
X006920Y026177D01*
X007007Y025967D01*
X007167Y025807D01*
X007377Y025720D01*
X007603Y025720D01*
X007813Y025807D01*
X007973Y025967D01*
X008060Y026177D01*
X008060Y026403D01*
X007973Y026613D01*
X007813Y026773D01*
X007952Y026634D02*
X009209Y026634D01*
X009051Y026476D02*
X008030Y026476D01*
X008060Y026317D02*
X008892Y026317D01*
X008734Y026159D02*
X008053Y026159D01*
X007987Y026000D02*
X008575Y026000D01*
X008417Y025842D02*
X007848Y025842D01*
X008100Y025525D02*
X005242Y025525D01*
X005240Y025683D02*
X008258Y025683D01*
X007941Y025366D02*
X005244Y025366D01*
X005247Y025208D02*
X006206Y025208D01*
X006055Y025049D02*
X005249Y025049D01*
X005391Y024891D02*
X005995Y024891D01*
X005988Y024732D02*
X005550Y024732D01*
X005628Y024654D02*
X005628Y024654D01*
X005708Y024574D02*
X006034Y024574D01*
X006490Y024891D02*
X006490Y024891D01*
X006490Y025049D02*
X006490Y025049D01*
X006490Y025208D02*
X006490Y025208D01*
X006774Y025208D02*
X007783Y025208D01*
X007624Y025049D02*
X006925Y025049D01*
X006985Y024891D02*
X007466Y024891D01*
X007307Y024732D02*
X006992Y024732D01*
X006946Y024574D02*
X007149Y024574D01*
X007511Y024257D02*
X009030Y024257D01*
X009092Y024194D02*
X009350Y024088D01*
X009630Y024088D01*
X009740Y024133D01*
X008759Y023152D01*
X008677Y023186D01*
X008510Y023186D01*
X008356Y023122D01*
X008238Y023004D01*
X008174Y022850D01*
X008174Y022682D01*
X008238Y022528D01*
X008356Y022410D01*
X008510Y022346D01*
X008677Y022346D01*
X008792Y022393D01*
X008845Y022264D01*
X008958Y022151D01*
X009105Y022090D01*
X009264Y022090D01*
X009411Y022151D01*
X009417Y022157D01*
X009417Y021970D01*
X009453Y021882D01*
X009833Y021503D01*
X009813Y021496D01*
X009749Y021463D01*
X009690Y021421D01*
X009639Y021370D01*
X009597Y021311D01*
X009564Y021247D01*
X009541Y021178D01*
X009530Y021106D01*
X009530Y020790D01*
X009990Y020790D01*
X009990Y020050D01*
X010026Y020050D01*
X010098Y020061D01*
X010167Y020084D01*
X010231Y020117D01*
X010290Y020159D01*
X010341Y020210D01*
X010357Y020233D01*
X010359Y020228D01*
X011028Y019559D01*
X011096Y019492D01*
X011184Y019455D01*
X011240Y019455D01*
X011225Y019420D01*
X011225Y019261D01*
X011286Y019114D01*
X011399Y019002D01*
X011546Y018941D01*
X011705Y018941D01*
X011852Y019002D01*
X011951Y019101D01*
X012008Y019101D01*
X012108Y019002D01*
X012255Y018941D01*
X012414Y018941D01*
X012561Y019002D01*
X012673Y019114D01*
X012679Y019129D01*
X013076Y018732D01*
X013076Y018592D01*
X013095Y018546D01*
X013085Y018550D01*
X012895Y018550D01*
X012718Y018477D01*
X012583Y018342D01*
X012510Y018165D01*
X012510Y017415D01*
X012583Y017238D01*
X012718Y017103D01*
X012895Y017030D01*
X013085Y017030D01*
X013262Y017103D01*
X013397Y017238D01*
X013470Y017415D01*
X013470Y018165D01*
X013426Y018271D01*
X013554Y018271D01*
X013510Y018165D01*
X013510Y017415D01*
X013583Y017238D01*
X013718Y017103D01*
X013895Y017030D01*
X014085Y017030D01*
X014262Y017103D01*
X014397Y017238D01*
X014470Y017415D01*
X014470Y018165D01*
X014397Y018342D01*
X014262Y018477D01*
X014085Y018550D01*
X013895Y018550D01*
X013851Y018532D01*
X013876Y018592D01*
X013876Y018641D01*
X013891Y018626D01*
X013979Y018589D01*
X014439Y018589D01*
X014493Y018536D01*
X014560Y018468D01*
X014649Y018431D01*
X014673Y018431D01*
X014583Y018342D01*
X014510Y018165D01*
X014510Y017415D01*
X014583Y017238D01*
X014718Y017103D01*
X014858Y017045D01*
X014850Y017026D01*
X014850Y016931D01*
X014887Y016843D01*
X014954Y016775D01*
X015042Y016739D01*
X015132Y016739D01*
X015007Y016613D01*
X014920Y016403D01*
X014920Y016177D01*
X015007Y015967D01*
X015167Y015807D01*
X015377Y015720D01*
X015603Y015720D01*
X015696Y015758D01*
X015328Y015390D01*
X015289Y015484D01*
X015170Y015602D01*
X015016Y015666D01*
X014849Y015666D01*
X014695Y015602D01*
X014579Y015486D01*
X014184Y015486D01*
X014068Y015602D01*
X013914Y015666D01*
X013747Y015666D01*
X013592Y015602D01*
X013474Y015484D01*
X013470Y015474D01*
X013470Y015665D01*
X013439Y015740D01*
X013478Y015756D01*
X013596Y015875D01*
X013660Y016029D01*
X013660Y016196D01*
X013596Y016350D01*
X013478Y016468D01*
X013323Y016532D01*
X013156Y016532D01*
X013002Y016468D01*
X012886Y016352D01*
X012748Y016352D01*
X012071Y017030D01*
X012085Y017030D01*
X012262Y017103D01*
X012397Y017238D01*
X012470Y017415D01*
X012470Y018165D01*
X012397Y018342D01*
X012262Y018477D01*
X012085Y018550D01*
X011895Y018550D01*
X011718Y018477D01*
X011583Y018342D01*
X011510Y018165D01*
X011510Y017591D01*
X011470Y017631D01*
X011470Y018165D01*
X011397Y018342D01*
X011262Y018477D01*
X011085Y018550D01*
X010895Y018550D01*
X010718Y018477D01*
X010583Y018342D01*
X010510Y018165D01*
X010510Y017567D01*
X010470Y017607D01*
X010470Y018165D01*
X010397Y018342D01*
X010262Y018477D01*
X010085Y018550D01*
X009895Y018550D01*
X009718Y018477D01*
X009583Y018342D01*
X009510Y018165D01*
X009510Y017415D01*
X009513Y017408D01*
X009429Y017373D01*
X009439Y017402D01*
X009450Y017474D01*
X009450Y017790D01*
X009450Y018106D01*
X009439Y018178D01*
X009416Y018247D01*
X009383Y018311D01*
X009341Y018370D01*
X009290Y018421D01*
X009274Y018432D01*
X009366Y018524D01*
X009427Y018671D01*
X009427Y018811D01*
X009439Y018823D01*
X009579Y018823D01*
X009726Y018884D01*
X009839Y018996D01*
X009899Y019143D01*
X009899Y019302D01*
X009839Y019449D01*
X009726Y019562D01*
X009579Y019623D01*
X009420Y019623D01*
X009273Y019562D01*
X009160Y019449D01*
X009099Y019302D01*
X009099Y019162D01*
X009088Y019150D01*
X008947Y019150D01*
X008800Y019089D01*
X008688Y018977D01*
X008627Y018830D01*
X008627Y018671D01*
X008688Y018524D01*
X008748Y018463D01*
X008690Y018421D01*
X008639Y018370D01*
X008597Y018311D01*
X008564Y018247D01*
X008541Y018178D01*
X008530Y018106D01*
X008530Y017790D01*
X008990Y017790D01*
X009450Y017790D01*
X008990Y017790D01*
X008990Y017790D01*
X008990Y017050D01*
X009026Y017050D01*
X009098Y017061D01*
X009167Y017084D01*
X009224Y017113D01*
X009218Y017098D01*
X009218Y016957D01*
X009206Y016946D01*
X009066Y016946D01*
X008919Y016885D01*
X008806Y016772D01*
X008745Y016625D01*
X008745Y016466D01*
X008806Y016319D01*
X008919Y016206D01*
X009066Y016146D01*
X009225Y016146D01*
X009372Y016206D01*
X009484Y016319D01*
X009545Y016466D01*
X009545Y016606D01*
X009557Y016618D01*
X009697Y016618D01*
X009844Y016679D01*
X009957Y016791D01*
X010018Y016938D01*
X010018Y017030D01*
X010085Y017030D01*
X010262Y017103D01*
X010279Y017120D01*
X010623Y016775D01*
X010712Y016739D01*
X011211Y016739D01*
X011900Y016050D01*
X011895Y016050D01*
X011718Y015977D01*
X011583Y015842D01*
X011510Y015665D01*
X011510Y014915D01*
X011583Y014738D01*
X011718Y014603D01*
X011895Y014530D01*
X012085Y014530D01*
X012262Y014603D01*
X012315Y014656D01*
X012337Y014604D01*
X012404Y014537D01*
X012704Y014237D01*
X012792Y014200D01*
X013041Y014200D01*
X013324Y013916D01*
X013223Y013958D01*
X013057Y013958D01*
X012903Y013894D01*
X012789Y013780D01*
X012639Y013780D01*
X012458Y013961D01*
X012458Y014123D01*
X012394Y014277D01*
X012277Y014394D01*
X012123Y014458D01*
X011957Y014458D01*
X011803Y014394D01*
X011686Y014277D01*
X011622Y014123D01*
X011622Y014014D01*
X011435Y014201D01*
X011435Y014342D01*
X011374Y014489D01*
X011261Y014601D01*
X011259Y014602D01*
X011262Y014603D01*
X011397Y014738D01*
X011470Y014915D01*
X011470Y015665D01*
X011397Y015842D01*
X011262Y015977D01*
X011085Y016050D01*
X010895Y016050D01*
X010718Y015977D01*
X010583Y015842D01*
X010510Y015665D01*
X010510Y014915D01*
X010583Y014738D01*
X010718Y014603D01*
X010783Y014576D01*
X010696Y014489D01*
X010635Y014342D01*
X010635Y014182D01*
X010696Y014035D01*
X010808Y013923D01*
X010955Y013862D01*
X011095Y013862D01*
X011411Y013547D01*
X011499Y013510D01*
X011684Y013510D01*
X011973Y013220D01*
X011973Y013080D01*
X011986Y013050D01*
X011895Y013050D01*
X011718Y012977D01*
X011583Y012842D01*
X011510Y012665D01*
X011510Y011949D01*
X011466Y011906D01*
X011470Y011915D01*
X011470Y012665D01*
X011397Y012842D01*
X011262Y012977D01*
X011085Y013050D01*
X010895Y013050D01*
X010718Y012977D01*
X010583Y012842D01*
X010510Y012665D01*
X010510Y011915D01*
X010583Y011738D01*
X010718Y011603D01*
X010774Y011580D01*
X010489Y011580D01*
X010443Y011626D01*
X010376Y011693D01*
X010339Y011709D01*
X010341Y011710D01*
X010383Y011769D01*
X010416Y011833D01*
X010439Y011902D01*
X010450Y011974D01*
X010450Y012290D01*
X010450Y012606D01*
X010439Y012678D01*
X010416Y012747D01*
X010383Y012811D01*
X010341Y012870D01*
X010290Y012921D01*
X010231Y012963D01*
X010167Y012996D01*
X010098Y013019D01*
X010026Y013030D01*
X009990Y013030D01*
X009990Y012290D01*
X009990Y012290D01*
X010450Y012290D01*
X009990Y012290D01*
X009990Y012290D01*
X009990Y012290D01*
X009530Y012290D01*
X009530Y012606D01*
X009541Y012678D01*
X009564Y012747D01*
X009597Y012811D01*
X009639Y012870D01*
X009690Y012921D01*
X009749Y012963D01*
X009813Y012996D01*
X009882Y013019D01*
X009954Y013030D01*
X009990Y013030D01*
X009990Y012290D01*
X009530Y012290D01*
X009530Y011974D01*
X009541Y011902D01*
X009564Y011833D01*
X009597Y011769D01*
X009625Y011730D01*
X009355Y011730D01*
X009383Y011769D01*
X009416Y011833D01*
X009439Y011902D01*
X009450Y011974D01*
X009450Y012290D01*
X009450Y012606D01*
X009439Y012678D01*
X009416Y012747D01*
X009383Y012811D01*
X009341Y012870D01*
X009290Y012921D01*
X009231Y012963D01*
X009167Y012996D01*
X009098Y013019D01*
X009026Y013030D01*
X008990Y013030D01*
X008990Y012290D01*
X008990Y012290D01*
X009450Y012290D01*
X008990Y012290D01*
X008990Y012290D01*
X008990Y012290D01*
X008530Y012290D01*
X008530Y012606D01*
X008541Y012678D01*
X008564Y012747D01*
X008597Y012811D01*
X008639Y012870D01*
X008690Y012921D01*
X008749Y012963D01*
X008813Y012996D01*
X008882Y013019D01*
X008954Y013030D01*
X008990Y013030D01*
X008990Y012290D01*
X008530Y012290D01*
X008530Y011974D01*
X008541Y011902D01*
X008564Y011833D01*
X008597Y011769D01*
X008625Y011730D01*
X008389Y011730D01*
X008397Y011738D01*
X008470Y011915D01*
X008470Y012665D01*
X008397Y012842D01*
X008262Y012977D01*
X008085Y013050D01*
X007895Y013050D01*
X007718Y012977D01*
X007583Y012842D01*
X007510Y012665D01*
X007510Y011915D01*
X007583Y011738D01*
X007591Y011730D01*
X007389Y011730D01*
X007397Y011738D01*
X007470Y011915D01*
X007470Y012665D01*
X007397Y012842D01*
X007262Y012977D01*
X007230Y012990D01*
X007230Y013091D01*
X008239Y014100D01*
X008387Y014100D01*
X008485Y014002D01*
X008632Y013941D01*
X008792Y013941D01*
X008788Y013930D01*
X008788Y013650D01*
X008894Y013392D01*
X009092Y013194D01*
X009350Y013088D01*
X009630Y013088D01*
X009888Y013194D01*
X010086Y013392D01*
X010192Y013650D01*
X010192Y013930D01*
X010086Y014188D01*
X009888Y014386D01*
X009630Y014492D01*
X009350Y014492D01*
X009112Y014394D01*
X009112Y014420D01*
X009056Y014555D01*
X009098Y014561D01*
X009167Y014584D01*
X009231Y014617D01*
X009290Y014659D01*
X009341Y014710D01*
X009383Y014769D01*
X009416Y014833D01*
X009439Y014902D01*
X009450Y014974D01*
X009450Y015290D01*
X009450Y015606D01*
X009439Y015678D01*
X009416Y015747D01*
X009383Y015811D01*
X009341Y015870D01*
X009290Y015921D01*
X009231Y015963D01*
X009167Y015996D01*
X009098Y016019D01*
X009026Y016030D01*
X008990Y016030D01*
X008990Y015290D01*
X008990Y015290D01*
X009450Y015290D01*
X008990Y015290D01*
X008990Y015290D01*
X008990Y015290D01*
X008530Y015290D01*
X008530Y015606D01*
X008541Y015678D01*
X008564Y015747D01*
X008597Y015811D01*
X008639Y015870D01*
X008690Y015921D01*
X008749Y015963D01*
X008813Y015996D01*
X008882Y016019D01*
X008954Y016030D01*
X008990Y016030D01*
X008990Y015290D01*
X008530Y015290D01*
X008530Y014974D01*
X008541Y014902D01*
X008564Y014833D01*
X008597Y014769D01*
X008621Y014736D01*
X008485Y014680D01*
X008386Y014580D01*
X008206Y014580D01*
X008262Y014603D01*
X008397Y014738D01*
X008470Y014915D01*
X008470Y015665D01*
X008397Y015842D01*
X008262Y015977D01*
X008085Y016050D01*
X007895Y016050D01*
X007718Y015977D01*
X007653Y015912D01*
X007653Y016200D01*
X007616Y016288D01*
X006860Y017044D01*
X006895Y017030D01*
X007085Y017030D01*
X007262Y017103D01*
X007397Y017238D01*
X007470Y017415D01*
X007470Y018165D01*
X007410Y018311D01*
X007414Y018311D01*
X007561Y018372D01*
X007673Y018484D01*
X007734Y018631D01*
X007734Y018790D01*
X007673Y018937D01*
X007561Y019050D01*
X007414Y019111D01*
X007255Y019111D01*
X007153Y019069D01*
X006557Y019069D01*
X006458Y019168D01*
X006311Y019229D01*
X006152Y019229D01*
X006005Y019168D01*
X005893Y019056D01*
X005887Y019041D01*
X005545Y019383D01*
X005671Y019435D01*
X005770Y019534D01*
X006516Y019534D01*
X006604Y019570D01*
X006671Y019638D01*
X007064Y020030D01*
X007085Y020030D01*
X007262Y020103D01*
X007397Y020238D01*
X007470Y020415D01*
X007470Y021165D01*
X007397Y021342D01*
X007262Y021477D01*
X007085Y021550D01*
X006895Y021550D01*
X006718Y021477D01*
X006583Y021342D01*
X006510Y021165D01*
X006510Y020415D01*
X006583Y020238D01*
X006588Y020233D01*
X006369Y020014D01*
X005770Y020014D01*
X005671Y020113D01*
X005524Y020174D01*
X005365Y020174D01*
X005310Y020151D01*
X005397Y020238D01*
X005470Y020415D01*
X005470Y021165D01*
X005397Y021342D01*
X005262Y021477D01*
X005085Y021550D01*
X004895Y021550D01*
X004718Y021477D01*
X004714Y021473D01*
X004399Y021788D01*
X004311Y021825D01*
X004052Y021825D01*
X004080Y021892D01*
X004080Y022086D01*
X004191Y022197D01*
X004228Y022285D01*
X004228Y022537D01*
X004257Y022467D01*
X004417Y022307D01*
X004627Y022220D01*
X004769Y022079D01*
X004769Y021938D01*
X004830Y021791D01*
X004942Y021679D01*
X005089Y021618D01*
X005248Y021618D01*
X005395Y021679D01*
X005508Y021791D01*
X005569Y021938D01*
X005569Y022087D01*
X005639Y022016D01*
X005794Y021952D01*
X005961Y021952D01*
X006115Y022016D01*
X006127Y022028D01*
X006127Y021895D01*
X006191Y021741D01*
X006309Y021623D01*
X006463Y021559D01*
X006630Y021559D01*
X006785Y021623D01*
X006903Y021741D01*
X006967Y021895D01*
X006967Y022007D01*
X007159Y021814D01*
X007247Y021778D01*
X007668Y021778D01*
X007896Y021550D01*
X007895Y021550D01*
X007718Y021477D01*
X007583Y021342D01*
X007510Y021165D01*
X007510Y020415D01*
X007583Y020238D01*
X007718Y020103D01*
X007895Y020030D01*
X008085Y020030D01*
X008262Y020103D01*
X008397Y020238D01*
X008470Y020415D01*
X008470Y020976D01*
X008510Y020936D01*
X008510Y020415D01*
X008583Y020238D01*
X008718Y020103D01*
X008895Y020030D01*
X009085Y020030D01*
X009262Y020103D01*
X009397Y020238D01*
X009470Y020415D01*
X009470Y021165D01*
X009397Y021342D01*
X009262Y021477D01*
X009085Y021550D01*
X008895Y021550D01*
X008718Y021477D01*
X008683Y021442D01*
X007971Y022154D01*
X007903Y022221D01*
X007815Y022258D01*
X007632Y022258D01*
X007701Y022280D01*
X007778Y022320D01*
X007848Y022370D01*
X007910Y022432D01*
X007960Y022502D01*
X008000Y022579D01*
X008026Y022661D01*
X008040Y022747D01*
X008040Y022781D01*
X007499Y022781D01*
X007499Y022799D01*
X007481Y022799D01*
X007481Y023340D01*
X007447Y023340D01*
X007361Y023326D01*
X007279Y023300D01*
X007202Y023260D01*
X007132Y023210D01*
X007070Y023148D01*
X007020Y023078D01*
X006980Y023001D01*
X006954Y022919D01*
X006940Y022833D01*
X006940Y022799D01*
X007481Y022799D01*
X007481Y022781D01*
X006940Y022781D01*
X006940Y022747D01*
X006947Y022706D01*
X006747Y022905D01*
X006747Y023328D01*
X006787Y023345D01*
X006935Y023493D01*
X007015Y023686D01*
X007015Y023894D01*
X006946Y024061D01*
X007264Y024061D01*
X007352Y024098D01*
X009325Y024098D01*
X009546Y023940D02*
X006996Y023940D01*
X007015Y023781D02*
X009388Y023781D01*
X009229Y023623D02*
X006989Y023623D01*
X006906Y023464D02*
X009071Y023464D01*
X008912Y023306D02*
X007683Y023306D01*
X007701Y023300D02*
X007619Y023326D01*
X007533Y023340D01*
X007499Y023340D01*
X007499Y022799D01*
X008040Y022799D01*
X008040Y022833D01*
X008026Y022919D01*
X008000Y023001D01*
X007960Y023078D01*
X007910Y023148D01*
X007848Y023210D01*
X007778Y023260D01*
X007701Y023300D01*
X007499Y023306D02*
X007481Y023306D01*
X007481Y023147D02*
X007499Y023147D01*
X007499Y022989D02*
X007481Y022989D01*
X007481Y022830D02*
X007499Y022830D01*
X007297Y023306D02*
X006747Y023306D01*
X006747Y023147D02*
X007070Y023147D01*
X006976Y022989D02*
X006747Y022989D01*
X006822Y022830D02*
X006940Y022830D01*
X006960Y021879D02*
X007094Y021879D01*
X006883Y021721D02*
X007725Y021721D01*
X007884Y021562D02*
X006639Y021562D01*
X006645Y021404D02*
X006335Y021404D01*
X006397Y021342D02*
X006262Y021477D01*
X006085Y021550D01*
X005895Y021550D01*
X005718Y021477D01*
X005583Y021342D01*
X005510Y021165D01*
X005510Y020415D01*
X005583Y020238D01*
X005718Y020103D01*
X005895Y020030D01*
X006085Y020030D01*
X006262Y020103D01*
X006397Y020238D01*
X006470Y020415D01*
X006470Y021165D01*
X006397Y021342D01*
X006437Y021245D02*
X006543Y021245D01*
X006510Y021087D02*
X006470Y021087D01*
X006470Y020928D02*
X006510Y020928D01*
X006510Y020770D02*
X006470Y020770D01*
X006470Y020611D02*
X006510Y020611D01*
X006510Y020453D02*
X006470Y020453D01*
X006420Y020294D02*
X006560Y020294D01*
X006490Y020136D02*
X006294Y020136D01*
X006694Y019660D02*
X008008Y019660D01*
X008019Y019685D02*
X007958Y019538D01*
X007958Y019379D01*
X008019Y019232D01*
X008118Y019133D01*
X008118Y018771D01*
X007897Y018550D01*
X007895Y018550D01*
X007718Y018477D01*
X007583Y018342D01*
X007510Y018165D01*
X007510Y017415D01*
X007583Y017238D01*
X007718Y017103D01*
X007895Y017030D01*
X008085Y017030D01*
X008262Y017103D01*
X008397Y017238D01*
X008470Y017415D01*
X008470Y018165D01*
X008397Y018342D01*
X008382Y018357D01*
X008494Y018468D01*
X008561Y018536D01*
X008598Y018624D01*
X008598Y019133D01*
X008697Y019232D01*
X008758Y019379D01*
X008758Y019538D01*
X008697Y019685D01*
X008584Y019798D01*
X008437Y019859D01*
X008278Y019859D01*
X008131Y019798D01*
X008019Y019685D01*
X007958Y019502D02*
X005738Y019502D01*
X005585Y019343D02*
X007973Y019343D01*
X008066Y019185D02*
X006419Y019185D01*
X006045Y019185D02*
X005743Y019185D01*
X005686Y020136D02*
X005616Y020136D01*
X005560Y020294D02*
X005420Y020294D01*
X005470Y020453D02*
X005510Y020453D01*
X005510Y020611D02*
X005470Y020611D01*
X005470Y020770D02*
X005510Y020770D01*
X005510Y020928D02*
X005470Y020928D01*
X005470Y021087D02*
X005510Y021087D01*
X005543Y021245D02*
X005437Y021245D01*
X005335Y021404D02*
X005645Y021404D01*
X005437Y021721D02*
X006211Y021721D01*
X006133Y021879D02*
X005544Y021879D01*
X005569Y022038D02*
X005618Y022038D01*
X004900Y021721D02*
X004467Y021721D01*
X004625Y021562D02*
X006455Y021562D01*
X007335Y021404D02*
X007645Y021404D01*
X007543Y021245D02*
X007437Y021245D01*
X007470Y021087D02*
X007510Y021087D01*
X007510Y020928D02*
X007470Y020928D01*
X007470Y020770D02*
X007510Y020770D01*
X007510Y020611D02*
X007470Y020611D01*
X007470Y020453D02*
X007510Y020453D01*
X007560Y020294D02*
X007420Y020294D01*
X007294Y020136D02*
X007686Y020136D01*
X008181Y019819D02*
X006852Y019819D01*
X007011Y019977D02*
X010610Y019977D01*
X010452Y020136D02*
X010257Y020136D01*
X009990Y020136D02*
X009990Y020136D01*
X009990Y020050D02*
X009990Y020790D01*
X009990Y020790D01*
X009990Y020790D01*
X009530Y020790D01*
X009530Y020474D01*
X009541Y020402D01*
X009564Y020333D01*
X009597Y020269D01*
X009639Y020210D01*
X009690Y020159D01*
X009749Y020117D01*
X009813Y020084D01*
X009882Y020061D01*
X009954Y020050D01*
X009990Y020050D01*
X009990Y020294D02*
X009990Y020294D01*
X009990Y020453D02*
X009990Y020453D01*
X009990Y020611D02*
X009990Y020611D01*
X009990Y020770D02*
X009990Y020770D01*
X009530Y020770D02*
X009470Y020770D01*
X009470Y020928D02*
X009530Y020928D01*
X009530Y021087D02*
X009470Y021087D01*
X009437Y021245D02*
X009563Y021245D01*
X009673Y021404D02*
X009335Y021404D01*
X009615Y021721D02*
X008404Y021721D01*
X008245Y021879D02*
X009456Y021879D01*
X009417Y022038D02*
X008087Y022038D01*
X007928Y022196D02*
X008913Y022196D01*
X008808Y022355D02*
X008698Y022355D01*
X008490Y022355D02*
X007826Y022355D01*
X007966Y022513D02*
X008253Y022513D01*
X008178Y022672D02*
X008028Y022672D01*
X008040Y022830D02*
X008174Y022830D01*
X008232Y022989D02*
X008004Y022989D01*
X007910Y023147D02*
X008416Y023147D01*
X009092Y024194D02*
X008894Y024392D01*
X008788Y024650D01*
X008788Y024930D01*
X008894Y025188D01*
X009092Y025386D01*
X009350Y025492D01*
X009630Y025492D01*
X009888Y025386D01*
X010086Y025188D01*
X010192Y024930D01*
X010192Y024650D01*
X010147Y024540D01*
X011341Y025735D01*
X011167Y025807D01*
X011007Y025967D01*
X010920Y026177D01*
X010920Y026403D01*
X011007Y026613D01*
X011167Y026773D01*
X011228Y026798D01*
X011228Y026919D01*
X010700Y027446D01*
X007419Y024165D01*
X007352Y024098D01*
X007669Y024415D02*
X008885Y024415D01*
X008819Y024574D02*
X007828Y024574D01*
X007986Y024732D02*
X008788Y024732D01*
X008788Y024891D02*
X008145Y024891D01*
X008303Y025049D02*
X008837Y025049D01*
X008914Y025208D02*
X008462Y025208D01*
X008620Y025366D02*
X009073Y025366D01*
X008779Y025525D02*
X011131Y025525D01*
X011290Y025683D02*
X008937Y025683D01*
X009096Y025842D02*
X011132Y025842D01*
X010993Y026000D02*
X009254Y026000D01*
X009413Y026159D02*
X010927Y026159D01*
X010920Y026317D02*
X009571Y026317D01*
X009730Y026476D02*
X010950Y026476D01*
X011028Y026634D02*
X009888Y026634D01*
X010047Y026793D02*
X011214Y026793D01*
X011195Y026951D02*
X010205Y026951D01*
X010364Y027110D02*
X011037Y027110D01*
X010878Y027268D02*
X010522Y027268D01*
X010681Y027427D02*
X010720Y027427D01*
X011082Y027744D02*
X011854Y027744D01*
X012013Y027902D02*
X010923Y027902D01*
X010765Y028061D02*
X012171Y028061D01*
X012330Y028219D02*
X010606Y028219D01*
X010448Y028378D02*
X012488Y028378D01*
X012647Y028536D02*
X011461Y028536D01*
X011568Y028695D02*
X012805Y028695D01*
X012964Y028853D02*
X011610Y028853D01*
X011607Y029012D02*
X013122Y029012D01*
X013281Y029170D02*
X011541Y029170D01*
X011397Y029329D02*
X019240Y029329D01*
X019240Y029487D02*
X010724Y029487D01*
X010791Y029646D02*
X019240Y029646D01*
X019239Y029804D02*
X015660Y029804D01*
X015603Y029747D02*
X015393Y029660D01*
X015167Y029660D01*
X014957Y029747D01*
X014797Y029907D01*
X014780Y029948D01*
X014763Y029907D01*
X014603Y029747D01*
X014393Y029660D01*
X014167Y029660D01*
X013957Y029747D01*
X013797Y029907D01*
X013768Y029976D01*
X013750Y029942D01*
X013700Y029872D01*
X013638Y029810D01*
X013568Y029760D01*
X013491Y029720D01*
X013409Y029694D01*
X013323Y029680D01*
X013310Y029680D01*
X013310Y030570D01*
X013250Y030570D01*
X013250Y029680D01*
X013237Y029680D01*
X013151Y029694D01*
X013069Y029720D01*
X012992Y029760D01*
X012922Y029810D01*
X012860Y029872D01*
X012810Y029942D01*
X012792Y029976D01*
X012763Y029907D01*
X012603Y029747D01*
X012393Y029660D01*
X012167Y029660D01*
X011957Y029747D01*
X011797Y029907D01*
X011710Y030117D01*
X011710Y031083D01*
X011797Y031293D01*
X011957Y031453D01*
X012167Y031540D01*
X012393Y031540D01*
X012603Y031453D01*
X012763Y031293D01*
X012792Y031224D01*
X012810Y031258D01*
X012860Y031328D01*
X012922Y031390D01*
X012992Y031440D01*
X013069Y031480D01*
X013151Y031506D01*
X013237Y031520D01*
X013250Y031520D01*
X013250Y030630D01*
X013310Y030630D01*
X013310Y031520D01*
X013323Y031520D01*
X013409Y031506D01*
X013491Y031480D01*
X013568Y031440D01*
X013638Y031390D01*
X013700Y031328D01*
X013750Y031258D01*
X013768Y031224D01*
X013797Y031293D01*
X013957Y031453D01*
X014167Y031540D01*
X014393Y031540D01*
X014603Y031453D01*
X014763Y031293D01*
X014780Y031252D01*
X014797Y031293D01*
X014957Y031453D01*
X015167Y031540D01*
X015393Y031540D01*
X015603Y031453D01*
X015763Y031293D01*
X015850Y031083D01*
X015850Y030117D01*
X015763Y029907D01*
X015603Y029747D01*
X015786Y029963D02*
X019230Y029963D01*
X019213Y030121D02*
X018269Y030121D01*
X018258Y030110D02*
X018320Y030172D01*
X018370Y030242D01*
X018410Y030319D01*
X018436Y030401D01*
X018450Y030487D01*
X018450Y030521D01*
X017909Y030521D01*
X017909Y030539D01*
X017891Y030539D01*
X017891Y031080D01*
X017857Y031080D01*
X017771Y031066D01*
X017689Y031040D01*
X017612Y031000D01*
X017542Y030950D01*
X017480Y030888D01*
X017430Y030818D01*
X017390Y030741D01*
X017364Y030659D01*
X017350Y030573D01*
X017350Y030539D01*
X017891Y030539D01*
X017891Y030521D01*
X017350Y030521D01*
X017350Y030487D01*
X017364Y030401D01*
X017390Y030319D01*
X017430Y030242D01*
X017480Y030172D01*
X017542Y030110D01*
X017612Y030060D01*
X017689Y030020D01*
X017771Y029994D01*
X017857Y029980D01*
X017891Y029980D01*
X017891Y030521D01*
X017909Y030521D01*
X017909Y029980D01*
X017943Y029980D01*
X018029Y029994D01*
X018111Y030020D01*
X018188Y030060D01*
X018258Y030110D01*
X018390Y030280D02*
X019184Y030280D01*
X019140Y030438D02*
X018442Y030438D01*
X018450Y030539D02*
X018450Y030573D01*
X018436Y030659D01*
X018410Y030741D01*
X018370Y030818D01*
X018320Y030888D01*
X018258Y030950D01*
X018188Y031000D01*
X018111Y031040D01*
X018029Y031066D01*
X017943Y031080D01*
X017909Y031080D01*
X017909Y030539D01*
X018450Y030539D01*
X018446Y030597D02*
X019090Y030597D01*
X019019Y030755D02*
X018403Y030755D01*
X018294Y030914D02*
X018935Y030914D01*
X018839Y031072D02*
X017993Y031072D01*
X017909Y031072D02*
X017891Y031072D01*
X017807Y031072D02*
X016632Y031072D01*
X016619Y031076D02*
X016533Y031090D01*
X016499Y031090D01*
X016499Y030549D01*
X016481Y030549D01*
X016481Y031090D01*
X016447Y031090D01*
X016361Y031076D01*
X016279Y031050D01*
X016202Y031010D01*
X016132Y030960D01*
X016070Y030898D01*
X016020Y030828D01*
X015980Y030751D01*
X015954Y030669D01*
X015940Y030583D01*
X015940Y030549D01*
X016481Y030549D01*
X016481Y030531D01*
X015940Y030531D01*
X015940Y030497D01*
X015954Y030411D01*
X015980Y030329D01*
X016020Y030252D01*
X016070Y030182D01*
X016132Y030120D01*
X016202Y030070D01*
X016279Y030030D01*
X016361Y030004D01*
X016447Y029990D01*
X016481Y029990D01*
X016481Y030531D01*
X016499Y030531D01*
X016499Y030549D01*
X017040Y030549D01*
X017040Y030583D01*
X017026Y030669D01*
X017000Y030751D01*
X016960Y030828D01*
X016910Y030898D01*
X016848Y030960D01*
X016778Y031010D01*
X016701Y031050D01*
X016619Y031076D01*
X016499Y031072D02*
X016481Y031072D01*
X016348Y031072D02*
X015850Y031072D01*
X015850Y030914D02*
X016086Y030914D01*
X015982Y030755D02*
X015850Y030755D01*
X015850Y030597D02*
X015942Y030597D01*
X015949Y030438D02*
X015850Y030438D01*
X015850Y030280D02*
X016005Y030280D01*
X016131Y030121D02*
X015850Y030121D01*
X015789Y031231D02*
X018714Y031231D01*
X018567Y031389D02*
X015667Y031389D01*
X014893Y031389D02*
X014667Y031389D01*
X013893Y031389D02*
X013639Y031389D01*
X013765Y031231D02*
X013771Y031231D01*
X013310Y031231D02*
X013250Y031231D01*
X013250Y031389D02*
X013310Y031389D01*
X013310Y031072D02*
X013250Y031072D01*
X013250Y030914D02*
X013310Y030914D01*
X013310Y030755D02*
X013250Y030755D01*
X013250Y030438D02*
X013310Y030438D01*
X013310Y030280D02*
X013250Y030280D01*
X013250Y030121D02*
X013310Y030121D01*
X013310Y029963D02*
X013250Y029963D01*
X013250Y029804D02*
X013310Y029804D01*
X013629Y029804D02*
X013900Y029804D01*
X013774Y029963D02*
X013761Y029963D01*
X013287Y029176D02*
X013287Y029176D01*
X013589Y028800D02*
X013982Y028800D01*
X013917Y028773D01*
X013757Y028613D01*
X013670Y028403D01*
X013670Y028177D01*
X013757Y027967D01*
X013917Y027807D01*
X013986Y027778D01*
X013952Y027760D01*
X013882Y027710D01*
X013820Y027648D01*
X013770Y027578D01*
X013730Y027501D01*
X013704Y027419D01*
X013690Y027333D01*
X013690Y027290D01*
X014240Y027290D01*
X014790Y027290D01*
X014240Y027290D01*
X014240Y027290D01*
X014240Y027290D01*
X013690Y027290D01*
X013690Y027247D01*
X013704Y027161D01*
X013730Y027079D01*
X013770Y027002D01*
X013820Y026932D01*
X013882Y026870D01*
X013952Y026820D01*
X013986Y026802D01*
X013917Y026773D01*
X013757Y026613D01*
X013670Y026403D01*
X013670Y026177D01*
X013704Y026094D01*
X013136Y025526D01*
X011811Y025526D01*
X012155Y025870D01*
X012223Y025937D01*
X012259Y026025D01*
X012259Y026682D01*
X012962Y027385D01*
X013126Y027385D01*
X013281Y027449D01*
X013399Y027567D01*
X013463Y027722D01*
X013463Y027889D01*
X013399Y028043D01*
X013281Y028161D01*
X013126Y028225D01*
X013015Y028225D01*
X013589Y028800D01*
X013484Y028695D02*
X013838Y028695D01*
X013725Y028536D02*
X013325Y028536D01*
X013167Y028378D02*
X013670Y028378D01*
X013670Y028219D02*
X013142Y028219D01*
X013382Y028061D02*
X013718Y028061D01*
X013822Y027902D02*
X013457Y027902D01*
X013463Y027744D02*
X013929Y027744D01*
X013775Y027585D02*
X013406Y027585D01*
X013226Y027427D02*
X013706Y027427D01*
X013690Y027268D02*
X012845Y027268D01*
X012686Y027110D02*
X013720Y027110D01*
X013806Y026951D02*
X012528Y026951D01*
X012369Y026793D02*
X013964Y026793D01*
X013778Y026634D02*
X012259Y026634D01*
X012259Y026476D02*
X013700Y026476D01*
X013670Y026317D02*
X012259Y026317D01*
X012259Y026159D02*
X013677Y026159D01*
X013611Y026000D02*
X012249Y026000D01*
X012127Y025842D02*
X013452Y025842D01*
X013294Y025683D02*
X011969Y025683D01*
X010973Y025366D02*
X009907Y025366D01*
X010066Y025208D02*
X010814Y025208D01*
X010656Y025049D02*
X010143Y025049D01*
X010192Y024891D02*
X010497Y024891D01*
X010339Y024732D02*
X010192Y024732D01*
X010180Y024574D02*
X010161Y024574D01*
X009705Y024098D02*
X009655Y024098D01*
X009773Y021562D02*
X008562Y021562D01*
X008510Y020928D02*
X008470Y020928D01*
X008470Y020770D02*
X008510Y020770D01*
X008510Y020611D02*
X008470Y020611D01*
X008470Y020453D02*
X008510Y020453D01*
X008560Y020294D02*
X008420Y020294D01*
X008294Y020136D02*
X008686Y020136D01*
X008535Y019819D02*
X010769Y019819D01*
X010927Y019660D02*
X008707Y019660D01*
X008758Y019502D02*
X009213Y019502D01*
X009116Y019343D02*
X008743Y019343D01*
X008649Y019185D02*
X009099Y019185D01*
X008737Y019026D02*
X008598Y019026D01*
X008598Y018868D02*
X008643Y018868D01*
X008627Y018709D02*
X008598Y018709D01*
X008567Y018551D02*
X008677Y018551D01*
X008661Y018392D02*
X008418Y018392D01*
X008442Y018234D02*
X008559Y018234D01*
X008530Y018075D02*
X008470Y018075D01*
X008470Y017917D02*
X008530Y017917D01*
X008530Y017790D02*
X008530Y017474D01*
X008541Y017402D01*
X008564Y017333D01*
X008597Y017269D01*
X008639Y017210D01*
X008690Y017159D01*
X008749Y017117D01*
X008813Y017084D01*
X008882Y017061D01*
X008954Y017050D01*
X008990Y017050D01*
X008990Y017790D01*
X008990Y017790D01*
X008990Y017790D01*
X008530Y017790D01*
X008530Y017758D02*
X008470Y017758D01*
X008470Y017600D02*
X008530Y017600D01*
X008535Y017441D02*
X008470Y017441D01*
X008415Y017283D02*
X008590Y017283D01*
X008739Y017124D02*
X008283Y017124D01*
X007697Y017124D02*
X007283Y017124D01*
X007415Y017283D02*
X007565Y017283D01*
X007510Y017441D02*
X007470Y017441D01*
X007470Y017600D02*
X007510Y017600D01*
X007510Y017758D02*
X007470Y017758D01*
X007470Y017917D02*
X007510Y017917D01*
X007510Y018075D02*
X007470Y018075D01*
X007442Y018234D02*
X007538Y018234D01*
X007581Y018392D02*
X007633Y018392D01*
X007701Y018551D02*
X007897Y018551D01*
X008056Y018709D02*
X007734Y018709D01*
X007702Y018868D02*
X008118Y018868D01*
X008118Y019026D02*
X007585Y019026D01*
X006939Y016966D02*
X009218Y016966D01*
X008990Y017124D02*
X008990Y017124D01*
X008990Y017283D02*
X008990Y017283D01*
X008990Y017441D02*
X008990Y017441D01*
X008990Y017600D02*
X008990Y017600D01*
X008990Y017758D02*
X008990Y017758D01*
X009450Y017758D02*
X009510Y017758D01*
X009510Y017600D02*
X009450Y017600D01*
X009445Y017441D02*
X009510Y017441D01*
X009510Y017917D02*
X009450Y017917D01*
X009450Y018075D02*
X009510Y018075D01*
X009538Y018234D02*
X009421Y018234D01*
X009319Y018392D02*
X009633Y018392D01*
X009377Y018551D02*
X013093Y018551D01*
X013076Y018709D02*
X009427Y018709D01*
X009687Y018868D02*
X012940Y018868D01*
X012782Y019026D02*
X012585Y019026D01*
X012633Y018392D02*
X012347Y018392D01*
X012442Y018234D02*
X012538Y018234D01*
X012510Y018075D02*
X012470Y018075D01*
X012470Y017917D02*
X012510Y017917D01*
X012510Y017758D02*
X012470Y017758D01*
X012470Y017600D02*
X012510Y017600D01*
X012510Y017441D02*
X012470Y017441D01*
X012415Y017283D02*
X012565Y017283D01*
X012697Y017124D02*
X012283Y017124D01*
X012135Y016966D02*
X014850Y016966D01*
X014922Y016807D02*
X012294Y016807D01*
X012452Y016649D02*
X015042Y016649D01*
X014956Y016490D02*
X013426Y016490D01*
X013603Y016332D02*
X014920Y016332D01*
X014921Y016173D02*
X013660Y016173D01*
X013654Y016015D02*
X014987Y016015D01*
X015118Y015856D02*
X013577Y015856D01*
X013457Y015698D02*
X015635Y015698D01*
X015476Y015539D02*
X015234Y015539D01*
X014631Y015539D02*
X014131Y015539D01*
X013529Y015539D02*
X013470Y015539D01*
X013054Y016490D02*
X012611Y016490D01*
X013283Y017124D02*
X013697Y017124D01*
X013565Y017283D02*
X013415Y017283D01*
X013470Y017441D02*
X013510Y017441D01*
X013510Y017600D02*
X013470Y017600D01*
X013470Y017758D02*
X013510Y017758D01*
X013510Y017917D02*
X013470Y017917D01*
X013470Y018075D02*
X013510Y018075D01*
X013538Y018234D02*
X013442Y018234D01*
X013859Y018551D02*
X014478Y018551D01*
X014347Y018392D02*
X014633Y018392D01*
X014538Y018234D02*
X014442Y018234D01*
X014470Y018075D02*
X014510Y018075D01*
X014510Y017917D02*
X014470Y017917D01*
X014470Y017758D02*
X014510Y017758D01*
X014510Y017600D02*
X014470Y017600D01*
X014470Y017441D02*
X014510Y017441D01*
X014565Y017283D02*
X014415Y017283D01*
X014283Y017124D02*
X014697Y017124D01*
X013128Y014113D02*
X012458Y014113D01*
X012465Y013954D02*
X013047Y013954D01*
X013233Y013954D02*
X013287Y013954D01*
X012804Y013796D02*
X012624Y013796D01*
X012670Y014271D02*
X012397Y014271D01*
X012511Y014430D02*
X012192Y014430D01*
X012226Y014588D02*
X012353Y014588D01*
X011888Y014430D02*
X011398Y014430D01*
X011435Y014271D02*
X011683Y014271D01*
X011622Y014113D02*
X011524Y014113D01*
X011320Y013637D02*
X010187Y013637D01*
X010192Y013796D02*
X011162Y013796D01*
X010777Y013954D02*
X010182Y013954D01*
X010117Y014113D02*
X010664Y014113D01*
X010635Y014271D02*
X010002Y014271D01*
X009782Y014430D02*
X010671Y014430D01*
X010754Y014588D02*
X010175Y014588D01*
X010167Y014584D02*
X010231Y014617D01*
X010290Y014659D01*
X010341Y014710D01*
X010383Y014769D01*
X010416Y014833D01*
X010439Y014902D01*
X010450Y014974D01*
X010450Y015290D01*
X010450Y015606D01*
X010439Y015678D01*
X010416Y015747D01*
X010383Y015811D01*
X010341Y015870D01*
X010290Y015921D01*
X010231Y015963D01*
X010167Y015996D01*
X010098Y016019D01*
X010026Y016030D01*
X009990Y016030D01*
X009990Y015290D01*
X010450Y015290D01*
X009990Y015290D01*
X009990Y015290D01*
X009990Y015290D01*
X009990Y014550D01*
X010026Y014550D01*
X010098Y014561D01*
X010167Y014584D01*
X009990Y014588D02*
X009990Y014588D01*
X009990Y014550D02*
X009990Y015290D01*
X009990Y015290D01*
X009990Y015290D01*
X009530Y015290D01*
X009530Y015606D01*
X009541Y015678D01*
X009564Y015747D01*
X009597Y015811D01*
X009639Y015870D01*
X009690Y015921D01*
X009749Y015963D01*
X009813Y015996D01*
X009882Y016019D01*
X009954Y016030D01*
X009990Y016030D01*
X009990Y015290D01*
X009530Y015290D01*
X009530Y014974D01*
X009541Y014902D01*
X009564Y014833D01*
X009597Y014769D01*
X009639Y014710D01*
X009690Y014659D01*
X009749Y014617D01*
X009813Y014584D01*
X009882Y014561D01*
X009954Y014550D01*
X009990Y014550D01*
X009805Y014588D02*
X009175Y014588D01*
X009198Y014430D02*
X009108Y014430D01*
X008792Y013941D02*
X008792Y013941D01*
X008788Y013796D02*
X007935Y013796D01*
X008093Y013954D02*
X008601Y013954D01*
X008793Y013637D02*
X007776Y013637D01*
X007618Y013479D02*
X008859Y013479D01*
X008966Y013320D02*
X007459Y013320D01*
X007301Y013162D02*
X009172Y013162D01*
X009146Y013003D02*
X009834Y013003D01*
X009990Y013003D02*
X009990Y013003D01*
X010146Y013003D02*
X010781Y013003D01*
X010586Y012845D02*
X010359Y012845D01*
X010436Y012686D02*
X010519Y012686D01*
X010510Y012528D02*
X010450Y012528D01*
X010450Y012369D02*
X010510Y012369D01*
X010510Y012211D02*
X010450Y012211D01*
X010450Y012052D02*
X010510Y012052D01*
X010519Y011894D02*
X010436Y011894D01*
X010359Y011735D02*
X010586Y011735D01*
X010141Y011250D02*
X010254Y011137D01*
X010342Y011100D01*
X010934Y011100D01*
X010890Y010994D01*
X010890Y010990D01*
X010736Y010990D01*
X010582Y010926D01*
X010474Y010818D01*
X010430Y010819D01*
X010428Y010820D01*
X010383Y010820D01*
X010338Y010821D01*
X010335Y010820D01*
X010332Y010820D01*
X010291Y010803D01*
X010249Y010786D01*
X010247Y010785D01*
X010244Y010783D01*
X010212Y010752D01*
X010180Y010721D01*
X010179Y010718D01*
X010167Y010707D01*
X010168Y010710D01*
X009570Y010710D01*
X009570Y010870D01*
X010168Y010870D01*
X010161Y010923D01*
X010138Y011010D01*
X010103Y011093D01*
X010059Y011170D01*
X010004Y011241D01*
X009995Y011250D01*
X010141Y011250D01*
X010099Y011101D02*
X010340Y011101D01*
X010156Y010943D02*
X010622Y010943D01*
X010245Y010784D02*
X009570Y010784D01*
X009410Y010784D02*
X007955Y010784D01*
X008114Y010626D02*
X008827Y010626D01*
X008888Y010467D02*
X008272Y010467D01*
X008824Y010943D02*
X007307Y010943D01*
X006619Y011260D02*
X006047Y011260D01*
X006108Y011418D02*
X006423Y011418D01*
X006307Y011577D02*
X006198Y011577D01*
X005843Y011101D02*
X008881Y011101D01*
X008621Y011735D02*
X008394Y011735D01*
X008461Y011894D02*
X008544Y011894D01*
X008530Y012052D02*
X008470Y012052D01*
X008470Y012211D02*
X008530Y012211D01*
X008530Y012369D02*
X008470Y012369D01*
X008470Y012528D02*
X008530Y012528D01*
X008544Y012686D02*
X008461Y012686D01*
X008394Y012845D02*
X008621Y012845D01*
X008834Y013003D02*
X008199Y013003D01*
X007781Y013003D02*
X007230Y013003D01*
X007394Y012845D02*
X007586Y012845D01*
X007519Y012686D02*
X007461Y012686D01*
X007470Y012528D02*
X007510Y012528D01*
X007510Y012369D02*
X007470Y012369D01*
X007470Y012211D02*
X007510Y012211D01*
X007510Y012052D02*
X007470Y012052D01*
X007461Y011894D02*
X007519Y011894D01*
X007586Y011735D02*
X007394Y011735D01*
X006571Y010467D02*
X005506Y010467D01*
X005348Y010309D02*
X006571Y010309D01*
X006571Y010150D02*
X005189Y010150D01*
X005031Y009992D02*
X006571Y009992D01*
X006571Y009833D02*
X004872Y009833D01*
X004714Y009675D02*
X006571Y009675D01*
X006646Y009516D02*
X004555Y009516D01*
X004560Y009358D02*
X012083Y009358D01*
X012242Y009199D02*
X004560Y009199D01*
X004504Y009041D02*
X012250Y009041D01*
X012250Y008882D02*
X004388Y008882D01*
X004112Y008724D02*
X012250Y008724D01*
X012250Y008565D02*
X001535Y008565D01*
X001511Y008724D02*
X003868Y008724D01*
X003592Y008882D02*
X001511Y008882D01*
X001511Y009041D02*
X003476Y009041D01*
X003420Y009199D02*
X001511Y009199D01*
X001511Y009358D02*
X003420Y009358D01*
X003467Y009516D02*
X001511Y009516D01*
X001511Y009675D02*
X003568Y009675D01*
X003811Y009833D02*
X001511Y009833D01*
X001511Y009992D02*
X004352Y009992D01*
X004511Y010150D02*
X001511Y010150D01*
X001511Y010626D02*
X003441Y010626D01*
X003420Y010784D02*
X001511Y010784D01*
X001511Y010943D02*
X003436Y010943D01*
X003463Y011101D02*
X001511Y011101D01*
X001511Y011260D02*
X003304Y011260D01*
X003146Y011418D02*
X001511Y011418D01*
X001511Y011577D02*
X002987Y011577D01*
X002829Y011735D02*
X001511Y011735D01*
X001511Y011894D02*
X002670Y011894D01*
X002512Y012052D02*
X001511Y012052D01*
X001511Y012211D02*
X002099Y012211D01*
X001985Y012369D02*
X001511Y012369D01*
X001511Y012528D02*
X001953Y012528D01*
X001984Y012686D02*
X001511Y012686D01*
X001511Y012845D02*
X002094Y012845D01*
X002653Y012845D02*
X003629Y012845D01*
X003492Y013003D02*
X001511Y013003D01*
X001511Y013162D02*
X003426Y013162D01*
X003420Y013320D02*
X001511Y013320D01*
X001511Y013479D02*
X003451Y013479D01*
X003407Y013637D02*
X001511Y013637D01*
X001511Y013796D02*
X003249Y013796D01*
X003090Y013954D02*
X001511Y013954D01*
X001511Y014113D02*
X002932Y014113D01*
X002773Y014271D02*
X001511Y014271D01*
X001511Y014430D02*
X002615Y014430D01*
X002456Y014588D02*
X001511Y014588D01*
X001511Y014747D02*
X002298Y014747D01*
X002139Y014905D02*
X001511Y014905D01*
X001480Y015064D02*
X001726Y015064D01*
X001624Y015222D02*
X001328Y015222D01*
X001407Y015143D02*
X001407Y015143D01*
X001230Y015381D02*
X001599Y015381D01*
X001637Y015539D02*
X001230Y015539D01*
X001230Y015698D02*
X001758Y015698D01*
X001935Y016015D02*
X001230Y016015D01*
X001230Y016173D02*
X001777Y016173D01*
X001619Y016332D02*
X001230Y016332D01*
X001230Y016490D02*
X001582Y016490D01*
X001582Y016649D02*
X001230Y016649D01*
X001230Y016807D02*
X001582Y016807D01*
X001627Y016966D02*
X001230Y016966D01*
X001230Y017124D02*
X001786Y017124D01*
X001686Y017025D02*
X001686Y017025D01*
X001944Y017283D02*
X001230Y017283D01*
X001230Y017441D02*
X002015Y017441D01*
X002015Y017600D02*
X001230Y017600D01*
X001230Y017758D02*
X002015Y017758D01*
X002015Y017917D02*
X001230Y017917D01*
X001230Y018075D02*
X001418Y018075D01*
X001278Y018234D02*
X001230Y018234D01*
X002062Y018075D02*
X002068Y018075D01*
X002202Y018234D02*
X002226Y018234D01*
X002268Y018392D02*
X002283Y018392D01*
X002495Y017758D02*
X002510Y017758D01*
X002495Y017600D02*
X002510Y017600D01*
X002495Y017441D02*
X002510Y017441D01*
X002495Y017283D02*
X002565Y017283D01*
X002461Y017124D02*
X002697Y017124D01*
X002391Y017051D02*
X002391Y017051D01*
X002322Y016966D02*
X002306Y016966D01*
X002205Y016807D02*
X002148Y016807D01*
X002170Y016649D02*
X002062Y016649D01*
X002138Y016490D02*
X002198Y016490D01*
X002297Y016332D02*
X002305Y016332D01*
X002094Y015856D02*
X001230Y015856D01*
X002131Y015819D02*
X002131Y015819D01*
X002280Y015698D02*
X003526Y015698D01*
X003710Y015539D02*
X002401Y015539D01*
X002439Y015381D02*
X004889Y015381D01*
X004889Y015539D02*
X004270Y015539D01*
X004454Y015698D02*
X004889Y015698D01*
X004889Y015856D02*
X004531Y015856D01*
X004560Y016015D02*
X004849Y016015D01*
X004690Y016173D02*
X004552Y016173D01*
X004532Y016332D02*
X004486Y016332D01*
X004373Y016490D02*
X004346Y016490D01*
X004216Y016649D02*
X003338Y016649D01*
X003496Y016807D02*
X004181Y016807D01*
X004181Y016966D02*
X003655Y016966D01*
X003634Y016490D02*
X002982Y016490D01*
X002875Y016332D02*
X003474Y016332D01*
X002659Y015064D02*
X004889Y015064D01*
X004889Y015222D02*
X002501Y015222D01*
X002818Y014905D02*
X004852Y014905D01*
X004750Y014747D02*
X002976Y014747D01*
X003135Y014588D02*
X004729Y014588D01*
X004774Y014430D02*
X003293Y014430D01*
X003452Y014271D02*
X004918Y014271D01*
X005341Y014271D02*
X007114Y014271D01*
X007002Y014430D02*
X005485Y014430D01*
X005529Y014588D02*
X005754Y014588D01*
X005718Y014603D02*
X005895Y014530D01*
X006085Y014530D01*
X006262Y014603D01*
X006397Y014738D01*
X006470Y014915D01*
X006470Y015665D01*
X006397Y015842D01*
X006262Y015977D01*
X006085Y016050D01*
X005895Y016050D01*
X005718Y015977D01*
X005583Y015842D01*
X005510Y015665D01*
X005510Y014915D01*
X005583Y014738D01*
X005718Y014603D01*
X005580Y014747D02*
X005508Y014747D01*
X005514Y014905D02*
X005406Y014905D01*
X005369Y015064D02*
X005510Y015064D01*
X005510Y015222D02*
X005369Y015222D01*
X005369Y015381D02*
X005510Y015381D01*
X005510Y015539D02*
X005369Y015539D01*
X005369Y015698D02*
X005523Y015698D01*
X005597Y015856D02*
X005369Y015856D01*
X005369Y016015D02*
X005809Y016015D01*
X006067Y016332D02*
X005210Y016332D01*
X005348Y016173D02*
X006225Y016173D01*
X006171Y016015D02*
X006384Y016015D01*
X006383Y015856D02*
X006542Y015856D01*
X006523Y015698D02*
X006457Y015698D01*
X006470Y015539D02*
X006510Y015539D01*
X006510Y015381D02*
X006470Y015381D01*
X006470Y015222D02*
X006510Y015222D01*
X006510Y015064D02*
X006470Y015064D01*
X006466Y014905D02*
X006514Y014905D01*
X006580Y014747D02*
X006400Y014747D01*
X006226Y014588D02*
X006754Y014588D01*
X006795Y013954D02*
X007415Y013954D01*
X007573Y014113D02*
X003610Y014113D01*
X003769Y013954D02*
X006535Y013954D01*
X006313Y013796D02*
X004259Y013796D01*
X004560Y013320D02*
X006300Y013320D01*
X006300Y013162D02*
X004554Y013162D01*
X004488Y013003D02*
X005781Y013003D01*
X005586Y012845D02*
X004351Y012845D01*
X004303Y012528D02*
X005510Y012528D01*
X005519Y012686D02*
X002763Y012686D01*
X002793Y012528D02*
X003677Y012528D01*
X003513Y012369D02*
X002874Y012369D01*
X003032Y012211D02*
X003444Y012211D01*
X003420Y012052D02*
X003191Y012052D01*
X003349Y011894D02*
X003434Y011894D01*
X003825Y011418D02*
X004273Y011418D01*
X004327Y011260D02*
X004469Y011260D01*
X004478Y011101D02*
X005537Y011101D01*
X005303Y010943D02*
X004544Y010943D01*
X004560Y010784D02*
X005145Y010784D01*
X005247Y010886D02*
X005247Y010886D01*
X004669Y010309D02*
X004315Y010309D01*
X004473Y010467D02*
X004560Y010677D01*
X004194Y009833D02*
X004169Y009833D01*
X003667Y010307D02*
X003507Y010467D01*
X004546Y011894D02*
X005519Y011894D01*
X005510Y012052D02*
X004560Y012052D01*
X004536Y012211D02*
X005510Y012211D01*
X005510Y012369D02*
X004467Y012369D01*
X004634Y011735D02*
X005344Y011735D01*
X006199Y013003D02*
X006300Y013003D01*
X006245Y013470D02*
X006245Y013637D01*
X007017Y013796D02*
X007256Y013796D01*
X007098Y013637D02*
X007085Y013637D01*
X007633Y014271D02*
X007732Y014271D01*
X007745Y014430D02*
X007890Y014430D01*
X007937Y014476D02*
X007937Y014476D01*
X008226Y014588D02*
X008394Y014588D01*
X008400Y014747D02*
X008613Y014747D01*
X008541Y014905D02*
X008466Y014905D01*
X008470Y015064D02*
X008530Y015064D01*
X008530Y015222D02*
X008470Y015222D01*
X008470Y015381D02*
X008530Y015381D01*
X008530Y015539D02*
X008470Y015539D01*
X008457Y015698D02*
X008548Y015698D01*
X008629Y015856D02*
X008383Y015856D01*
X008171Y016015D02*
X008870Y016015D01*
X008990Y016015D02*
X008990Y016015D01*
X009110Y016015D02*
X009870Y016015D01*
X009990Y016015D02*
X009990Y016015D01*
X010110Y016015D02*
X010809Y016015D01*
X010597Y015856D02*
X010351Y015856D01*
X010432Y015698D02*
X010523Y015698D01*
X010510Y015539D02*
X010450Y015539D01*
X010450Y015381D02*
X010510Y015381D01*
X010510Y015222D02*
X010450Y015222D01*
X010450Y015064D02*
X010510Y015064D01*
X010514Y014905D02*
X010439Y014905D01*
X010367Y014747D02*
X010580Y014747D01*
X009990Y014747D02*
X009990Y014747D01*
X009990Y014905D02*
X009990Y014905D01*
X009990Y015064D02*
X009990Y015064D01*
X009990Y015222D02*
X009990Y015222D01*
X009990Y015381D02*
X009990Y015381D01*
X009990Y015539D02*
X009990Y015539D01*
X009990Y015698D02*
X009990Y015698D01*
X009990Y015856D02*
X009990Y015856D01*
X009629Y015856D02*
X009351Y015856D01*
X009432Y015698D02*
X009548Y015698D01*
X009530Y015539D02*
X009450Y015539D01*
X009450Y015381D02*
X009530Y015381D01*
X009530Y015222D02*
X009450Y015222D01*
X009450Y015064D02*
X009530Y015064D01*
X009541Y014905D02*
X009439Y014905D01*
X009367Y014747D02*
X009613Y014747D01*
X008990Y015381D02*
X008990Y015381D01*
X008990Y015539D02*
X008990Y015539D01*
X008990Y015698D02*
X008990Y015698D01*
X008990Y015856D02*
X008990Y015856D01*
X008999Y016173D02*
X007653Y016173D01*
X007653Y016015D02*
X007809Y016015D01*
X007573Y016332D02*
X008801Y016332D01*
X008745Y016490D02*
X007414Y016490D01*
X007256Y016649D02*
X008755Y016649D01*
X008841Y016807D02*
X007097Y016807D01*
X005908Y016490D02*
X005052Y016490D01*
X004893Y016649D02*
X005750Y016649D01*
X005591Y016807D02*
X004735Y016807D01*
X004661Y016966D02*
X005433Y016966D01*
X004697Y017124D02*
X004661Y017124D01*
X004793Y021879D02*
X004075Y021879D01*
X004080Y022038D02*
X004769Y022038D01*
X004651Y022196D02*
X004190Y022196D01*
X004228Y022355D02*
X004369Y022355D01*
X004238Y022513D02*
X004228Y022513D01*
X004627Y022220D02*
X004627Y022220D01*
X005348Y025842D02*
X007132Y025842D01*
X006993Y026000D02*
X005487Y026000D01*
X005553Y026159D02*
X006927Y026159D01*
X006920Y026317D02*
X005560Y026317D01*
X005530Y026476D02*
X006950Y026476D01*
X007028Y026634D02*
X005452Y026634D01*
X005266Y026793D02*
X007214Y026793D01*
X007609Y028061D02*
X008842Y028061D01*
X008926Y028219D02*
X007450Y028219D01*
X007292Y028378D02*
X009084Y028378D01*
X008901Y028536D02*
X009610Y028536D01*
X009535Y028695D02*
X009008Y028695D01*
X009050Y028853D02*
X009535Y028853D01*
X009535Y029012D02*
X009047Y029012D01*
X008981Y029170D02*
X009535Y029170D01*
X009535Y029329D02*
X008974Y029329D01*
X009149Y029487D02*
X009635Y029487D01*
X009764Y029646D02*
X009216Y029646D01*
X009233Y029804D02*
X009747Y029804D01*
X009775Y029963D02*
X009205Y029963D01*
X009121Y030121D02*
X009859Y030121D01*
X010074Y030280D02*
X008906Y030280D01*
X008993Y030438D02*
X009987Y030438D01*
X009930Y030597D02*
X009050Y030597D01*
X009050Y030755D02*
X009930Y030755D01*
X009984Y030914D02*
X008996Y030914D01*
X008873Y031072D02*
X010107Y031072D01*
X010696Y030121D02*
X011710Y030121D01*
X011710Y030280D02*
X011425Y030280D01*
X011553Y030438D02*
X011710Y030438D01*
X011710Y030597D02*
X011610Y030597D01*
X011610Y030755D02*
X011710Y030755D01*
X011710Y030914D02*
X011556Y030914D01*
X011433Y031072D02*
X011710Y031072D01*
X011771Y031231D02*
X007680Y031231D01*
X007679Y031389D02*
X011893Y031389D01*
X012667Y031389D02*
X012921Y031389D01*
X012795Y031231D02*
X012789Y031231D01*
X012786Y029963D02*
X012799Y029963D01*
X012931Y029804D02*
X012660Y029804D01*
X011900Y029804D02*
X010807Y029804D01*
X010780Y029963D02*
X011774Y029963D01*
X011696Y027585D02*
X011240Y027585D01*
X011399Y027427D02*
X011537Y027427D01*
X013132Y024891D02*
X013551Y024891D01*
X013710Y025049D02*
X013292Y025049D01*
X013497Y025208D02*
X013868Y025208D01*
X014027Y025366D02*
X013655Y025366D01*
X013814Y025525D02*
X014185Y025525D01*
X013972Y025683D02*
X016714Y025683D01*
X016872Y025842D02*
X014598Y025842D01*
X014737Y026000D02*
X016304Y026000D01*
X016377Y025970D02*
X016603Y025970D01*
X016813Y026057D01*
X016973Y026217D01*
X017060Y026427D01*
X017060Y026653D01*
X016973Y026863D01*
X016813Y027023D01*
X016603Y027110D01*
X016377Y027110D01*
X016167Y027023D01*
X016007Y026863D01*
X015920Y026653D01*
X015920Y026427D01*
X016007Y026217D01*
X016167Y026057D01*
X016377Y025970D01*
X016065Y026159D02*
X014803Y026159D01*
X014810Y026317D02*
X015965Y026317D01*
X015920Y026476D02*
X014780Y026476D01*
X014702Y026634D02*
X015920Y026634D01*
X015978Y026793D02*
X014516Y026793D01*
X014674Y026951D02*
X016095Y026951D01*
X016376Y027110D02*
X014760Y027110D01*
X014790Y027268D02*
X016445Y027268D01*
X016604Y027110D02*
X019240Y027110D01*
X019240Y027268D02*
X016835Y027268D01*
X017004Y027427D02*
X019240Y027427D01*
X019240Y027585D02*
X017058Y027585D01*
X017050Y027744D02*
X019240Y027744D01*
X019240Y027902D02*
X016969Y027902D01*
X016880Y028061D02*
X019240Y028061D01*
X019240Y028219D02*
X016880Y028219D01*
X016880Y028378D02*
X019240Y028378D01*
X019240Y028536D02*
X016880Y028536D01*
X016880Y028695D02*
X019240Y028695D01*
X019240Y028853D02*
X016816Y028853D01*
X016658Y029012D02*
X019240Y029012D01*
X019240Y029170D02*
X016499Y029170D01*
X016296Y028695D02*
X014642Y028695D01*
X014755Y028536D02*
X016400Y028536D01*
X016400Y028378D02*
X014810Y028378D01*
X014810Y028219D02*
X016400Y028219D01*
X016400Y028061D02*
X014762Y028061D01*
X014658Y027902D02*
X016311Y027902D01*
X016230Y027744D02*
X014551Y027744D01*
X014705Y027585D02*
X016222Y027585D01*
X016276Y027427D02*
X014774Y027427D01*
X014660Y029804D02*
X014900Y029804D01*
X016499Y029990D02*
X016533Y029990D01*
X016619Y030004D01*
X016701Y030030D01*
X016778Y030070D01*
X016848Y030120D01*
X016910Y030182D01*
X016960Y030252D01*
X017000Y030329D01*
X017026Y030411D01*
X017040Y030497D01*
X017040Y030531D01*
X016499Y030531D01*
X016499Y029990D01*
X016499Y030121D02*
X016481Y030121D01*
X016481Y030280D02*
X016499Y030280D01*
X016499Y030438D02*
X016481Y030438D01*
X016481Y030597D02*
X016499Y030597D01*
X016499Y030755D02*
X016481Y030755D01*
X016481Y030914D02*
X016499Y030914D01*
X016894Y030914D02*
X017506Y030914D01*
X017397Y030755D02*
X016998Y030755D01*
X017038Y030597D02*
X017354Y030597D01*
X017358Y030438D02*
X017031Y030438D01*
X016975Y030280D02*
X017410Y030280D01*
X017531Y030121D02*
X016849Y030121D01*
X017891Y030121D02*
X017909Y030121D01*
X017909Y030280D02*
X017891Y030280D01*
X017891Y030438D02*
X017909Y030438D01*
X017909Y030597D02*
X017891Y030597D01*
X017891Y030755D02*
X017909Y030755D01*
X017909Y030914D02*
X017891Y030914D01*
X018388Y031548D02*
X007572Y031548D01*
X007413Y031706D02*
X018162Y031706D01*
X017853Y031865D02*
X001294Y031865D01*
X001051Y031706D02*
X002217Y031706D01*
X002058Y031548D02*
X000882Y031548D01*
X000757Y031389D02*
X001900Y031389D01*
X001741Y031231D02*
X000662Y031231D01*
X000592Y031072D02*
X001583Y031072D01*
X001424Y030914D02*
X000540Y030914D01*
X000506Y030755D02*
X001278Y030755D01*
X001250Y030597D02*
X000494Y030597D01*
X000490Y030438D02*
X001250Y030438D01*
X001250Y030280D02*
X000490Y030280D01*
X000490Y030121D02*
X001250Y030121D01*
X001250Y029963D02*
X000490Y029963D01*
X000490Y029804D02*
X001250Y029804D01*
X001250Y029646D02*
X000490Y029646D01*
X000490Y029487D02*
X001304Y029487D01*
X001462Y029329D02*
X000490Y029329D01*
X000490Y029170D02*
X001527Y029170D01*
X001520Y029012D02*
X000490Y029012D01*
X000490Y028853D02*
X001550Y028853D01*
X001629Y028695D02*
X000490Y028695D01*
X000490Y028536D02*
X001798Y028536D01*
X001621Y028378D02*
X000490Y028378D01*
X000490Y028219D02*
X001547Y028219D01*
X001520Y028061D02*
X000490Y028061D01*
X000490Y027902D02*
X001530Y027902D01*
X001596Y027744D02*
X000490Y027744D01*
X000490Y027585D02*
X001739Y027585D01*
X005424Y026951D02*
X009526Y026951D01*
X009683Y027110D02*
X009685Y027110D01*
X008256Y029487D02*
X007626Y029487D01*
X007583Y029329D02*
X007468Y029329D01*
X007439Y029170D02*
X007309Y029170D01*
X007373Y029012D02*
X007180Y029012D01*
X007180Y028853D02*
X007370Y028853D01*
X007412Y028695D02*
X007180Y028695D01*
X007180Y028536D02*
X007519Y028536D01*
X007680Y029646D02*
X008189Y029646D01*
X008173Y029804D02*
X007680Y029804D01*
X007680Y029963D02*
X008200Y029963D01*
X008284Y030121D02*
X007680Y030121D01*
X013229Y024732D02*
X013393Y024732D01*
X013304Y024643D02*
X013304Y024643D01*
X011086Y019502D02*
X009786Y019502D01*
X009883Y019343D02*
X011225Y019343D01*
X011257Y019185D02*
X009899Y019185D01*
X009851Y019026D02*
X011375Y019026D01*
X011876Y019026D02*
X012083Y019026D01*
X011633Y018392D02*
X011347Y018392D01*
X011442Y018234D02*
X011538Y018234D01*
X011510Y018075D02*
X011470Y018075D01*
X011470Y017917D02*
X011510Y017917D01*
X011510Y017758D02*
X011470Y017758D01*
X011501Y017600D02*
X011510Y017600D01*
X011301Y016649D02*
X009771Y016649D01*
X009963Y016807D02*
X010591Y016807D01*
X010433Y016966D02*
X010018Y016966D01*
X009545Y016490D02*
X011460Y016490D01*
X011618Y016332D02*
X009489Y016332D01*
X009291Y016173D02*
X011777Y016173D01*
X011809Y016015D02*
X011171Y016015D01*
X011383Y015856D02*
X011597Y015856D01*
X011523Y015698D02*
X011457Y015698D01*
X011470Y015539D02*
X011510Y015539D01*
X011510Y015381D02*
X011470Y015381D01*
X011470Y015222D02*
X011510Y015222D01*
X011510Y015064D02*
X011470Y015064D01*
X011466Y014905D02*
X011514Y014905D01*
X011580Y014747D02*
X011400Y014747D01*
X011275Y014588D02*
X011754Y014588D01*
X011715Y013479D02*
X010121Y013479D01*
X010014Y013320D02*
X011874Y013320D01*
X011973Y013162D02*
X009808Y013162D01*
X009990Y012845D02*
X009990Y012845D01*
X009990Y012686D02*
X009990Y012686D01*
X009990Y012528D02*
X009990Y012528D01*
X009990Y012369D02*
X009990Y012369D01*
X009530Y012369D02*
X009450Y012369D01*
X009450Y012211D02*
X009530Y012211D01*
X009530Y012052D02*
X009450Y012052D01*
X009436Y011894D02*
X009544Y011894D01*
X009621Y011735D02*
X009359Y011735D01*
X008990Y012369D02*
X008990Y012369D01*
X008990Y012528D02*
X008990Y012528D01*
X008990Y012686D02*
X008990Y012686D01*
X008990Y012845D02*
X008990Y012845D01*
X008990Y013003D02*
X008990Y013003D01*
X009359Y012845D02*
X009621Y012845D01*
X009544Y012686D02*
X009436Y012686D01*
X009450Y012528D02*
X009530Y012528D01*
X011199Y013003D02*
X011781Y013003D01*
X011586Y012845D02*
X011394Y012845D01*
X011461Y012686D02*
X011519Y012686D01*
X011510Y012528D02*
X011470Y012528D01*
X011470Y012369D02*
X011510Y012369D01*
X011510Y012211D02*
X011470Y012211D01*
X011470Y012052D02*
X011510Y012052D01*
X011371Y009516D02*
X007396Y009516D01*
X004448Y007139D02*
X012670Y007139D01*
X012670Y006980D02*
X004528Y006980D01*
X004560Y006822D02*
X012714Y006822D01*
X012811Y006663D02*
X004554Y006663D01*
X004489Y006505D02*
X012898Y006505D01*
X012750Y006346D02*
X004352Y006346D01*
X003990Y006029D02*
X012670Y006029D01*
X012684Y006188D02*
X003832Y006188D01*
X004149Y005871D02*
X012693Y005871D01*
X012762Y005712D02*
X004307Y005712D01*
X004423Y005554D02*
X012925Y005554D01*
X012789Y005395D02*
X004430Y005395D01*
X004430Y005237D02*
X012704Y005237D01*
X012670Y005078D02*
X004430Y005078D01*
X004430Y004920D02*
X012673Y004920D01*
X012739Y004761D02*
X004430Y004761D01*
X004430Y004603D02*
X012871Y004603D01*
X012866Y004444D02*
X005020Y004444D01*
X004845Y004444D02*
X004430Y004444D01*
X004430Y004286D02*
X004598Y004286D01*
X005267Y004286D02*
X012748Y004286D01*
X012697Y004127D02*
X005345Y004127D01*
X005353Y003969D02*
X012694Y003969D01*
X012690Y003997D02*
X012704Y003911D01*
X012730Y003829D01*
X012770Y003752D01*
X012820Y003682D01*
X012882Y003620D01*
X012952Y003570D01*
X013029Y003530D01*
X013111Y003504D01*
X013197Y003490D01*
X013220Y003490D01*
X013220Y004020D01*
X012690Y004020D01*
X012690Y003997D01*
X012740Y003810D02*
X005298Y003810D01*
X005438Y003652D02*
X012476Y003652D01*
X012496Y003660D02*
X012342Y003596D01*
X012224Y003478D01*
X012160Y003324D01*
X012160Y003156D01*
X012224Y003002D01*
X012342Y002884D01*
X012496Y002820D01*
X012661Y002820D01*
X012664Y002817D01*
X012752Y002780D01*
X013361Y002780D01*
X013540Y002601D01*
X013540Y002079D01*
X013519Y002058D01*
X013357Y002058D01*
X013203Y001994D01*
X013086Y001877D01*
X013022Y001723D01*
X013022Y001557D01*
X013086Y001403D01*
X013203Y001286D01*
X013357Y001222D01*
X013523Y001222D01*
X013677Y001286D01*
X013794Y001403D01*
X013858Y001557D01*
X013858Y001719D01*
X013983Y001844D01*
X014020Y001932D01*
X014020Y002652D01*
X014020Y002748D01*
X013983Y002836D01*
X013663Y003156D01*
X013596Y003223D01*
X013508Y003260D01*
X013000Y003260D01*
X013000Y003324D01*
X012936Y003478D01*
X012818Y003596D01*
X012664Y003660D01*
X012496Y003660D01*
X012684Y003652D02*
X012851Y003652D01*
X012921Y003493D02*
X013178Y003493D01*
X013220Y003493D02*
X013260Y003493D01*
X013260Y003490D02*
X013283Y003490D01*
X013369Y003504D01*
X013451Y003530D01*
X013528Y003570D01*
X013598Y003620D01*
X013660Y003682D01*
X013710Y003752D01*
X013750Y003829D01*
X013776Y003911D01*
X013790Y003997D01*
X013790Y004020D01*
X013260Y004020D01*
X013260Y003490D01*
X013302Y003493D02*
X017035Y003493D01*
X017180Y003652D02*
X014843Y003652D01*
X014968Y003810D02*
X017304Y003810D01*
X017425Y003969D02*
X015008Y003969D01*
X014986Y004127D02*
X017547Y004127D01*
X017667Y004286D02*
X014886Y004286D01*
X014830Y004444D02*
X017768Y004444D01*
X017869Y004603D02*
X014830Y004603D01*
X014830Y004761D02*
X017970Y004761D01*
X018070Y004920D02*
X017626Y004920D01*
X017778Y005078D02*
X018153Y005078D01*
X018235Y005237D02*
X017843Y005237D01*
X017860Y005395D02*
X018318Y005395D01*
X018400Y005554D02*
X017839Y005554D01*
X017774Y005712D02*
X018470Y005712D01*
X018536Y005871D02*
X017616Y005871D01*
X017707Y006029D02*
X018601Y006029D01*
X018667Y006188D02*
X017803Y006188D01*
X017840Y006346D02*
X018728Y006346D01*
X018778Y006505D02*
X017829Y006505D01*
X017768Y006663D02*
X018828Y006663D01*
X018878Y006822D02*
X017632Y006822D01*
X017686Y006980D02*
X018928Y006980D01*
X018967Y007139D02*
X017803Y007139D01*
X017860Y007297D02*
X019002Y007297D01*
X019037Y007456D02*
X017860Y007456D01*
X017814Y007614D02*
X019072Y007614D01*
X019107Y007773D02*
X017714Y007773D01*
X017473Y007931D02*
X019128Y007931D01*
X019149Y008090D02*
X013810Y008090D01*
X013810Y007931D02*
X013892Y007931D01*
X013771Y008248D02*
X019170Y008248D01*
X019191Y008407D02*
X013680Y008407D01*
X014095Y007456D02*
X015099Y007456D01*
X014979Y007297D02*
X013751Y007297D01*
X013810Y007139D02*
X014920Y007139D01*
X014920Y006980D02*
X013810Y006980D01*
X013766Y006822D02*
X014964Y006822D01*
X015061Y006663D02*
X013669Y006663D01*
X013582Y006505D02*
X015293Y006505D01*
X015350Y006346D02*
X013730Y006346D01*
X013796Y006188D02*
X015198Y006188D01*
X015040Y006029D02*
X013810Y006029D01*
X013787Y005871D02*
X014881Y005871D01*
X014723Y005712D02*
X013718Y005712D01*
X013555Y005554D02*
X014564Y005554D01*
X014406Y005395D02*
X013691Y005395D01*
X013776Y005237D02*
X014350Y005237D01*
X014350Y005078D02*
X013810Y005078D01*
X013807Y004920D02*
X014350Y004920D01*
X014350Y004761D02*
X013741Y004761D01*
X013609Y004603D02*
X014350Y004603D01*
X014350Y004444D02*
X013614Y004444D01*
X013732Y004286D02*
X014294Y004286D01*
X014194Y004127D02*
X013783Y004127D01*
X013786Y003969D02*
X014172Y003969D01*
X014212Y003810D02*
X013740Y003810D01*
X013629Y003652D02*
X014337Y003652D01*
X013802Y003018D02*
X016584Y003018D01*
X016744Y003176D02*
X013643Y003176D01*
X013440Y002701D02*
X012176Y002701D01*
X012176Y002808D02*
X012164Y002854D01*
X012140Y002895D01*
X012106Y002928D01*
X012065Y002952D01*
X012020Y002964D01*
X011791Y002964D01*
X011791Y002435D01*
X012176Y002435D01*
X012176Y002808D01*
X012161Y002859D02*
X012402Y002859D01*
X012218Y003018D02*
X008552Y003018D01*
X008347Y003176D02*
X012160Y003176D01*
X012165Y003335D02*
X005755Y003335D01*
X005596Y003493D02*
X012239Y003493D01*
X011701Y002964D02*
X011472Y002964D01*
X011426Y002952D01*
X011385Y002928D01*
X011366Y002909D01*
X011291Y002984D01*
X010626Y002984D01*
X010509Y002867D01*
X010509Y002506D01*
X009901Y001898D01*
X009872Y001828D01*
X009757Y001713D01*
X009670Y001503D01*
X009670Y001277D01*
X009757Y001067D01*
X009917Y000907D01*
X010127Y000820D01*
X010353Y000820D01*
X010563Y000907D01*
X010723Y001067D01*
X010810Y001277D01*
X010810Y001503D01*
X010759Y001626D01*
X010930Y001797D01*
X011291Y001797D01*
X011366Y001872D01*
X011385Y001853D01*
X011426Y001829D01*
X011472Y001817D01*
X011701Y001817D01*
X011701Y002345D01*
X011791Y002345D01*
X011791Y001817D01*
X012020Y001817D01*
X012065Y001829D01*
X012106Y001853D01*
X012140Y001886D01*
X012164Y001927D01*
X012176Y001973D01*
X012176Y002345D01*
X011791Y002345D01*
X011791Y002435D01*
X011701Y002435D01*
X011701Y002964D01*
X011701Y002859D02*
X011791Y002859D01*
X011791Y002701D02*
X011701Y002701D01*
X011701Y002542D02*
X011791Y002542D01*
X011791Y002384D02*
X013540Y002384D01*
X013540Y002542D02*
X012176Y002542D01*
X012176Y002225D02*
X013540Y002225D01*
X013527Y002067D02*
X012176Y002067D01*
X012153Y001908D02*
X013117Y001908D01*
X013033Y001750D02*
X010883Y001750D01*
X010774Y001591D02*
X013022Y001591D01*
X013073Y001433D02*
X010810Y001433D01*
X010809Y001274D02*
X013231Y001274D01*
X013132Y000957D02*
X010613Y000957D01*
X010743Y001116D02*
X013598Y001116D01*
X013649Y001274D02*
X013981Y001274D01*
X013807Y001433D02*
X014328Y001433D01*
X014632Y001591D02*
X013858Y001591D01*
X013889Y001750D02*
X014923Y001750D01*
X015172Y001908D02*
X014010Y001908D01*
X014020Y002067D02*
X015421Y002067D01*
X015642Y002225D02*
X014020Y002225D01*
X014020Y002384D02*
X015849Y002384D01*
X016056Y002542D02*
X014020Y002542D01*
X014020Y002701D02*
X016238Y002701D01*
X016411Y002859D02*
X013960Y002859D01*
X013260Y003652D02*
X013220Y003652D01*
X013220Y003810D02*
X013260Y003810D01*
X013260Y003969D02*
X013220Y003969D01*
X012995Y003335D02*
X016889Y003335D01*
X016954Y004920D02*
X014830Y004920D01*
X014830Y005078D02*
X016802Y005078D01*
X016737Y005237D02*
X014926Y005237D01*
X015084Y005395D02*
X016720Y005395D01*
X016637Y005554D02*
X015243Y005554D01*
X015401Y005712D02*
X016479Y005712D01*
X016320Y005871D02*
X015560Y005871D01*
X015718Y006029D02*
X016176Y006029D01*
X016150Y006188D02*
X015828Y006188D01*
X015830Y006346D02*
X016150Y006346D01*
X016150Y006505D02*
X015830Y006505D01*
X015919Y006663D02*
X016150Y006663D01*
X016150Y006822D02*
X016016Y006822D01*
X016060Y006980D02*
X016150Y006980D01*
X016150Y007139D02*
X016060Y007139D01*
X016001Y007297D02*
X016150Y007297D01*
X016150Y007456D02*
X015881Y007456D01*
X016438Y007931D02*
X017107Y007931D01*
X016866Y007773D02*
X016595Y007773D01*
X016630Y007614D02*
X016766Y007614D01*
X016720Y007456D02*
X016630Y007456D01*
X016630Y007297D02*
X016720Y007297D01*
X016777Y007139D02*
X016630Y007139D01*
X016630Y006980D02*
X016894Y006980D01*
X016948Y006822D02*
X016630Y006822D01*
X016630Y006663D02*
X016812Y006663D01*
X016751Y006505D02*
X016630Y006505D01*
X016630Y006346D02*
X016740Y006346D01*
X016777Y006188D02*
X016682Y006188D01*
X016840Y006029D02*
X016873Y006029D01*
X015884Y008565D02*
X019208Y008565D01*
X019215Y008724D02*
X016072Y008724D01*
X016230Y008882D02*
X019222Y008882D01*
X019229Y009041D02*
X016389Y009041D01*
X016547Y009199D02*
X019236Y009199D01*
X019240Y009358D02*
X016706Y009358D01*
X016864Y009516D02*
X019240Y009516D01*
X019240Y009675D02*
X017023Y009675D01*
X017181Y009833D02*
X019240Y009833D01*
X019240Y009992D02*
X017340Y009992D01*
X017498Y010150D02*
X019240Y010150D01*
X019240Y010309D02*
X017657Y010309D01*
X017815Y010467D02*
X019240Y010467D01*
X019240Y010626D02*
X017974Y010626D01*
X018130Y010784D02*
X019240Y010784D01*
X019240Y010943D02*
X018165Y010943D01*
X018165Y011101D02*
X019240Y011101D01*
X019240Y011260D02*
X018165Y011260D01*
X018165Y011418D02*
X019240Y011418D01*
X019240Y011577D02*
X018165Y011577D01*
X018165Y011735D02*
X019240Y011735D01*
X019240Y011894D02*
X018165Y011894D01*
X018165Y012052D02*
X019240Y012052D01*
X019240Y012211D02*
X018165Y012211D01*
X018165Y012369D02*
X019240Y012369D01*
X019240Y012528D02*
X018165Y012528D01*
X018165Y012686D02*
X019240Y012686D01*
X019240Y012845D02*
X018165Y012845D01*
X018165Y013003D02*
X019240Y013003D01*
X019240Y013162D02*
X018165Y013162D01*
X018165Y013320D02*
X019240Y013320D01*
X019240Y013479D02*
X018165Y013479D01*
X018165Y013637D02*
X019240Y013637D01*
X019240Y013796D02*
X018165Y013796D01*
X018165Y013954D02*
X019240Y013954D01*
X019240Y014113D02*
X018165Y014113D01*
X018165Y014271D02*
X019240Y014271D01*
X019240Y014430D02*
X018165Y014430D01*
X018165Y014588D02*
X019240Y014588D01*
X019240Y014747D02*
X018165Y014747D01*
X018165Y014905D02*
X019240Y014905D01*
X019240Y015064D02*
X018165Y015064D01*
X018165Y015222D02*
X019240Y015222D01*
X019240Y015381D02*
X018165Y015381D01*
X018165Y015539D02*
X019240Y015539D01*
X019240Y015698D02*
X018165Y015698D01*
X018165Y015856D02*
X019240Y015856D01*
X019240Y016015D02*
X018165Y016015D01*
X018165Y016173D02*
X019240Y016173D01*
X019240Y016332D02*
X018165Y016332D01*
X018165Y016490D02*
X019240Y016490D01*
X019240Y016649D02*
X018165Y016649D01*
X018165Y016807D02*
X019240Y016807D01*
X019240Y016966D02*
X018165Y016966D01*
X018165Y017124D02*
X019240Y017124D01*
X019240Y017283D02*
X018165Y017283D01*
X018165Y017441D02*
X019240Y017441D01*
X019240Y017600D02*
X018165Y017600D01*
X018165Y017758D02*
X019240Y017758D01*
X019240Y017917D02*
X018165Y017917D01*
X018165Y018075D02*
X019240Y018075D01*
X019240Y018234D02*
X018165Y018234D01*
X018165Y018392D02*
X019240Y018392D01*
X019240Y018551D02*
X018165Y018551D01*
X018165Y018709D02*
X019240Y018709D01*
X019240Y018868D02*
X018165Y018868D01*
X018165Y019026D02*
X019240Y019026D01*
X019240Y019185D02*
X018165Y019185D01*
X018165Y019343D02*
X019240Y019343D01*
X019240Y019502D02*
X018165Y019502D01*
X018165Y019660D02*
X019240Y019660D01*
X019240Y019819D02*
X018165Y019819D01*
X018165Y019977D02*
X019240Y019977D01*
X019240Y020136D02*
X018165Y020136D01*
X018132Y020294D02*
X019240Y020294D01*
X019240Y020453D02*
X017979Y020453D01*
X017821Y020611D02*
X019240Y020611D01*
X019240Y020770D02*
X017662Y020770D01*
X017504Y020928D02*
X019240Y020928D01*
X019240Y021087D02*
X017345Y021087D01*
X017124Y021245D02*
X019240Y021245D01*
X019240Y021404D02*
X017183Y021404D01*
X017176Y021562D02*
X018516Y021562D01*
X017761Y021721D02*
X017095Y021721D01*
X017007Y021879D02*
X016710Y021879D01*
X017075Y025366D02*
X017366Y025366D01*
X017234Y025525D02*
X017891Y025525D01*
X017551Y025842D02*
X018941Y025842D01*
X019240Y026000D02*
X018110Y026000D01*
X018335Y026159D02*
X019240Y026159D01*
X019240Y026317D02*
X018429Y026317D01*
X018470Y026476D02*
X019240Y026476D01*
X019240Y026634D02*
X018470Y026634D01*
X018408Y026793D02*
X019240Y026793D01*
X019240Y026951D02*
X018285Y026951D01*
X017515Y026951D02*
X016885Y026951D01*
X017002Y026793D02*
X017392Y026793D01*
X017330Y026634D02*
X017060Y026634D01*
X017060Y026476D02*
X017330Y026476D01*
X017348Y026317D02*
X017015Y026317D01*
X016915Y026159D02*
X017189Y026159D01*
X017031Y026000D02*
X016676Y026000D01*
X017392Y025683D02*
X018416Y025683D01*
X010633Y018392D02*
X010347Y018392D01*
X010442Y018234D02*
X010538Y018234D01*
X010510Y018075D02*
X010470Y018075D01*
X010470Y017917D02*
X010510Y017917D01*
X010510Y017758D02*
X010470Y017758D01*
X010478Y017600D02*
X010510Y017600D01*
X009723Y020136D02*
X009294Y020136D01*
X009420Y020294D02*
X009584Y020294D01*
X009533Y020453D02*
X009470Y020453D01*
X009470Y020611D02*
X009530Y020611D01*
X012250Y008407D02*
X001694Y008407D01*
X001853Y008248D02*
X012250Y008248D01*
X012250Y008090D02*
X002168Y008090D01*
X002390Y007931D02*
X012250Y007931D01*
X012250Y007773D02*
X002458Y007773D01*
X002458Y007614D02*
X012250Y007614D01*
X012335Y007456D02*
X002395Y007456D01*
X002184Y007297D02*
X003725Y007297D01*
X003532Y007139D02*
X001930Y007139D01*
X001930Y006980D02*
X003452Y006980D01*
X003420Y006822D02*
X003158Y006822D01*
X003356Y006663D02*
X003426Y006663D01*
X004255Y007297D02*
X012729Y007297D01*
X010509Y002859D02*
X009834Y002859D01*
X009834Y002701D02*
X010509Y002701D01*
X010509Y002542D02*
X009834Y002542D01*
X009834Y002384D02*
X010386Y002384D01*
X010227Y002225D02*
X009834Y002225D01*
X009834Y002067D02*
X010069Y002067D01*
X009910Y001908D02*
X009828Y001908D01*
X009793Y001750D02*
X009624Y001750D01*
X009624Y001591D02*
X009706Y001591D01*
X009670Y001433D02*
X009622Y001433D01*
X009671Y001274D02*
X009513Y001274D01*
X009510Y001116D02*
X009737Y001116D01*
X009867Y000957D02*
X009448Y000957D01*
X009242Y000799D02*
X012576Y000799D01*
X011759Y000640D02*
X008677Y000640D01*
X008732Y000957D02*
X008074Y000957D01*
X008192Y001116D02*
X008670Y001116D01*
X008938Y000799D02*
X007825Y000799D01*
X007539Y000957D02*
X007235Y000957D01*
X007422Y001116D02*
X006735Y001116D01*
X006352Y001274D02*
X007387Y001274D01*
X007414Y001433D02*
X007142Y001433D01*
X007255Y001591D02*
X007520Y001591D01*
X007567Y001750D02*
X007259Y001750D01*
X008047Y001750D02*
X009144Y001750D01*
X008961Y001591D02*
X008093Y001591D01*
X006060Y001433D02*
X005970Y001433D01*
X005896Y001591D02*
X005666Y001591D01*
X005738Y001750D02*
X005362Y001750D01*
X005580Y001908D02*
X005090Y001908D01*
X004842Y002067D02*
X005422Y002067D01*
X005264Y002225D02*
X004593Y002225D01*
X004378Y002384D02*
X005106Y002384D01*
X004948Y002542D02*
X004171Y002542D01*
X003964Y002701D02*
X004790Y002701D01*
X004633Y002859D02*
X003778Y002859D01*
X003605Y003018D02*
X004475Y003018D01*
X004317Y003176D02*
X003432Y003176D01*
X003261Y003335D02*
X004159Y003335D01*
X004001Y003493D02*
X003116Y003493D01*
X002971Y003652D02*
X003843Y003652D01*
X003685Y003810D02*
X002826Y003810D01*
X002686Y003969D02*
X003527Y003969D01*
X011701Y002225D02*
X011791Y002225D01*
X011791Y002067D02*
X011701Y002067D01*
X011701Y001908D02*
X011791Y001908D01*
D19*
X013440Y001640D03*
X014590Y003990D03*
X016190Y005590D03*
X017790Y008440D03*
X014240Y007090D03*
X013140Y013540D03*
X012040Y014040D03*
X011040Y021940D03*
X005790Y013490D03*
X005690Y011490D03*
X004040Y007940D03*
X003240Y005690D03*
X002040Y007690D03*
X001940Y010140D03*
X006140Y002190D03*
X016640Y027640D03*
D20*
X016640Y028690D01*
X016290Y029040D01*
X013490Y029040D01*
X011468Y027018D01*
X010700Y027786D01*
X007216Y024301D01*
X005681Y024301D01*
X005661Y024282D01*
X005425Y024518D01*
X005405Y024498D01*
X003988Y024498D01*
X003988Y024144D02*
X004027Y024144D01*
X004381Y024144D01*
X004539Y024301D01*
X004933Y024301D01*
X006310Y022923D01*
X006310Y022451D01*
X006547Y022215D01*
X006547Y022175D01*
X006547Y021979D01*
X007295Y022018D02*
X006507Y022805D01*
X006507Y023790D01*
X006490Y023790D01*
X005877Y022372D02*
X004775Y023475D01*
X004775Y023790D01*
X004740Y023790D01*
X004184Y023396D02*
X003988Y023396D01*
X003988Y022333D01*
X003840Y022185D01*
X003840Y021940D01*
X003440Y021540D01*
X002740Y021540D01*
X001744Y020544D01*
X001744Y020089D01*
X001740Y020077D01*
X002190Y019840D02*
X001890Y019540D01*
X001090Y019540D01*
X000990Y019440D01*
X000990Y015221D01*
X001271Y014940D01*
X001271Y008490D01*
X002040Y007721D01*
X002040Y007690D01*
X001690Y007340D02*
X001690Y006840D01*
X001940Y006590D01*
X003090Y006590D01*
X004190Y005490D01*
X004190Y004140D01*
X006140Y002190D01*
X006186Y001640D02*
X003476Y004360D01*
X003476Y005454D01*
X003240Y005690D01*
X001690Y007340D02*
X001040Y007990D01*
X001040Y009190D01*
X000790Y009440D01*
X000790Y020140D01*
X002390Y021740D01*
X003290Y021740D01*
X003640Y022090D01*
X003640Y024690D01*
X003890Y024940D01*
X003890Y025090D01*
X004390Y025590D01*
X004390Y027390D01*
X004440Y027440D01*
X004440Y027740D01*
X004990Y028290D01*
X004390Y027390D02*
X004040Y027390D01*
X003540Y027890D01*
X003540Y029390D01*
X002890Y030040D01*
X002090Y030040D01*
X001490Y029640D02*
X002090Y029040D01*
X001490Y029640D02*
X001490Y030640D01*
X002390Y031540D01*
X007240Y031540D01*
X007440Y031340D01*
X007440Y029640D01*
X006940Y029140D01*
X006940Y028390D01*
X007540Y027790D01*
X009490Y027790D01*
X009775Y028711D02*
X009775Y029288D01*
X010277Y029790D01*
X009775Y028711D02*
X010700Y027786D01*
X011468Y027018D02*
X011468Y026309D01*
X011490Y026290D01*
X012019Y026073D02*
X012019Y026782D01*
X013043Y027805D01*
X012019Y026073D02*
X008712Y022766D01*
X008594Y022766D01*
X009184Y022490D02*
X009775Y023081D01*
X009775Y023593D01*
X011468Y025286D01*
X013236Y025286D01*
X014240Y026290D01*
X014390Y025390D02*
X016760Y025390D01*
X017900Y026530D01*
X015641Y023317D02*
X016192Y022766D01*
X016192Y022057D01*
X016783Y021467D01*
X016783Y020994D02*
X017098Y020994D01*
X017925Y020168D01*
X017925Y010916D01*
X015799Y008790D01*
X013515Y008790D01*
X013279Y009026D01*
X013240Y009040D01*
X012690Y009810D02*
X014736Y011856D01*
X014736Y014459D01*
X016232Y015955D01*
X016232Y016979D02*
X015090Y016979D01*
X016232Y016979D02*
X016980Y017727D01*
X016980Y018475D01*
X016990Y018503D01*
X017728Y019301D02*
X017728Y020049D01*
X017728Y019301D02*
X015562Y019301D01*
X014933Y018671D01*
X014696Y018671D01*
X014539Y018829D01*
X014027Y018829D01*
X012570Y020286D01*
X012570Y021231D01*
X012880Y021540D01*
X013690Y021540D01*
X014010Y021860D01*
X014027Y021860D01*
X014240Y022540D02*
X013740Y022540D01*
X013190Y021990D01*
X012740Y021990D01*
X012240Y021490D01*
X011490Y021490D01*
X011040Y021940D01*
X011140Y021540D02*
X010640Y021540D01*
X010290Y021890D01*
X010290Y022415D01*
X010326Y022451D01*
X010365Y022490D01*
X010990Y022490D01*
X011340Y022140D01*
X011990Y022140D01*
X013290Y023440D01*
X013440Y023440D01*
X013440Y024440D01*
X014390Y025390D01*
X014421Y024301D02*
X015838Y022884D01*
X015838Y021939D01*
X016783Y020994D01*
X016990Y020077D02*
X016980Y020049D01*
X016901Y019971D01*
X013791Y019971D01*
X013003Y020758D01*
X013003Y020797D01*
X012990Y020790D01*
X012452Y019695D02*
X013476Y018671D01*
X012334Y019341D02*
X011625Y019341D01*
X011232Y019695D02*
X012452Y019695D01*
X011990Y020790D02*
X011740Y020790D01*
X011390Y021140D01*
X011390Y021290D01*
X011140Y021540D01*
X010562Y021112D02*
X010562Y020364D01*
X011232Y019695D01*
X012019Y018278D02*
X012019Y017805D01*
X011990Y017790D01*
X011310Y016979D02*
X012540Y015749D01*
X012540Y014740D01*
X012840Y014440D01*
X013140Y014440D01*
X013594Y013986D01*
X013594Y011900D01*
X011783Y010089D01*
X011746Y010068D01*
X012190Y009940D02*
X012190Y009590D01*
X012490Y009290D01*
X012490Y007640D01*
X012590Y007540D01*
X013840Y007540D01*
X014140Y007840D01*
X016190Y007840D01*
X016390Y007640D01*
X016390Y006140D01*
X017140Y005390D01*
X017290Y005390D01*
X015590Y006240D02*
X015590Y006940D01*
X015490Y007040D01*
X015590Y006240D02*
X014590Y005240D01*
X014590Y003990D01*
X013460Y003020D02*
X013780Y002700D01*
X013780Y001980D01*
X013440Y001640D01*
X013460Y003020D02*
X012800Y003020D01*
X012580Y003240D01*
X010959Y002390D02*
X010956Y002372D01*
X009384Y002390D02*
X009384Y001484D01*
X009090Y001190D01*
X008596Y002390D02*
X008596Y002634D01*
X008290Y002940D01*
X005810Y002940D01*
X004933Y003817D01*
X004933Y004026D01*
X006186Y001640D02*
X007000Y001630D01*
X007019Y001649D01*
X007019Y002412D01*
X007021Y002390D01*
X007807Y002412D02*
X007807Y001283D01*
X007809Y002390D02*
X007807Y002412D01*
X007807Y002569D01*
X003990Y009290D02*
X005450Y010750D01*
X007160Y010750D01*
X007300Y010610D01*
X007790Y010610D01*
X008260Y010140D01*
X009940Y010140D01*
X010380Y010580D01*
X010820Y010570D01*
X011310Y010910D02*
X011310Y009820D01*
X007269Y009820D01*
X007021Y010068D01*
X007064Y010110D01*
X006690Y011490D02*
X006540Y011640D01*
X006540Y013429D01*
X006665Y013553D01*
X006990Y013190D02*
X008140Y014340D01*
X008711Y014340D01*
X008712Y014341D01*
X007373Y014577D02*
X007373Y014813D01*
X007413Y014853D01*
X007413Y016152D01*
X006429Y017136D01*
X006429Y018199D01*
X006153Y018475D01*
X006114Y018475D01*
X004893Y019695D01*
X005444Y019774D02*
X006468Y019774D01*
X006980Y020286D01*
X006980Y020758D01*
X006990Y020790D01*
X007295Y022018D02*
X007767Y022018D01*
X008988Y020797D01*
X008990Y020790D01*
X009657Y022018D02*
X010562Y021112D01*
X009657Y022018D02*
X009657Y022727D01*
X009972Y023042D01*
X009972Y023475D01*
X010287Y023790D01*
X010444Y023790D01*
X011035Y024380D01*
X011429Y023671D02*
X012609Y023671D01*
X012740Y023540D01*
X013161Y022648D02*
X013870Y023357D01*
X013909Y023357D01*
X014066Y023514D01*
X014224Y023514D01*
X014240Y023540D01*
X015641Y023553D02*
X015641Y023317D01*
X015287Y019498D02*
X014814Y019026D01*
X013240Y016112D02*
X012649Y016112D01*
X010996Y017766D01*
X010990Y017790D01*
X010759Y016979D02*
X009972Y017766D01*
X009972Y017805D01*
X009990Y017790D01*
X009618Y017018D02*
X009145Y016546D01*
X007990Y017790D02*
X008003Y017805D01*
X008003Y018317D01*
X008358Y018671D01*
X008358Y019459D01*
X009027Y018750D02*
X009499Y019223D01*
X008003Y020483D02*
X008003Y020758D01*
X007990Y020790D01*
X008003Y020837D01*
X008003Y020994D01*
X007216Y018829D02*
X006232Y018829D01*
X005405Y018435D02*
X004324Y019516D01*
X003990Y020340D02*
X003390Y019740D01*
X003190Y020040D02*
X002990Y020040D01*
X002790Y019840D01*
X002190Y019840D01*
X002649Y018553D02*
X002649Y018317D01*
X002255Y017923D01*
X002255Y017254D01*
X001822Y016821D01*
X001822Y016467D01*
X002334Y015955D01*
X003436Y015955D01*
X003633Y016152D01*
X003909Y016152D01*
X003988Y016073D01*
X003990Y016040D01*
X004421Y016782D02*
X005129Y016073D01*
X005129Y014616D01*
X003988Y013396D02*
X003988Y013317D01*
X003990Y013290D01*
X003988Y013396D02*
X002019Y015364D01*
X002590Y016640D02*
X002690Y016740D01*
X003090Y016740D01*
X003490Y017140D01*
X003490Y018640D01*
X004224Y018632D02*
X004224Y018435D01*
X004421Y018238D01*
X004421Y016782D01*
X005405Y017333D02*
X005405Y018435D01*
X005405Y017333D02*
X006980Y015758D01*
X006980Y015325D01*
X006990Y015290D01*
X006990Y013190D02*
X006990Y012290D01*
X006690Y011490D02*
X010240Y011490D01*
X010390Y011340D01*
X011240Y011340D01*
X011990Y012090D01*
X011990Y012290D01*
X012373Y013160D02*
X011783Y013750D01*
X011547Y013750D01*
X011035Y014262D01*
X012040Y014040D02*
X012540Y013540D01*
X013140Y013540D01*
X013990Y014290D02*
X012990Y015290D01*
X013830Y015246D02*
X014933Y015246D01*
X013990Y014290D02*
X013990Y011740D01*
X012190Y009940D01*
X013780Y010300D02*
X014540Y009540D01*
X015490Y009540D01*
X015490Y013540D02*
X015484Y013553D01*
X017728Y015797D01*
X017728Y019301D01*
X011310Y016979D02*
X010759Y016979D01*
X007334Y018711D02*
X007216Y018829D01*
X005169Y022018D02*
X004736Y022451D01*
X004736Y022766D01*
X004740Y022790D01*
X003988Y023396D02*
X003988Y024144D01*
X005011Y024931D02*
X004990Y026290D01*
X005011Y024931D02*
X005425Y024518D01*
X004263Y021585D02*
X003735Y021585D01*
X003590Y021440D01*
X003590Y020440D01*
X003190Y020040D01*
X003990Y020340D02*
X003990Y020790D01*
X004263Y021585D02*
X004972Y020876D01*
X004972Y020797D01*
X004990Y020790D01*
X001740Y018503D02*
X001744Y018475D01*
X002373Y012530D02*
X003988Y010916D01*
X003988Y010797D01*
X003990Y010790D01*
X004540Y011490D02*
X003990Y012040D01*
X004540Y011490D02*
X005690Y011490D01*
X001271Y008490D02*
X001271Y008435D01*
X010444Y023435D02*
X011192Y023435D01*
X011429Y023671D01*
X005838Y029853D02*
X004027Y028042D01*
X005838Y029853D02*
X005838Y030443D01*
X005840Y030450D01*
D21*
X010444Y023435D03*
X010326Y022451D03*
X012019Y023317D03*
X014421Y024301D03*
X013043Y027805D03*
X008594Y022766D03*
X006547Y021979D03*
X005877Y022372D03*
X004324Y019516D03*
X003390Y019740D03*
X003490Y018640D03*
X002590Y016640D03*
X002019Y015364D03*
X002373Y012530D03*
X006665Y013553D03*
X010820Y010570D03*
X011310Y010910D03*
X012690Y009810D03*
X013780Y010300D03*
X013830Y015246D03*
X013240Y016112D03*
X014933Y015246D03*
X016232Y015955D03*
X012580Y003240D03*
X009090Y001190D03*
X007807Y001283D03*
X004933Y004026D03*
D22*
X008712Y014341D03*
X007373Y014577D03*
X009145Y016546D03*
X009618Y017018D03*
X009027Y018750D03*
X009499Y019223D03*
X008358Y019459D03*
X007334Y018711D03*
X006232Y018829D03*
X005444Y019774D03*
X004893Y019695D03*
X004224Y018632D03*
X002649Y018553D03*
X005129Y014616D03*
X005169Y022018D03*
X004184Y023396D03*
X003988Y024498D03*
X004342Y024931D03*
X004027Y028042D03*
X009184Y022490D03*
X011035Y024380D03*
X013161Y022648D03*
X014027Y021860D03*
X015287Y019498D03*
X014814Y019026D03*
X013476Y018671D03*
X012334Y019341D03*
X011625Y019341D03*
X011035Y014262D03*
X012373Y013160D03*
X016783Y021467D03*
X015641Y023553D03*
D23*
X010959Y002390D02*
X010240Y001672D01*
X010240Y001390D01*
M02*
