%
M48
M72
T01C0.0200
T02C0.0236
T03C0.0240
T04C0.0276
T05C0.0315
T06C0.0320
T07C0.0354
T08C0.0400
T09C0.0440
T10C0.0670
%
T01
X8712Y14341
X7373Y14577
X9145Y16546
X9618Y17018
X9027Y18750
X9499Y19223
X8358Y19459
X7334Y18711
X6232Y18829
X5444Y19774
X4893Y19695
X4224Y18632
X2649Y18553
X5129Y14616
X5169Y22018
X4184Y23396
X3988Y24498
X4342Y24931
X4027Y28042
X9184Y22490
X11035Y24380
X12452Y25286
X13161Y22648
X14027Y21860
X15287Y19498
X14814Y19026
X13476Y18671
X12334Y19341
X11625Y19341
X11114Y22136
X15641Y23553
X16783Y21467
X12373Y13160
X11035Y14262
T02
X12040Y14040
X13140Y13540
X14240Y7090
X14590Y3990
X16190Y5590
X17790Y8440
X5790Y13490
X5690Y11490
X4040Y7940
X1940Y10140
T03
X2019Y6034
X2821Y5939
X4933Y4026
X7807Y1283
X9090Y1190
X12580Y3240
X13780Y2080
X12690Y9810
X13780Y10300
X11310Y10910
X10820Y10570
X13830Y15246
X13240Y16112
X14933Y15246
X16232Y15955
X12019Y23317
X10444Y23435
X10326Y22451
X8594Y22766
X6547Y21979
X5877Y22372
X4324Y19516
X3390Y19740
X3490Y18640
X2590Y16640
X2019Y15364
X1590Y17640
X1890Y21240
X6665Y13553
X2373Y12530
X13043Y27805
X14421Y24301
T04
X12740Y24540
X12740Y23540
X17690Y27566
X17690Y29534
X6490Y24790
X6490Y23790
X1290Y27596
X1290Y29564
T05
X1740Y20077
X1740Y18503
X8703Y29790
X10277Y29790
X14240Y28290
X14240Y27290
X14240Y26290
X16990Y20077
X16990Y18503
T06
X15990Y17790
X14990Y17790
X13990Y17790
X12990Y17790
X11990Y17790
X10990Y17790
X9990Y17790
X8990Y17790
X7990Y17790
X6990Y17790
X5990Y17790
X4990Y17790
X3990Y17790
X2990Y17790
X2990Y20790
X3990Y20790
X4990Y20790
X5990Y20790
X6990Y20790
X7990Y20790
X8990Y20790
X9990Y20790
X10990Y20790
X11990Y20790
X12990Y20790
X13990Y20790
X14990Y20790
X15990Y20790
X12990Y15290
X11990Y15290
X10990Y15290
X9990Y15290
X8990Y15290
X7990Y15290
X6990Y15290
X5990Y15290
X5990Y12290
X6990Y12290
X7990Y12290
X8990Y12290
X9990Y12290
X10990Y12290
X11990Y12290
X12990Y12290
T07
X15490Y12290
X15490Y11040
X15490Y9540
X15490Y7040
X15490Y13540
X15490Y16290
X11490Y22790
X11490Y26290
X7490Y26290
X7490Y22790
X3990Y16040
X3990Y13290
X3990Y12040
X3990Y10790
X3990Y9290
X3990Y6790
X2600Y26580
X2600Y30580
X16490Y30540
X16490Y26540
T08
X14240Y23540
X14240Y22540
X10770Y28900
X10770Y30680
X8210Y30680
X8210Y28900
X4990Y28290
X4990Y27290
X4990Y26290
X4740Y23790
X4740Y22790
X13240Y9040
X13240Y8040
X13240Y7040
X13240Y6040
X13240Y5040
X13240Y4040
X10240Y1390
T09
X6840Y30450
X5840Y30450
X4840Y30450
X3840Y30450
X12280Y30600
X13280Y30600
X14280Y30600
X15280Y30600
T10
X9490Y27790
X9490Y24790
X9490Y13790
X9490Y10790
M30
