G75*
%MOIN*%
%OFA0B0*%
%FSLAX24Y24*%
%IPPOS*%
%LPD*%
%AMOC8*
5,1,8,0,0,1.08239X$1,22.5*
%
%ADD10C,0.0060*%
%ADD11C,0.0080*%
%ADD12C,0.0050*%
D10*
X005170Y005110D02*
X005510Y005110D01*
X005510Y005280D01*
X005454Y005337D01*
X005340Y005337D01*
X005283Y005280D01*
X005283Y005110D01*
X005283Y005224D02*
X005170Y005337D01*
X005170Y005478D02*
X005510Y005478D01*
X005510Y005705D01*
X005510Y005847D02*
X005170Y005847D01*
X005170Y006074D02*
X005510Y006074D01*
X005397Y005960D01*
X005510Y005847D01*
X005340Y005592D02*
X005340Y005478D01*
X005340Y006215D02*
X005340Y006385D01*
X005283Y006442D01*
X005227Y006442D01*
X005170Y006385D01*
X005170Y006272D01*
X005227Y006215D01*
X005340Y006215D01*
X005454Y006328D01*
X005510Y006442D01*
X005454Y006583D02*
X005397Y006583D01*
X005340Y006640D01*
X005340Y006810D01*
X005227Y006810D02*
X005454Y006810D01*
X005510Y006754D01*
X005510Y006640D01*
X005454Y006583D01*
X005227Y006583D02*
X005170Y006640D01*
X005170Y006754D01*
X005227Y006810D01*
X005170Y006952D02*
X005283Y007065D01*
X005170Y007179D01*
X005510Y007179D01*
X005510Y006952D02*
X005170Y006952D01*
X004960Y010970D02*
X004790Y010970D01*
X004847Y011083D01*
X004847Y011140D01*
X004790Y011197D01*
X004677Y011197D01*
X004620Y011140D01*
X004620Y011027D01*
X004677Y010970D01*
X004960Y010970D02*
X004960Y011197D01*
X004790Y011522D02*
X004790Y011693D01*
X004733Y011749D01*
X004677Y011749D01*
X004620Y011693D01*
X004620Y011579D01*
X004677Y011522D01*
X004790Y011522D01*
X004904Y011636D01*
X004960Y011749D01*
X004677Y011395D02*
X004620Y011395D01*
X004620Y011338D01*
X004677Y011338D01*
X004677Y011395D01*
X005490Y012640D02*
X005490Y014940D01*
X013490Y014940D01*
X013490Y014190D01*
X013451Y014188D01*
X013412Y014182D01*
X013374Y014173D01*
X013337Y014160D01*
X013301Y014143D01*
X013268Y014123D01*
X013236Y014099D01*
X013207Y014073D01*
X013181Y014044D01*
X013157Y014012D01*
X013137Y013979D01*
X013120Y013943D01*
X013107Y013906D01*
X013098Y013868D01*
X013092Y013829D01*
X013090Y013790D01*
X013092Y013751D01*
X013098Y013712D01*
X013107Y013674D01*
X013120Y013637D01*
X013137Y013601D01*
X013157Y013568D01*
X013181Y013536D01*
X013207Y013507D01*
X013236Y013481D01*
X013268Y013457D01*
X013301Y013437D01*
X013337Y013420D01*
X013374Y013407D01*
X013412Y013398D01*
X013451Y013392D01*
X013490Y013390D01*
X013490Y012640D01*
X005490Y012640D01*
X007357Y013147D02*
X007413Y013147D01*
X007527Y013033D01*
X007527Y012920D02*
X007527Y013147D01*
X007668Y013090D02*
X007668Y013033D01*
X007895Y013033D01*
X007895Y012977D02*
X007895Y013090D01*
X007838Y013147D01*
X007725Y013147D01*
X007668Y013090D01*
X007725Y012920D02*
X007838Y012920D01*
X007895Y012977D01*
X008037Y013147D02*
X008150Y012920D01*
X008263Y013147D01*
X008452Y013147D02*
X008452Y012920D01*
X008396Y012920D02*
X008509Y012920D01*
X008509Y013147D02*
X008452Y013147D01*
X008452Y013260D02*
X008452Y013317D01*
X008646Y013147D02*
X008703Y013147D01*
X008816Y013033D01*
X008816Y012920D02*
X008816Y013147D01*
X008957Y013204D02*
X009014Y013260D01*
X009184Y013260D01*
X009184Y012920D01*
X009014Y012920D01*
X008957Y012977D01*
X008957Y013204D01*
X009689Y013147D02*
X009746Y013147D01*
X009860Y013033D01*
X009860Y012920D02*
X009860Y013147D01*
X010001Y013090D02*
X010058Y013147D01*
X010171Y013147D01*
X010228Y013090D01*
X010228Y012977D01*
X010171Y012920D01*
X010058Y012920D01*
X010001Y012977D01*
X010001Y013090D01*
X010360Y013147D02*
X010473Y013147D01*
X010417Y013204D02*
X010417Y012977D01*
X010360Y012920D01*
X010615Y012977D02*
X010615Y013090D01*
X010672Y013147D01*
X010785Y013147D01*
X010842Y013090D01*
X010842Y012977D01*
X010785Y012920D01*
X010672Y012920D01*
X010615Y012977D01*
X010983Y012920D02*
X010983Y013260D01*
X011097Y013147D01*
X011210Y013260D01*
X011210Y012920D01*
X011230Y018570D02*
X011117Y018570D01*
X011060Y018627D01*
X011060Y018740D01*
X011173Y018740D01*
X011060Y018854D02*
X011117Y018910D01*
X011230Y018910D01*
X011287Y018854D01*
X011287Y018627D01*
X011230Y018570D01*
X011428Y018570D02*
X011655Y018570D01*
X011655Y018910D01*
X011428Y018910D01*
X011542Y018740D02*
X011655Y018740D01*
X011797Y018910D02*
X011797Y018570D01*
X012023Y018570D02*
X012023Y018910D01*
X011910Y018797D01*
X011797Y018910D01*
X012165Y018910D02*
X012392Y018910D01*
X012278Y018910D02*
X012278Y018570D01*
X012533Y018570D02*
X012533Y018797D01*
X012647Y018910D01*
X012760Y018797D01*
X012760Y018570D01*
X012760Y018740D02*
X012533Y018740D01*
X010918Y018740D02*
X010692Y018740D01*
X010692Y018797D02*
X010692Y018570D01*
X010550Y018627D02*
X010493Y018570D01*
X010380Y018570D01*
X010323Y018627D01*
X010323Y018683D01*
X010380Y018740D01*
X010437Y018740D01*
X010380Y018740D02*
X010323Y018797D01*
X010323Y018854D01*
X010380Y018910D01*
X010493Y018910D01*
X010550Y018854D01*
X010692Y018797D02*
X010805Y018910D01*
X010918Y018797D01*
X010918Y018570D01*
X010182Y018570D02*
X009955Y018797D01*
X009955Y018854D01*
X010012Y018910D01*
X010125Y018910D01*
X010182Y018854D01*
X010182Y018570D02*
X009955Y018570D01*
X009813Y018627D02*
X009813Y018683D01*
X009757Y018740D01*
X009643Y018740D01*
X009587Y018683D01*
X009587Y018627D01*
X009643Y018570D01*
X009757Y018570D01*
X009813Y018627D01*
X009757Y018740D02*
X009813Y018797D01*
X009813Y018854D01*
X009757Y018910D01*
X009643Y018910D01*
X009587Y018854D01*
X009587Y018797D01*
X009643Y018740D01*
X009623Y026170D02*
X009623Y026510D01*
X009765Y026454D02*
X009765Y026227D01*
X009822Y026170D01*
X009935Y026170D01*
X009992Y026227D01*
X009765Y026454D01*
X009822Y026510D01*
X009935Y026510D01*
X009992Y026454D01*
X009992Y026227D01*
X010133Y026170D02*
X010360Y026170D01*
X010247Y026170D02*
X010247Y026510D01*
X010360Y026397D01*
X009623Y026283D02*
X009453Y026397D01*
X009623Y026283D02*
X009453Y026170D01*
X009420Y029120D02*
X009760Y029120D01*
X009420Y029347D01*
X009760Y029347D01*
X009590Y029488D02*
X009477Y029488D01*
X009420Y029545D01*
X009420Y029658D01*
X009477Y029715D01*
X009590Y029715D01*
X009647Y029658D01*
X009647Y029545D01*
X009590Y029488D01*
X009590Y029857D02*
X009647Y029913D01*
X009647Y030083D01*
X009533Y030027D02*
X009533Y029913D01*
X009590Y029857D01*
X009420Y029857D02*
X009420Y030027D01*
X009477Y030083D01*
X009533Y030027D01*
X009533Y030225D02*
X009533Y030452D01*
X009590Y030452D01*
X009647Y030395D01*
X009647Y030282D01*
X009590Y030225D01*
X009477Y030225D01*
X009420Y030282D01*
X009420Y030395D01*
X015020Y024913D02*
X015247Y024913D01*
X015247Y025026D02*
X015133Y024913D01*
X015077Y024772D02*
X015190Y024772D01*
X015247Y024715D01*
X015247Y024601D01*
X015190Y024545D01*
X015077Y024545D01*
X015020Y024601D01*
X015020Y024715D01*
X015077Y024772D01*
X015247Y025026D02*
X015247Y025083D01*
X015247Y024413D02*
X015247Y024299D01*
X015304Y024356D02*
X015077Y024356D01*
X015020Y024413D01*
X015077Y024158D02*
X015020Y024101D01*
X015020Y023988D01*
X015077Y023931D01*
X015190Y023931D01*
X015247Y023988D01*
X015247Y024101D01*
X015190Y024158D01*
X015077Y024158D01*
X015020Y023789D02*
X015360Y023789D01*
X015247Y023676D01*
X015360Y023563D01*
X015020Y023563D01*
X015020Y023062D02*
X015077Y023005D01*
X015304Y023005D01*
X015247Y022949D02*
X015247Y023062D01*
X015190Y022807D02*
X015020Y022807D01*
X015190Y022807D02*
X015247Y022751D01*
X015247Y022637D01*
X015190Y022580D01*
X015247Y022439D02*
X015247Y022269D01*
X015190Y022212D01*
X015077Y022212D01*
X015020Y022269D01*
X015020Y022439D01*
X014963Y022439D02*
X015247Y022439D01*
X015360Y022580D02*
X015020Y022580D01*
X014963Y022439D02*
X014907Y022382D01*
X014907Y022326D01*
X015020Y022080D02*
X015020Y021967D01*
X015020Y022023D02*
X015247Y022023D01*
X015247Y021967D01*
X015360Y022023D02*
X015417Y022023D01*
X015304Y021825D02*
X015190Y021825D01*
X015133Y021768D01*
X015133Y021598D01*
X015020Y021598D02*
X015360Y021598D01*
X015360Y021768D01*
X015304Y021825D01*
X015133Y021712D02*
X015020Y021825D01*
X016370Y027670D02*
X016370Y027897D01*
X016370Y027783D02*
X016710Y027783D01*
X016597Y027670D01*
X016654Y028038D02*
X016427Y028038D01*
X016654Y028265D01*
X016427Y028265D01*
X016370Y028208D01*
X016370Y028095D01*
X016427Y028038D01*
X016654Y028038D02*
X016710Y028095D01*
X016710Y028208D01*
X016654Y028265D01*
X016710Y028407D02*
X016370Y028407D01*
X016483Y028407D02*
X016370Y028577D01*
X016483Y028407D02*
X016597Y028577D01*
X016560Y011999D02*
X016504Y011886D01*
X016390Y011772D01*
X016390Y011943D01*
X016333Y011999D01*
X016277Y011999D01*
X016220Y011943D01*
X016220Y011829D01*
X016277Y011772D01*
X016390Y011772D01*
X016277Y011645D02*
X016220Y011645D01*
X016220Y011588D01*
X016277Y011588D01*
X016277Y011645D01*
X016277Y011447D02*
X016220Y011390D01*
X016220Y011277D01*
X016277Y011220D01*
X016390Y011220D02*
X016447Y011333D01*
X016447Y011390D01*
X016390Y011447D01*
X016277Y011447D01*
X016390Y011220D02*
X016560Y011220D01*
X016560Y011447D01*
X011697Y001560D02*
X011583Y001447D01*
X011583Y001220D01*
X011442Y001220D02*
X011442Y001447D01*
X011272Y001447D01*
X011215Y001390D01*
X011215Y001220D01*
X011017Y001277D02*
X011017Y001504D01*
X011073Y001447D02*
X010960Y001447D01*
X011017Y001277D02*
X010960Y001220D01*
X011583Y001390D02*
X011810Y001390D01*
X011810Y001447D02*
X011697Y001560D01*
X011810Y001447D02*
X011810Y001220D01*
X003760Y021817D02*
X003420Y021817D01*
X003420Y022043D01*
X003477Y022185D02*
X003590Y022185D01*
X003647Y022242D01*
X003647Y022355D01*
X003590Y022412D01*
X003533Y022412D01*
X003533Y022185D01*
X003477Y022185D02*
X003420Y022242D01*
X003420Y022355D01*
X003420Y022610D02*
X003704Y022610D01*
X003760Y022667D01*
X003590Y022667D02*
X003590Y022553D01*
X003647Y022799D02*
X003647Y022912D01*
X003704Y022855D02*
X003477Y022855D01*
X003420Y022912D01*
X003420Y023413D02*
X003760Y023413D01*
X003647Y023526D01*
X003760Y023639D01*
X003420Y023639D01*
X003477Y023781D02*
X003420Y023838D01*
X003420Y023951D01*
X003477Y024008D01*
X003590Y024008D01*
X003647Y023951D01*
X003647Y023838D01*
X003590Y023781D01*
X003477Y023781D01*
X003647Y024149D02*
X003647Y024263D01*
X003704Y024206D02*
X003477Y024206D01*
X003420Y024263D01*
X003477Y024395D02*
X003420Y024451D01*
X003420Y024565D01*
X003477Y024622D01*
X003590Y024622D01*
X003647Y024565D01*
X003647Y024451D01*
X003590Y024395D01*
X003477Y024395D01*
X003533Y024763D02*
X003647Y024876D01*
X003647Y024933D01*
X003647Y024763D02*
X003420Y024763D01*
X002707Y027710D02*
X002820Y027823D01*
X002480Y027823D01*
X002480Y027710D02*
X002480Y027937D01*
X002537Y028078D02*
X002764Y028305D01*
X002537Y028305D01*
X002480Y028248D01*
X002480Y028135D01*
X002537Y028078D01*
X002764Y028078D01*
X002820Y028135D01*
X002820Y028248D01*
X002764Y028305D01*
X002820Y028447D02*
X002480Y028447D01*
X002593Y028447D02*
X002480Y028617D01*
X002593Y028447D02*
X002707Y028617D01*
D11*
X003072Y029820D02*
X002128Y029820D01*
X002128Y027340D01*
X003072Y027340D01*
X003072Y029820D01*
X004490Y024290D02*
X004240Y024040D01*
X004240Y023540D01*
X004490Y023290D01*
X004240Y023040D01*
X004240Y022540D01*
X004490Y022290D01*
X004990Y022290D01*
X005240Y022540D01*
X005240Y023040D01*
X004990Y023290D01*
X005240Y023540D01*
X005240Y024040D01*
X004990Y024290D01*
X004490Y024290D01*
X002590Y020490D02*
X002490Y020490D01*
X002490Y018090D01*
X002590Y018090D01*
X003518Y012530D02*
X003518Y010050D01*
X004462Y010050D01*
X004462Y012530D01*
X003518Y012530D01*
X008250Y022318D02*
X010730Y022318D01*
X010730Y023262D01*
X008250Y023262D01*
X008250Y022318D01*
X008250Y025818D02*
X010730Y025818D01*
X010730Y026762D01*
X008250Y026762D01*
X008250Y025818D01*
X008640Y028590D02*
X010340Y028590D01*
X010690Y029390D02*
X010690Y030195D01*
X010340Y030990D02*
X008640Y030990D01*
X008290Y030183D02*
X008290Y029390D01*
X008790Y029790D02*
X008792Y029842D01*
X008798Y029894D01*
X008808Y029946D01*
X008821Y029996D01*
X008838Y030046D01*
X008859Y030094D01*
X008884Y030140D01*
X008912Y030184D01*
X008943Y030226D01*
X008977Y030266D01*
X009014Y030303D01*
X009054Y030337D01*
X009096Y030368D01*
X009140Y030396D01*
X009186Y030421D01*
X009234Y030442D01*
X009284Y030459D01*
X009334Y030472D01*
X009386Y030482D01*
X009438Y030488D01*
X009490Y030490D01*
X009542Y030488D01*
X009594Y030482D01*
X009646Y030472D01*
X009696Y030459D01*
X009746Y030442D01*
X009794Y030421D01*
X009840Y030396D01*
X009884Y030368D01*
X009926Y030337D01*
X009966Y030303D01*
X010003Y030266D01*
X010037Y030226D01*
X010068Y030184D01*
X010096Y030140D01*
X010121Y030094D01*
X010142Y030046D01*
X010159Y029996D01*
X010172Y029946D01*
X010182Y029894D01*
X010188Y029842D01*
X010190Y029790D01*
X010188Y029738D01*
X010182Y029686D01*
X010172Y029634D01*
X010159Y029584D01*
X010142Y029534D01*
X010121Y029486D01*
X010096Y029440D01*
X010068Y029396D01*
X010037Y029354D01*
X010003Y029314D01*
X009966Y029277D01*
X009926Y029243D01*
X009884Y029212D01*
X009840Y029184D01*
X009794Y029159D01*
X009746Y029138D01*
X009696Y029121D01*
X009646Y029108D01*
X009594Y029098D01*
X009542Y029092D01*
X009490Y029090D01*
X009438Y029092D01*
X009386Y029098D01*
X009334Y029108D01*
X009284Y029121D01*
X009234Y029138D01*
X009186Y029159D01*
X009140Y029184D01*
X009096Y029212D01*
X009054Y029243D01*
X009014Y029277D01*
X008977Y029314D01*
X008943Y029354D01*
X008912Y029396D01*
X008884Y029440D01*
X008859Y029486D01*
X008838Y029534D01*
X008821Y029584D01*
X008808Y029634D01*
X008798Y029686D01*
X008792Y029738D01*
X008790Y029790D01*
X013990Y024040D02*
X013740Y023790D01*
X013740Y023290D01*
X013990Y023040D01*
X013740Y022790D01*
X013740Y022290D01*
X013990Y022040D01*
X014490Y022040D01*
X014740Y022290D01*
X014740Y022790D01*
X014490Y023040D01*
X014740Y023290D01*
X014740Y023790D01*
X014490Y024040D01*
X013990Y024040D01*
X016018Y027300D02*
X016018Y029780D01*
X016962Y029780D01*
X016962Y027300D01*
X016018Y027300D01*
X016390Y020490D02*
X016490Y020490D01*
X016490Y019790D01*
X016446Y019788D01*
X016403Y019782D01*
X016361Y019773D01*
X016319Y019760D01*
X016279Y019743D01*
X016240Y019723D01*
X016203Y019700D01*
X016169Y019673D01*
X016136Y019644D01*
X016107Y019611D01*
X016080Y019577D01*
X016057Y019540D01*
X016037Y019501D01*
X016020Y019461D01*
X016007Y019419D01*
X015998Y019377D01*
X015992Y019334D01*
X015990Y019290D01*
X015992Y019246D01*
X015998Y019203D01*
X016007Y019161D01*
X016020Y019119D01*
X016037Y019079D01*
X016057Y019040D01*
X016080Y019003D01*
X016107Y018969D01*
X016136Y018936D01*
X016169Y018907D01*
X016203Y018880D01*
X016240Y018857D01*
X016279Y018837D01*
X016319Y018820D01*
X016361Y018807D01*
X016403Y018798D01*
X016446Y018792D01*
X016490Y018790D01*
X016490Y018090D01*
X016390Y018090D01*
X015962Y012780D02*
X015018Y012780D01*
X015018Y010300D01*
X015962Y010300D01*
X015962Y012780D01*
X010490Y001890D02*
X009990Y001890D01*
X009740Y001640D01*
X009740Y001140D01*
X009990Y000890D01*
X010490Y000890D01*
X010740Y001140D01*
X010740Y001640D01*
X010490Y001890D01*
D12*
X010365Y022665D02*
X010185Y022665D01*
X010275Y022665D02*
X010275Y022935D01*
X010365Y022845D01*
X010070Y022890D02*
X010025Y022935D01*
X009935Y022935D01*
X009890Y022890D01*
X010070Y022710D01*
X010025Y022665D01*
X009935Y022665D01*
X009890Y022710D01*
X009890Y022890D01*
X009776Y022935D02*
X009776Y022665D01*
X009776Y022755D02*
X009641Y022845D01*
X009776Y022755D02*
X009641Y022665D01*
X010070Y022710D02*
X010070Y022890D01*
M02*
